<svg width="171" height="440" viewBox="0 0 171 440" fill="none" xmlns="http://www.w3.org/2000/svg">
<g clip-path="url(#clip0_5041_20994)">
<path d="M-151.596 157.01C-188.843 150.882 -225.742 171.549 -236.34 208.157C-239.506 219.185 -236.997 233.4 -231.146 242.881C-228.436 247.252 -223.578 250.958 -221.905 255.901C-219.898 261.74 -221.298 268.481 -219.38 274.431C-215.852 285.544 -208.622 296.596 -201.957 306.106C-197.009 313.143 -191.541 319.8 -185.599 326.021C-182.967 328.826 -181.07 331.213 -177.51 333.171C-174.356 334.877 -170.511 335.785 -167.638 338.092C-162.375 342.296 -159.104 349.477 -154.225 354.332C-150.093 358.169 -145.72 361.739 -141.133 365.02C-128.775 374.454 -113.865 383.491 -98.2824 386.137C-81.2532 389.037 -66.348 386.229 -52.3886 375.771C-35.1705 362.712 -26.1176 344.588 -20.7509 324.055C-18.3937 315.078 -18.2098 306.01 -13.2695 297.949C-6.77729 287.375 1.1826 277.671 6.72981 266.648C9.73326 260.69 13.249 254.342 15.8297 248.244C20.7704 236.517 13.719 226.84 9.05669 216.17C1.00657 197.747 -11.6902 179.828 -24.5692 164.406C-32.6185 154.781 -40.6594 144.977 -52.9291 141.113C-59.3787 139.089 -65.5925 139.617 -72.2438 140.349C-82.4778 141.41 -91.9707 140.314 -102.127 140.339C-112.734 140.376 -121.833 141.756 -131.765 145.838C-138.807 148.734 -148.439 155.206 -155.783 156.146C-160.516 156.745 -166.041 156.263 -170.912 156.492" fill="#BACFE0"/>
<path d="M-151.596 157.01C-188.843 150.882 -225.742 171.549 -236.34 208.157C-239.506 219.185 -236.997 233.4 -231.146 242.881C-228.436 247.252 -223.578 250.958 -221.905 255.901C-219.898 261.74 -221.298 268.481 -219.38 274.431C-215.852 285.544 -208.622 296.596 -201.957 306.106C-197.009 313.143 -191.541 319.8 -185.599 326.021C-182.967 328.826 -181.07 331.213 -177.51 333.171C-174.356 334.877 -170.511 335.785 -167.638 338.092C-162.375 342.296 -159.104 349.477 -154.225 354.332C-150.093 358.169 -145.72 361.739 -141.133 365.02C-128.775 374.454 -113.865 383.491 -98.2824 386.137C-81.2532 389.037 -66.348 386.229 -52.3886 375.771C-35.1705 362.712 -26.1176 344.588 -20.7509 324.055C-18.3937 315.078 -18.2098 306.01 -13.2695 297.949C-6.77729 287.375 1.1826 277.671 6.7298 266.648C9.73325 260.69 13.249 254.342 15.8297 248.244C20.7704 236.517 13.719 226.84 9.05669 216.17C1.00657 197.747 -11.6902 179.828 -24.5692 164.406C-32.6185 154.781 -40.6594 144.977 -52.9291 141.113C-59.3787 139.089 -65.5925 139.617 -72.2438 140.349C-82.4778 141.41 -91.9707 140.314 -102.127 140.339C-112.734 140.376 -121.833 141.756 -131.765 145.838C-138.807 148.734 -148.439 155.206 -155.783 156.146C-160.516 156.745 -166.041 156.263 -170.912 156.492" stroke="#20173B" stroke-width="2" stroke-miterlimit="10"/>
<path d="M19.5791 248.247C17.5609 250.641 16.3545 255.625 15.1601 258.572C13.3748 263.247 11.2649 267.793 8.84604 272.175C5.81444 277.451 0.699088 281.043 -2.15549 286.4C-5.01006 291.757 -7.62797 296.647 -11.5596 301.268C-17.9705 308.833 -24.951 317.377 -34.3652 321.268C-45.1698 325.739 -54.0909 318.328 -61.2773 310.867C-67.9727 303.939 -75.7907 297.963 -82.1249 290.733C-86.3574 285.771 -90.9145 281.096 -95.7663 276.737C-99.6887 273.314 -103.905 272.011 -108.858 270.649C-112.223 269.936 -115.324 268.307 -117.818 265.942C-120.383 263.776 -123.559 262.173 -126.186 259.982C-129.268 257.401 -129.054 256.98 -129.421 253.305C-129.683 251.059 -130.807 245.528 -127.164 245.468C-123.52 245.408 -118.031 257.908 -115.312 260.677C-113.611 262.406 -107.531 265.502 -107.04 262.254C-106.573 259.24 -111.9 254.667 -113.581 252.204C-115.943 248.747 -119.106 245.87 -121.367 242.394C-122.857 240.088 -123.996 237.199 -119.561 237.631C-115.415 238.024 -111.783 243.838 -109.9 246.796C-108.313 249.287 -100.431 261.181 -98.9763 258.539C-97.2248 255.471 -106.476 245.363 -104.178 242.902C-101.88 240.44 -98.4513 247.659 -95.6774 249.739C-93.7622 251.162 -91.3565 252.472 -90.2981 254.761C-88.7439 258.14 -90.65 262.087 -88.7569 265.325C-85.463 270.979 -77.6615 273.056 -72.2215 275.63C-65.6525 278.743 -59.2852 281.894 -53.8354 286.761C-50.7604 289.504 -43.529 297.823 -38.7777 297.627C-35.5841 297.505 -31.265 290.678 -28.8865 288.284C-21.6321 281.014 -10.9609 268.405 -12.282 257.258" fill="#BACFE0"/>
<path d="M-38.868 108.766C-33.4542 106.802 -27.5723 107.546 -21.8637 109.6C-13.9466 112.438 -7.6467 114.892 -2.41536 106.74C1.45052 100.703 3.78022 94.4064 11.2408 92.4432C20.2188 90.1054 27.224 93.2611 34.6615 98.26C43.0886 103.917 46.8187 113.396 53.8346 120.138C61.2075 127.199 68.8584 133.258 73.8793 142.462C75.5929 145.577 76.0573 149.02 77.487 152.293C78.4141 154.465 80.4137 156.816 80.9993 159.089C81.8114 162.269 80.8565 166.502 79.9655 169.564C77.2336 178.941 70.2053 185.407 62.9582 191.68C59.1884 194.956 50.3043 198.862 49.0571 203.431C48.0111 207.258 49.4175 212.058 49.6153 215.948C50.0924 224.501 45.0463 234.625 38.2279 239.754C25.5061 249.316 8.87702 249.319 -4.88646 241.699C-11.6072 237.968 -15.2485 232.635 -20.8203 227.702C-29.3998 220.19 -37.9076 213.343 -45.2542 204.379C-50.4671 198.038 -54.3295 191.463 -58.6045 184.44C-61.1879 180.216 -61.9196 176.515 -60.5953 171.744C-59.2711 166.972 -59.1331 167.572 -61.311 163.2C-63.8889 158.11 -64.6143 152.65 -65.1642 146.927C-66.1288 137.048 -66.0295 128.058 -59.6539 119.743C-53.5774 111.755 -36.7057 104.092 -27.2775 107.782" fill="#BACFE0"/>
<path d="M23.5875 90.6707C27.6234 86.3013 29.7531 79.9125 33.3264 75.2181C34.9191 73.1187 35.4759 72.9408 38.5117 73.4852C44.3461 74.6908 49.4941 78.0796 52.9026 82.9586C49.6822 85.4011 47.2672 89.4183 44.7702 92.5486C42.2733 95.679 39.4736 98.8663 36.742 101.858" fill="#7CBC5C"/>
<path d="M50.9416 117.559C55.3697 114.2 59.6681 110.595 64.1122 107.239C65.8596 105.914 69.2752 101.885 71.3863 101.894C74.1194 101.964 76.8292 106.221 78.193 108.019C80.4913 111.049 82.7052 114.158 84.9328 117.285C80.5923 120.937 76.07 124.367 71.3834 127.562C70.1757 128.478 66.5259 131.361 65.6328 131.247" fill="#7CBC5C"/>
<path d="M42.633 222.437C42.3479 239.505 9.04146 242.163 -2.63145 239.96C14.454 251.2 46.7928 245.479 48.8127 222.509C46.7736 222.125 44.6821 222.101 42.633 222.437Z" fill="white"/>
<path d="M76.3051 147.941C80.1378 148.111 87.3668 144.569 91.7631 142.917C93.8708 142.124 97.9775 140.375 100.308 140.75C105.844 141.569 106.879 150.648 105.902 154.738C104.926 158.828 100.476 158.509 96.8083 158.918C92.1181 159.441 85.4546 158.902 81.4435 159.96" fill="#7CBC5C"/>
<path d="M40.0626 75.055C39.7272 78.185 36.9708 81.2392 35.56 84.0345C34.0128 87.1059 32.9618 90.3186 30.9201 93.118C30.7879 90.1125 28.011 88.4085 26.7229 86.0641C29.066 83.453 30.1383 80.3823 31.7728 77.331C33.7122 73.6746 35.7584 73.5603 40.0626 75.055Z" fill="#D3EA73"/>
<path d="M75.4969 105.908C71.077 109.03 66.8892 112.724 62.5526 116.013C60.3752 117.665 57.4547 119.42 55.7931 121.485C54.0633 120.497 53.0086 118.536 51.7973 116.996C56.0699 112.661 60.6419 108.632 65.4791 104.937C66.6319 104.063 68.1234 102.457 69.5303 101.994C72.2937 101.077 72.7623 103.367 75.4969 105.908Z" fill="#D3EA73"/>
<path d="M103.907 146.388C101.73 146.026 98.9744 147.599 96.8201 148.197C93.7674 149.075 90.586 148.814 87.4114 149.093C83.8514 149.378 80.5015 151.042 76.9756 151.257C76.8653 150.694 76.6621 149.856 76.6117 149.333C78.7696 147.409 82.8592 146.493 85.4982 145.469C88.3437 144.432 91.2857 143.409 94.173 142.484C98.5248 141.153 103.053 140.207 103.907 146.388Z" fill="#D3EA73"/>
<path d="M23.4075 90.4334C27.4434 86.0639 29.58 79.6843 33.1464 74.9808C34.7391 72.8814 35.2959 72.7035 38.3317 73.2479C44.1692 74.4562 49.3194 77.8482 52.7296 82.7304C49.5092 85.1729 47.0872 89.181 44.5902 92.3113C42.0933 95.4416 39.2936 98.629 36.5689 101.63" stroke="#20173B" stroke-width="2" stroke-miterlimit="10" stroke-linecap="round"/>
<path d="M50.7616 117.321C55.1896 113.963 59.4881 110.358 63.9322 107.002C65.6796 105.676 69.0951 101.648 71.2131 101.666C73.9394 101.726 76.6491 105.983 78.0129 107.781C80.3182 110.821 82.5251 113.921 84.7528 117.048C80.4123 120.699 75.89 124.129 71.2033 127.324C69.9957 128.24 66.3459 131.123 65.4528 131.01" stroke="#20173B" stroke-width="2" stroke-miterlimit="10" stroke-linecap="round"/>
<path d="M-19.3412 310.275C-21.2747 314.776 -22.0493 320.367 -22.9053 325.186C-23.9166 330.448 -25.507 335.584 -27.6472 340.5C-31.1354 349.012 -34.757 355.828 -41.2038 362.529C-51.5114 373.223 -59.69 381.669 -74.7884 384.924C-84.504 387.031 -92.9432 383.352 -102.456 383.997C-92.8083 381.079 -81.7282 384.724 -72.3154 380.489C-58.9153 374.481 -46.2349 361.672 -36.8836 350.554C-32.6098 345.472 -30.1848 342.152 -28.6837 335.808C-27.7956 332.058 -27.8138 328.348 -27.0562 324.653C-26.5705 322.329 -26.645 318.317 -25.8346 316.25C-24.8771 313.712 -21.9688 312.34 -19.7827 310.567C-19.3989 313.214 -19.4292 315.904 -19.8726 318.543" fill="white"/>
<path d="M16.1739 249.838C14.8287 257.242 10.3945 265.609 7.5789 272.575C4.96758 279.013 0.634491 282.041 -3.39529 287.311C-8.22376 293.619 -11.6912 300.03 -17.275 305.703C-21.4244 309.872 -26.0569 313.53 -31.074 316.6C-37.2715 320.438 -43.0789 322.111 -49.8076 317.61C-42.1848 316.012 -35.9509 315.339 -29.34 310.526C-21.185 304.614 -12.6091 298.383 -8.16645 289.305C-3.7849 280.432 0.515679 271.433 5.31359 262.805C7.23098 259.367 11.7211 248.47 16.1739 249.838Z" fill="white"/>
<path d="M15.8444 250.088C0.656003 247.847 -14.5883 250.797 -27.5463 240.495C-39.2288 231.211 -46.6676 217.298 -55.6613 205.744C-60.5434 199.497 -65.8528 194.207 -68.2627 186.546C-70.4284 179.662 -65.2741 176.026 -66.0245 169.564C-66.6864 163.941 -68.6927 159.985 -68.376 154.094C-68.3609 150.786 -68.1221 147.482 -67.661 144.206C-65.544 150.436 -62.5074 156.53 -61.3733 163.118C-60.7664 166.597 -61.9955 169.499 -62.4009 172.898C-62.9371 177.359 -61.3242 180.018 -58.6283 183.724C-45.786 201.303 -33.9369 218.426 -16.7097 232.248C-9.35551 238.144 2.65656 247.768 15.8444 250.088Z" fill="#849FB2"/>
<path d="M-47.2109 113.138C-45.272 114.744 -43.3006 118.598 -41.7029 120.894C-38.3046 125.736 -34.5516 130.323 -31.2928 135.285C-24.6042 145.453 -17.2982 155.124 -10.962 165.53C-5.56399 174.376 1.26192 182.312 7.46054 190.58C12.4449 197.152 16.5145 204.418 21.5127 211.008C25.5349 216.311 32.1779 229.763 40.8661 226.739C42.3967 226.211 44.6585 224.424 44.0039 222.648C43.2031 220.509 38.0969 220.371 36.2954 219.25C33.5391 217.515 31.3061 214.191 29.4337 211.513C26.25 206.955 22.9357 202.452 19.8526 197.817C11.9728 185.964 3.66691 174.291 -4.47153 162.592C-17.1051 144.453 -32.7594 129.266 -47.2109 113.138Z" fill="#849FB2"/>
<path d="M20.0824 194.681C14.204 197.989 9.27511 202.302 3.94135 206.348C-1.54794 210.511 -7.10128 215.787 -14.4142 215.798C-18.9988 215.795 -21.4626 214.846 -24.5465 211.635C-26.8544 209.115 -28.9239 206.386 -30.7285 203.484C-34.156 198.262 -36.2155 193.685 -34.1627 187.555C-33.014 192.737 -28.9557 196.834 -25.2666 200.463C-22.7963 202.903 -20.2148 205.603 -16.9923 206.869C-13.7699 208.134 -11.4939 207.012 -8.552 205.989C-3.30513 204.166 1.08824 202.89 5.51752 199.286C9.40256 196.124 13.2107 192.689 17.186 189.703C18.0798 191.052 19.0537 192.887 20.0824 194.681Z" fill="#849FB2"/>
<path d="M76.1251 147.704C79.9509 147.864 87.1799 144.323 91.5762 142.671C93.6908 141.886 97.7906 140.128 100.121 140.503C105.657 141.323 106.692 150.401 105.715 154.492C104.739 158.582 100.289 158.263 96.6215 158.672C91.9312 159.195 85.2677 158.656 81.2567 159.714" stroke="#20173B" stroke-width="2" stroke-miterlimit="10" stroke-linecap="round"/>
<path d="M44.8285 74.5172C47.5393 72.2787 49.9343 69.6835 51.9479 66.8027" stroke="#20173B" stroke-width="2" stroke-miterlimit="10" stroke-linecap="round"/>
<path d="M79.9221 109.425C82.9313 106.97 85.9271 104.554 89.0216 102.193" stroke="#20173B" stroke-width="2" stroke-miterlimit="10" stroke-linecap="round"/>
<path d="M106.696 148.658C108.38 146.964 114.997 147.006 117.979 146.053" stroke="#20173B" stroke-width="2" stroke-miterlimit="10" stroke-linecap="round"/>
<path d="M-38.868 108.766C-33.4542 106.802 -27.5723 107.546 -21.8637 109.6C-13.9466 112.438 -7.6467 114.892 -2.41537 106.74C1.45052 100.703 3.78022 94.4064 11.2408 92.4432C20.2188 90.1054 27.224 93.2611 34.6615 98.26C43.0886 103.917 46.8187 113.396 53.8346 120.138C61.2075 127.199 68.8584 133.258 73.8793 142.462C75.5929 145.577 76.0573 149.02 77.487 152.293C78.4141 154.465 80.4137 156.816 80.9993 159.089C81.8114 162.269 80.8565 166.502 79.9655 169.564C77.2336 178.941 70.2053 185.407 62.9582 191.68C59.1884 194.956 50.3043 198.862 49.0571 203.431C48.0111 207.258 49.4174 212.058 49.6153 215.948C50.0924 224.501 45.0463 234.625 38.2279 239.754C25.5061 249.316 8.87703 249.319 -4.88645 241.699C-11.6072 237.968 -15.2486 232.635 -20.8203 227.702C-29.3998 220.19 -37.9076 213.343 -45.2542 204.379C-50.4671 198.038 -54.3295 191.463 -58.6045 184.44C-61.1879 180.216 -61.9196 176.515 -60.5953 171.744C-59.2711 166.972 -59.1331 167.572 -61.311 163.2C-63.8889 158.11 -64.6143 152.65 -65.1642 146.927C-66.1288 137.048 -66.0295 128.058 -59.6539 119.743C-53.5774 111.755 -36.7057 104.092 -27.2775 107.782" stroke="#20173B" stroke-width="2" stroke-miterlimit="10" stroke-linecap="round"/>
<path d="M28.9295 148.79C32.1063 136.675 31.0129 117.562 20.7598 102.334C13.123 90.9726 4.42058 84.23 -6.10778 81.9205C-10.6691 80.9228 -14.8084 81.4885 -19.1327 81.2025C-20.9228 81.1224 -23.3882 80.361 -24.203 81.9279C-25.3205 84.0839 -23.2394 91.5781 -23.1918 94.6621C-23.1442 97.7461 -23.6653 100.384 -23.6501 103.407C-23.5999 109.781 -19.209 116.027 -14.4565 122.027C-6.66116 131.83 1.27042 137.518 10.96 140.622C14.8731 141.867 22.3761 146.097 28.9295 148.79Z" fill="white" stroke="#20173B" stroke-width="2" stroke-miterlimit="10"/>
<path d="M26.3245 147.028C29.459 144.909 38.0217 147.933 42.8467 149.392C47.7763 150.866 52.4264 153.145 56.6087 156.136C64.8703 161.747 73.359 165.718 79.6205 175.836C89.3756 191.586 83.0087 202.497 84.7523 215.323C77.2832 214.216 68.0112 210.579 59.9461 207.451C52.6808 204.637 49.2935 201.843 42.9616 193.532C33.5565 181.284 24.045 157.57 26.3245 147.028Z" fill="white" stroke="#20173B" stroke-width="2" stroke-miterlimit="10"/>
<path d="M-24.3262 108.995C-29.7276 105.255 -31.6195 93.6781 -40.713 96.3766C-47.0471 98.3051 -48.6236 105.252 -45.3529 110.838C-32.0112 133.616 -11.1212 150.784 3.72317 172.408C11.599 183.875 18.9598 195.633 26.8607 207.038C31.042 213.083 35.5463 220.58 43.4997 221.737C48.1192 222.374 51.0181 219.356 51.5314 214.883C52.1092 209.944 48.7971 206.489 45.9518 202.738C42.8366 198.631 39.6874 194.65 36.3847 190.713C33.617 187.406 31.0186 183.942 28.2509 180.635C24.3393 175.952 20.1282 173.136 15.6782 169.207C9.60469 163.646 4.51638 157.098 0.627785 149.839C-1.1921 146.29 -3.38229 142.943 -5.90632 139.855C-8.03015 137.397 -9.91572 136.469 -12.4416 134.431C-17.7948 130.166 -17.931 125.654 -20.7168 120.233C-22.5889 116.549 -24.3822 112.531 -24.3262 108.995Z" fill="#D3EA73"/>
<path d="M45.9744 220.952C35.0462 213.669 26.5006 202.25 20.2952 190.781C22.1167 190.161 23.3523 190.403 25.1105 190.004C26.5204 189.697 27.0265 188.407 28.5489 189.179C29.7077 189.738 30.6715 192.415 31.1991 193.453C32.636 196.259 34.1392 199.001 37.4915 199.507C36.1618 197.64 34.5129 195.713 33.8726 193.538C33.5716 191.972 33.3892 190.385 33.3269 188.791C32.9055 185.746 32.3592 184.075 29.926 182.254C26.0673 182.981 22.4791 186.896 19.5199 189.227C17.6901 190.614 17.2551 190.326 18.1676 192.308C19.5329 194.85 21.0332 197.316 22.6622 199.697C26.5515 206.136 35.2516 221.997 45.9744 220.952Z" fill="#7CBC5C"/>
<path d="M-25.1624 109.298C-25.8156 107.867 -26.5123 106.454 -27.2777 105.065C-30.0713 99.9948 -34.4707 94.4603 -40.585 96.2795C-46.919 98.2079 -48.5047 105.162 -45.234 110.747C-31.8854 133.535 -10.9884 150.712 3.86285 172.345C11.7387 183.813 19.1087 195.563 27.0073 206.984C31.2047 213.032 35.7343 220.581 43.6463 221.683C48.2749 222.313 51.1739 219.295 51.6802 214.813C52.258 209.875 48.9368 206.427 46.0915 202.675C42.9763 198.568 39.827 194.587 36.5335 190.643C33.7659 187.336 31.1674 183.872 28.3928 180.556C24.4881 175.883 20.27 173.057 15.8109 169.135C9.74356 163.563 4.65424 157.013 0.753607 149.757C-1.06296 146.206 -3.25009 142.858 -5.77134 139.767C-7.66919 137.569 -10.1005 136.207 -12.2768 134.363C-14.453 132.52 -15.7366 130.144 -17.1636 127.502C-20.3439 121.618 -22.4085 115.304 -25.1624 109.298Z" stroke="#20173B" stroke-width="2" stroke-miterlimit="10"/>
<path d="M3.85238 85.4949C-6.18105 85.168 -13.4538 94.5804 -17.5957 102.61C-19.0863 105.509 -18.0704 108.046 -16.6102 110.921C-13.9215 116.453 -10.4467 121.566 -6.29316 126.101C-2.77143 129.975 1.70239 132.861 6.68648 134.474C15.5064 127.9 33.9286 122.224 31.1333 108.125C30.0567 107.504 29.278 105.679 28.4819 104.629C27.1735 102.904 26.0048 101.116 24.7216 99.3864C22.0654 95.7883 18.9155 92.5821 15.3647 89.8619C12.975 88.0223 9.31723 85.8218 6.21541 85.3993L3.85238 85.4949Z" fill="white" stroke="#20173B" stroke-width="2" stroke-miterlimit="10"/>
<path d="M-4.68533 86.1902C-6.98381 85.8199 -9.71514 84.5558 -11.8492 84.5353C-14.4674 84.5225 -16.7218 86.4336 -18.2269 88.0784C-21.5272 91.6886 -22.9018 97.5908 -21.5825 104.556C-19.4284 115.719 -10.2952 128.748 -0.147331 134.927C10.0006 141.105 20.2539 139.727 23.2433 131.564C25.3735 125.822 23.6819 117.112 19.3636 109.101C14.2406 99.6288 5.45639 94.1273 -1.96002 87.0851" fill="#20173B"/>
<path d="M62.1502 157.742C63.7538 158.754 65.462 159.544 67.0113 160.712C69.8093 163.036 72.2703 165.738 74.3241 168.739C77.204 172.536 81.0926 176.675 81.5244 181.596C81.8116 184.999 81.8087 188.421 81.5153 191.825C81.3674 193.721 81.169 195.625 80.8924 197.503C80.6159 199.38 79.9851 199.974 78.208 201.336C74.5933 204.277 70.8041 206.997 66.8615 209.482C63.7585 207.177 60.2471 206.461 56.5556 205.508C51.835 204.3 48.5997 203.246 45.4152 199.579C40.718 194.184 35.4365 189.52 33.2595 182.659C35.0195 176.752 38.1439 169.566 42.8137 165.348C45.5538 162.939 48.6413 160.956 51.9717 159.466C55.1921 158.13 58.6723 157.541 62.1502 157.742Z" fill="white" stroke="#20173B" stroke-width="2" stroke-miterlimit="10"/>
<path d="M57.1467 161.235C55.6355 160.086 53.7461 159.549 51.8535 159.729C46.3664 160.094 39.346 164.671 37.7331 170.107C35.6427 176.429 35.8655 183.281 38.3618 189.444C41.4134 196.906 49.4483 204.802 55.6353 208.722C60.1357 211.578 64.4855 213.512 68.0231 212.267C70.4074 211.439 72.5947 210.125 74.4463 208.409C76.2978 206.693 77.7732 204.612 78.7789 202.298C80.8269 197.207 78.6172 191.824 75.3932 186.433C72.4903 181.475 69.3295 176.674 65.9239 172.048C63.385 168.567 60.6295 163.813 57.1467 161.235Z" fill="#20173B"/>
<path d="M39.2753 200.757C34.6305 194.623 32.6155 186.892 33.6727 179.261C34.7299 171.631 38.7728 164.725 44.9138 160.06C45.9402 159.29 47.0165 158.589 48.1356 157.962C47.4868 150.502 44.693 143.393 40.0906 137.493C36.5259 132.805 32.0941 128.845 27.0349 125.827C25.6527 127.499 24.084 129.007 22.3593 130.323C16.2084 134.976 8.46665 137.005 0.833157 135.964C-6.80033 134.923 -13.702 130.897 -18.357 124.769C-23.0017 118.635 -25.0167 110.905 -23.9596 103.274C-22.9024 95.6441 -18.8595 88.7383 -12.7185 84.0731C-6.56935 79.4169 1.17156 77.3848 8.80547 78.4229C16.4394 79.461 23.3425 83.4843 28 89.61C31.4297 94.1719 33.442 99.6424 33.7874 105.343C34.1327 111.044 32.796 116.725 29.9429 121.681C35.4195 125.005 40.2222 129.326 44.1022 134.421C48.9192 140.591 52.0022 147.935 53.0342 155.699C58.8136 153.708 65.069 153.584 70.9145 155.344C76.76 157.103 81.8994 160.658 85.6044 165.503C90.248 171.641 92.2619 179.374 91.2044 187.006C90.147 194.639 86.1045 201.547 79.9636 206.216C73.8261 210.871 66.0984 212.91 58.4725 211.887C50.8465 210.864 43.9436 206.861 39.2753 200.757ZM81.5977 168.657C77.7419 163.608 72.0411 160.293 65.7392 159.435C59.4373 158.577 53.0459 160.245 47.9598 164.076C42.8993 167.941 39.5692 173.646 38.6964 179.946C37.8235 186.246 39.4786 192.629 43.3006 197.703C47.1564 202.752 52.8573 206.067 59.1592 206.926C65.4612 207.784 71.8526 206.115 76.9386 202.284C81.9992 198.42 85.3292 192.715 86.2021 186.415C87.075 180.115 85.4197 173.731 81.5977 168.657ZM23.9932 92.7066C20.1374 87.6579 14.4366 84.3427 8.13466 83.4845C1.83275 82.6263 -4.55865 84.2948 -9.64473 88.1258C-14.7053 91.9904 -18.0353 97.6952 -18.9082 103.995C-19.7811 110.295 -18.1259 116.679 -14.3039 121.753C-10.4481 126.802 -4.74721 130.117 1.55469 130.975C7.85661 131.833 14.248 130.165 19.3341 126.334C24.393 122.47 27.7227 116.768 28.5968 110.47C29.4709 104.172 27.8185 97.7903 24.0001 92.7157L23.9932 92.7066Z" fill="#FF8E31"/>
<path d="M84.7174 166.291C89.1773 172.187 91.1117 179.614 90.096 186.945C89.0803 194.276 85.1975 200.912 79.2993 205.397C73.391 209.867 65.9549 211.815 58.6228 210.815C51.2907 209.815 44.6616 205.948 40.1901 200.063C35.729 194.171 33.7938 186.745 34.8092 179.416C35.8246 172.087 39.7077 165.454 45.606 160.973C46.7804 160.096 48.0198 159.31 49.3133 158.621C48.815 150.67 45.9186 143.062 41.0055 136.799C37.1588 131.741 32.3235 127.519 26.7923 124.387C25.3175 126.285 23.6041 127.985 21.6947 129.446C15.7864 133.916 8.35037 135.865 1.01828 134.865C-6.31381 133.865 -12.943 129.998 -17.4144 124.112C-21.8755 118.22 -23.8108 110.795 -22.7953 103.466C-21.7799 96.1367 -17.8968 89.5036 -11.9985 85.0224C-6.092 80.5502 1.34337 78.5985 8.67588 79.5955C16.0084 80.5925 22.639 84.4569 27.1128 90.3405C30.5358 94.8723 32.492 100.343 32.7204 106.022C32.9489 111.701 31.4386 117.318 28.3913 122.124C34.1568 125.43 39.1975 129.86 43.215 135.152C48.2117 141.557 51.2691 149.26 52.027 157.354C57.7116 155.048 63.9931 154.673 69.9036 156.285C75.814 157.898 81.0256 161.408 84.7357 166.277M42.4041 198.383C46.4435 203.674 52.4168 207.148 59.0202 208.048C65.6235 208.947 72.3205 207.198 77.6492 203.183C82.9524 199.135 86.4421 193.157 87.3567 186.556C88.2713 179.955 86.5364 173.266 82.5308 167.949C78.4914 162.659 72.5181 159.184 65.9148 158.285C59.3115 157.386 52.6146 159.135 47.2858 163.15C41.9827 167.198 38.4929 173.176 37.5783 179.777C36.6637 186.378 38.3985 193.067 42.4041 198.383ZM-15.2005 122.433C-11.1611 127.724 -5.18769 131.198 1.41562 132.097C8.01893 132.996 14.716 131.248 20.0447 127.233C25.3478 123.184 28.8376 117.207 29.7522 110.605C30.6668 104.004 28.9319 97.3153 24.9262 91.9989C20.8869 86.7081 14.9136 83.2338 8.31027 82.3346C1.70696 81.4353 -4.98998 83.1841 -10.3187 87.1991C-15.6219 91.2478 -19.1117 97.2252 -20.0263 103.826C-20.9409 110.428 -19.2061 117.116 -15.2005 122.433ZM86.5655 164.889C82.8572 160.028 77.7588 156.408 71.943 154.507C66.1271 152.606 59.8672 152.513 53.9893 154.241C52.7653 146.756 49.6837 139.701 45.0261 133.72C41.2839 128.804 36.6979 124.591 31.4808 121.276C34.1664 116.186 35.3519 110.442 34.8993 104.712C34.4467 98.9817 32.3745 93.5015 28.924 88.9092C24.0811 82.544 16.9059 78.3636 8.97147 77.2846C1.03708 76.2056 -7.00875 78.3161 -13.4016 83.1534C-19.7827 88.0045 -23.9833 95.1828 -25.0821 103.113C-26.1809 111.044 -24.0881 119.079 -19.2627 125.456C-14.4222 131.823 -7.24851 136.007 0.68546 137.089C8.61943 138.171 16.6661 136.063 23.0608 131.228C24.5939 130.06 26.01 128.745 27.289 127.303C31.8726 130.165 35.8968 133.835 39.1663 138.136C43.4765 143.674 46.1633 150.301 46.928 157.282C45.9873 157.832 45.0803 158.438 44.2121 159.097C37.831 163.948 33.6304 171.126 32.5316 179.057C31.4328 186.988 33.5256 195.023 38.3509 201.4C43.1914 207.767 50.3653 211.95 58.2992 213.032C66.2332 214.114 74.2798 212.007 80.6745 207.172C87.0579 202.319 91.2602 195.138 92.3594 187.204C93.4586 179.271 91.365 171.233 86.5378 164.853L86.5655 164.889ZM44.2338 196.996C40.5954 192.163 39.02 186.085 39.8511 180.086C40.6822 174.088 43.8525 168.656 48.6704 164.975C53.5138 161.328 59.5995 159.74 65.6 160.557C71.6005 161.374 77.0289 164.531 80.701 169.337C84.3395 174.169 85.915 180.248 85.0839 186.246C84.2528 192.245 81.0825 197.677 76.2647 201.358C71.4212 205.005 65.3355 206.593 59.335 205.776C53.3344 204.958 47.906 201.802 44.2338 196.996ZM-13.3707 121.045C-17.0091 116.213 -18.5846 110.134 -17.7535 104.136C-16.9224 98.1373 -13.752 92.7053 -8.93414 89.0246C-4.09071 85.3777 1.99496 83.7895 7.99547 84.6067C13.996 85.4238 19.4243 88.58 23.0965 93.3867C26.7349 98.2189 28.3105 104.297 27.4793 110.296C26.6482 116.294 23.478 121.727 18.6601 125.407C13.8167 129.054 7.73093 130.642 1.73042 129.825C-4.2701 129.008 -9.69853 125.852 -13.3707 121.045Z" fill="#20173B"/>
<path d="M3.65999 107.093C2.05818 103.29 7.62991 101.781 9.90384 103.925C11.6178 105.5 12.728 108.123 11.4318 110.329C8.66182 115.075 5.54098 110.181 3.65999 107.093Z" fill="white"/>
<path d="M-1.96301 120.79C-0.603168 120.066 0.967311 119.843 2.47291 120.16C3.97852 120.477 5.32303 121.315 6.27055 122.525C7.45114 123.873 7.9044 124.679 6.21534 125.701C4.1853 126.939 0.741188 126.977 -0.997461 125.521C-2.96184 123.862 -4.70066 121.284 -1.96301 120.79Z" fill="white"/>
<path d="M60.7526 180.298C58.2896 177.392 62.2408 177.357 64.0968 178.911C65.9529 180.465 68.5596 183.161 67.1858 185.454C64.0874 190.68 58.5102 182.832 60.098 179.054" fill="white"/>
<path d="M43.2759 182.223C46.8424 180.237 49.2332 189.868 45.5038 191.317C43.2656 192.166 40.8719 185.628 42.2044 183.869C42.2858 184.11 42.3671 184.35 43.2759 182.223Z" fill="white"/>
<path d="M51.1791 196.861C54.0184 195.987 64.337 200.224 57.7908 201.911C56.3468 202.288 51.8616 200.858 51.3857 199.034C50.7909 196.767 54.2965 197.171 55.8329 198.019" fill="white"/>
<path d="M-39.5677 106.133C-35.2268 106.004 -34.6058 111.213 -33.1958 114.155C-31.7858 117.097 -29.4889 119.251 -27.5122 121.648C-25.5355 124.046 -25.354 126.755 -23.716 129.352C-21.699 132.581 -18.5311 134.535 -16.1691 137.402L-7.95994 147.409C-4.19565 151.973 -1.10713 157.337 3.10966 161.472C6.38725 164.434 9.2305 167.844 11.5558 171.601C13.2237 174.452 15.0885 177.184 17.1367 179.776C20.1748 183.554 23.7242 187.246 26.4261 191.264C28.2411 193.942 27.7198 197.055 29.1767 199.717C30.6337 202.379 33.6327 202.894 36.0315 204.195C37.8129 205.245 39.2641 206.772 40.2211 208.605C41.1781 210.437 41.6029 212.502 41.4475 214.566" stroke="#20173B" stroke-width="2" stroke-miterlimit="10"/>
<path d="M19.2172 247.314C17.1989 249.707 15.9926 254.691 14.7982 257.639C13.024 262.307 10.9312 266.849 8.53458 271.232C5.50298 276.508 0.387536 280.1 -2.47396 285.448C-5.33546 290.796 -7.94643 295.695 -11.8711 300.325C-18.289 307.881 -25.2625 316.434 -34.6767 320.325C-45.4883 324.787 -54.4023 317.385 -61.5957 309.915C-68.2842 302.996 -76.1091 297.012 -82.4433 289.781C-86.6755 284.829 -91.231 280.162 -96.0801 275.811C-99.9955 272.396 -104.212 271.094 -109.172 269.722C-112.537 269.008 -115.637 267.38 -118.132 265.016C-120.706 262.856 -123.88 261.237 -126.507 259.046C-129.588 256.466 -129.374 256.044 -129.741 252.369C-129.996 250.132 -131.121 244.602 -127.485 244.532C-123.848 244.463 -118.352 256.973 -115.625 259.75C-113.924 261.48 -104.288 267.097 -107.353 261.327C-107.807 260.463 -112.214 253.741 -113.902 251.268C-116.257 247.821 -119.426 244.934 -121.681 241.467C-123.171 239.161 -124.31 236.272 -119.875 236.704C-115.736 237.088 -112.671 242.743 -110.77 245.744C-109.183 248.236 -101.836 261.154 -99.2969 257.603C-97.2371 254.733 -108.053 245.222 -104.499 241.966C-101.941 239.638 -98.7719 246.723 -95.9911 248.813C-94.0759 250.236 -91.6702 251.546 -90.6118 253.834C-89.0669 257.22 -90.9637 261.161 -89.0706 264.398C-85.7836 270.043 -77.9752 272.129 -72.5352 274.704C-65.9823 277.814 -59.606 280.958 -54.1562 285.825C-51.0743 288.577 -43.8428 296.896 -39.0915 296.7C-35.9048 296.569 -31.5788 289.751 -29.2003 287.358C-21.9529 280.078 -11.2747 267.479 -12.5958 256.331" stroke="#20173B" stroke-width="2" stroke-miterlimit="10" stroke-linecap="round"/>
<path d="M-5.76079 136.855C-10.7387 140.4 -13.8031 147.153 -17.8403 151.768C-21.4166 155.774 -26.4144 159.464 -29.3553 163.967C-33.9466 170.986 -36.5655 184.273 -32.8881 192.124C-28.1274 202.201 -19.0892 208.057 -7.79491 206.493C0.65342 205.319 6.98202 198.348 13.1874 193.153C18.9209 188.431 24.952 184.082 31.2432 180.134" fill="#BACFE0"/>
<path d="M-5.76079 136.855C-10.7387 140.4 -13.8031 147.153 -17.8403 151.768C-21.4166 155.774 -26.4144 159.464 -29.3553 163.967C-33.9466 170.986 -36.5655 184.273 -32.8881 192.124C-28.1274 202.201 -19.0892 208.057 -7.79491 206.493C0.653423 205.319 6.98202 198.348 13.1874 193.153C18.9209 188.431 24.952 184.082 31.2432 180.134" stroke="#20173B" stroke-width="2" stroke-miterlimit="10" stroke-linecap="round"/>
</g>
<defs>
<clipPath id="clip0_5041_20994">
<rect width="261" height="384" fill="white" transform="translate(12.955) rotate(52.8216)"/>
</clipPath>
</defs>
</svg>
