<svg width="107" height="255" viewBox="0 0 107 255" fill="none" xmlns="http://www.w3.org/2000/svg">
<g clip-path="url(#clip0_5041_20541)">
<path d="M215.191 259.202C202.649 252.075 188.207 253.584 174.981 250.961C169.332 249.834 163.627 248.505 158.018 246.859C153.516 245.547 149.213 243.563 144.62 242.679C136.065 241.028 127.391 240.126 118.84 239.197C114.732 238.75 110.789 237.558 106.732 237.203C102.455 236.824 98.2105 235.366 93.9219 234.692C88.2128 233.828 82.5573 232.707 76.8691 231.478C68.3591 229.63 59.7743 228.805 51.3406 226.69C48.6072 225.982 47.4334 226.526 46.9281 223.513C46.4854 221.222 46.9112 218.847 48.1227 216.852C54.0431 218.855 60.1189 220.366 66.2884 221.371C74.3603 222.728 82.6115 224.639 90.6837 226.478C111.8 231.302 133.315 232.431 154.39 237.397C166.006 240.134 177.609 242.222 189.276 244.535C194.986 245.682 200.457 247.409 206.185 248.047C209.675 248.425 213.205 249.073 216.642 249.698C213.512 252.346 211.891 253.836 215.191 259.202Z" fill="#EFFF92" stroke="#20173B" stroke-miterlimit="10"/>
<path d="M215.88 259.28C203.333 252.147 188.896 253.661 175.671 251.028C170.015 249.906 164.311 248.576 158.713 246.931C154.211 245.619 149.908 243.636 145.31 242.745C136.755 241.106 128.086 240.198 119.535 239.269C115.421 238.827 111.484 237.63 107.421 237.28C103.144 236.902 98.8793 235.409 94.6109 234.77C88.9019 233.906 83.2463 232.784 77.5581 231.555C69.0539 229.703 60.4633 228.882 52.0354 226.762C49.302 226.054 48.1283 226.598 47.6177 223.58C47.1777 221.292 47.6032 218.922 48.8117 216.929C54.7198 218.92 60.7805 220.427 66.9339 221.435C75.0116 222.787 83.2569 224.703 91.3239 226.537C112.44 231.36 133.955 232.489 155.035 237.461C166.651 240.198 178.254 242.286 189.928 244.594C195.632 245.735 201.109 247.468 206.836 248.105C210.326 248.484 213.882 249.161 217.293 249.757C214.202 252.413 212.557 253.935 215.88 259.28Z" stroke="#20173B" stroke-width="2" stroke-linecap="round" stroke-linejoin="round"/>
<path d="M277.381 145.88C278.389 147.656 273.416 145.957 274.713 147.527C265.751 145.338 258.781 140.509 251.759 135.128C236.072 123.115 220.529 109.662 204.169 98.0715C198.186 93.8307 190.919 92.3746 184.12 89.9962C179.616 88.4233 167.742 81.9271 164.122 86.8606C164.337 86.5277 164.414 86.1239 164.336 85.7354C161.649 86.2559 159.309 84.9764 156.726 84.8481C153.335 84.6634 150.785 86.1956 147.553 86.8464C141.139 88.134 138.713 89.1351 133.969 94.3162C124.677 104.462 116.792 116.395 109.812 128.202C107.369 132.347 104.437 136.582 103.178 141.254C97.2486 163.177 111.986 185.349 118.85 205.199C122.637 216.145 126.93 226.681 131.325 237.379C137.45 252.273 146.909 264.064 157.613 276.097C162.746 281.433 160.582 287.092 160.925 294.134C161.128 298.55 161.912 306.898 167.144 307.474C169.905 307.79 173.181 304.823 175.929 304.783C180.486 304.733 184.477 308.402 188.668 309.813C188.15 312.868 191.123 316.197 192.921 318.223C197.658 323.437 202.92 328.147 208.625 332.278C216.361 338.082 225.628 347.683 235.304 349.79C240.427 350.915 244.716 349.635 249.621 347.964C253.343 346.717 256.896 345.014 260.2 342.894C262.616 341.558 264.832 339.89 266.784 337.938C267.292 337.484 267.789 337.04 268.291 336.591C269.659 335.305 271.152 334.159 272.747 333.169L271.465 333.652C272.021 333.156 272.57 332.665 273.156 332.215L273.182 332.245C273.591 332.268 273.956 332.288 274.288 332.307C273.963 332.46 273.563 332.671 273.099 332.928L272.754 333.13L274.807 332.347C275.339 332.416 275.861 332.549 276.36 332.745C276.729 332.887 277.121 333.02 277.524 333.154C277.99 333.397 278.484 333.583 278.996 333.708C279.388 333.87 279.762 334.075 280.109 334.32C280.908 335.02 281.651 335.781 282.332 336.597C282.853 337.181 283.41 337.733 283.896 338.349C284.525 339.084 285.207 339.774 285.937 340.41C286.809 341.106 287.88 341.506 288.995 341.552C290.902 341.582 292.39 340.378 293.676 339.125C294.972 337.773 295.845 336.074 296.19 334.234C296.348 333.308 296.65 332.411 297.085 331.578C297.762 330.731 298.358 329.823 298.865 328.865C299.202 327.787 299.445 326.681 299.591 325.561C299.666 325.221 299.844 324.915 299.918 324.586C299.965 323.945 299.818 323.305 299.496 322.749C299.232 321.925 298.895 321.126 298.489 320.362C298.149 319.935 297.785 319.528 297.399 319.142C296.356 317.974 295.365 316.759 294.357 315.56C294.603 315.341 294.902 315.158 295.231 314.938C299.65 312.04 303.475 310.053 307.374 305.972C309.798 303.44 311.943 300.643 314.246 297.998L314.677 298.128C316.321 296.534 319.857 299.223 321.093 300.302C322.454 301.438 323.669 302.715 324.954 303.919C325.949 304.856 326.746 305.855 328.171 306.063C329.904 306.321 331.984 305.545 333.561 305.039C334.889 304.598 335.788 303.722 336.973 302.979C337.83 302.444 338.853 302.202 339.704 301.684C341.371 300.592 342.796 299.169 343.892 297.504C344.157 296.964 344.298 296.372 344.307 295.771C344.315 295.17 344.19 294.575 343.94 294.028C343.41 293.218 342.761 292.491 342.015 291.873C340.725 290.569 339.566 289.201 338.365 287.786C336.604 285.882 335.075 283.776 333.812 281.512C333.449 280.787 333.158 278.873 332.684 277.554C340.902 270.499 351.812 266.035 353.472 254.13C355.332 240.638 349.34 233.54 340.96 224.144C336.444 219.087 331.51 214.739 326.588 210.097C322.143 205.92 312.247 198.603 313.013 192.544L277.381 145.88Z" fill="#7CBC5C"/>
<path d="M103.428 157.532C104.459 162.216 106.794 166.219 108.662 170.534C110.334 174.395 111.795 178.371 113.465 182.253C116.154 188.523 119.329 194.431 122.294 200.538C125.183 206.492 128.828 211.855 131.26 218.049C132.475 221.162 134.679 224.559 135.253 227.814C133.053 227.879 130.677 227.23 128.514 227.702C126.554 223.154 123.96 218.826 122.481 214.006C120.233 206.63 118.28 199.315 114.876 192.456C113.01 188.74 111.43 184.887 110.151 180.93C109.585 178.888 108.858 176.894 107.977 174.967C105.754 170.76 103.376 165.262 103.428 157.532Z" fill="#D3EA73"/>
<path d="M328.33 306.1C326.281 305.158 323.904 302.578 322.108 300.603C320.512 298.816 315.763 295.027 313.969 298.676L313.976 299.026C310.668 302.379 311.26 302.501 308.03 305.931C304.131 310.012 300.302 311.994 295.887 314.897C292.811 316.91 301.244 322.248 300.178 325.877C298.743 330.705 295.091 343.015 289.451 341.922C284.893 341.017 277.929 330.514 273.746 332.853C269.128 335.434 269.468 337.955 264.524 340.407L263.386 341.109C259.361 344 254.93 346.277 250.237 347.865C245.337 349.543 241.054 350.817 235.925 349.697C226.243 347.584 216.987 337.984 209.252 332.18C203.545 328.047 198.281 323.335 193.543 318.119C191.744 316.104 188.766 312.77 189.29 309.709C185.098 308.298 181.102 304.635 176.545 304.684C173.819 304.714 170.527 307.686 167.771 307.376C162.533 306.805 161.729 298.422 161.551 294.036C161.209 286.994 163.394 281.358 158.234 276.004C147.512 263.998 138.083 252.181 131.952 237.281C127.556 226.594 123.269 216.053 119.476 205.101C112.607 185.256 97.8807 163.084 103.799 141.161C105.069 136.49 107.996 132.249 110.439 128.115C117.424 116.303 125.288 104.358 134.601 94.2241C139.339 89.0482 141.765 88.0471 148.185 86.7542C151.406 86.1029 153.957 84.5707 157.352 84.7611C159.957 84.9017 162.27 86.1742 164.968 85.6433C165.041 86.0342 164.962 86.4384 164.748 86.7738C168.384 81.8577 180.264 88.3487 184.746 89.9093C191.525 92.2533 198.818 93.7386 204.801 97.9795C221.176 109.599 236.704 123.023 252.391 135.047C259.412 140.428 266.377 145.251 275.345 147.435C274.053 145.87 281.802 158.758 280.782 156.982L313.727 192.484C312.936 198.575 322.827 205.887 327.301 210.037C332.209 214.65 337.189 219.051 341.68 224.079C350.065 233.47 356.046 240.578 354.185 254.07C351.906 270.633 339.822 269.972 333.729 277.219L333.444 277.746C332.541 280.358 332.943 281.28 334.622 283.559C335.898 285.306 337.304 287.022 338.726 288.649C340.713 290.874 344.146 293.624 344.441 296.519" stroke="#20173B" stroke-width="2" stroke-miterlimit="10"/>
<path d="M103.496 158.973C102.869 156.048 105.99 151.99 107.269 149.494C108.737 146.676 110.773 144.193 113.248 142.202C118.194 138.152 124.868 135.509 130.758 133.199C134.361 131.787 138.361 131.773 141.713 129.714C144.774 127.776 147.6 125.489 150.133 122.898C155.355 117.71 155.194 111.472 154.896 104.704C154.629 99.0643 156.514 97.4338 160.706 93.8581C157.577 95.7183 154.013 96.1508 150.846 97.4153C148.97 107.173 151.665 122.002 138.156 123.391C123.876 124.87 112.127 129.841 104.51 142.605C101.924 147.014 102.631 152.523 103.496 158.973Z" fill="#609E3C"/>
<path d="M347.365 218.929C342.496 213.724 336.951 209.208 332 204.077C329.429 201.398 326.795 198.743 324.196 196.067C323.753 195.948 323.354 195.702 323.049 195.359C313.312 184.762 303.216 174.515 293.151 164.232C292.762 164.304 292.361 164.27 291.991 164.134C291.62 163.998 291.292 163.765 291.042 163.459L276.242 143.086C272.269 143.096 264.469 142.431 262.12 140.613C260.378 139.262 260.722 137.506 258.945 135.881C258.432 135.427 257.893 135.004 257.33 134.614C256.368 134.266 255.413 133.902 254.457 133.538C254.917 149.922 240.951 166.74 230.991 178.279C218.74 192.427 204.065 204.278 187.655 213.275C179.615 217.648 171.201 221.297 162.515 224.179C154.191 226.952 147.025 227.914 138.385 228.345C134.207 228.549 130.365 227.445 126.254 227.054C129.446 231.804 130.312 235.292 131.474 237.981C132.636 240.67 136.888 246.855 136.871 249.777C136.851 253.354 132.559 256.147 131.6 259.649C129.369 267.845 134.345 278.076 137.539 285.416C141.395 294.286 148.58 302.156 154.974 309.304C158.625 313.392 168.22 321.713 174.552 318.063C180.884 314.413 174.436 305.476 172.436 301.247C181.826 311.304 190.064 322.611 199.222 332.96C204.797 339.203 210.105 345.652 215.489 352.023C216.319 352.952 218.147 355.822 219.426 355.855C220.938 355.901 225.145 351.672 226.207 350.849C257.669 327.131 293.806 309.072 318.193 277.185C327.89 264.516 334.954 250.334 342.808 236.518C344.743 233.121 346.689 229.736 348.597 226.331C350.732 222.429 350.392 222.166 347.365 218.929Z" fill="#7673B4"/>
<path d="M135.78 228.298C132.655 230.869 135.71 232.749 136.439 235.352C136.954 237.107 136.441 239.308 137.125 241.321C138.273 244.736 142.102 248.423 140.975 252.232C140.103 255.184 136.72 257.302 135.155 259.949C133.197 263.261 133.413 266.679 134.248 270.332C136.003 278.002 142.065 284.167 146.757 290.221C149.428 293.683 153.05 297.009 155.088 300.879C156.589 303.737 156.841 307.301 157.537 310.385C149.067 304.713 141.729 295.037 136.187 286.655C137.32 288.583 138.571 290.971 140.232 292.49C137.17 287.084 134.669 281.379 132.769 275.463C131.05 270.28 129.516 261.951 132.33 256.961C134.814 252.485 138.203 251.433 135.573 245.3C133.157 239.7 129.293 234.28 128.081 228.288C130.659 227.351 132.812 228.398 135.78 228.298Z" fill="#B6B6FF"/>
<path d="M158.748 139.379C150.142 142.53 140.648 139.357 132.449 144.422C125.584 148.663 121.584 154.324 118.332 161.458C116.547 165.341 116.442 168.93 115.948 173.034C120.41 175.243 125.399 172.383 130.068 172.118C135.834 171.787 139.962 169.256 144.454 165.57C148.235 162.498 151.504 159.053 153.498 154.522C155.032 150.969 155.16 143.055 158.748 139.379Z" fill="white" stroke="#20173B" stroke-width="2" stroke-miterlimit="10"/>
<path d="M109.79 169.338C112.09 164.996 112.906 160.1 115.07 155.806C117.165 151.646 121.479 148.077 125.171 145.295C129.24 142.228 132.131 140.56 137.077 139.522C138.974 139.13 140.738 138.352 142.599 137.93C143.583 137.723 144.583 137.599 145.588 137.559C146.077 137.542 149.011 137.651 147.753 137.631" stroke="#20173B" stroke-width="2" stroke-miterlimit="10"/>
<path d="M262.16 140.599C260.417 139.247 260.761 137.492 258.984 135.867C258.472 135.413 257.933 134.99 257.37 134.6C256.408 134.252 255.452 133.888 254.497 133.524C254.956 149.908 240.991 166.725 231.031 178.265C218.78 192.413 204.105 204.264 187.695 213.26C179.654 217.634 171.241 221.283 162.554 224.165C154.231 226.937 147.064 227.9 138.425 228.33C134.247 228.534 130.404 227.431 126.294 227.039C129.485 231.789 130.352 235.277 131.513 237.966C132.675 240.655 136.927 246.84 136.911 249.763C136.89 253.34 132.599 256.133 131.639 259.635C129.409 267.831 134.385 278.061 137.579 285.402C141.434 294.272 148.62 302.141 155.014 309.29C158.664 313.378 168.259 321.699 174.591 318.049C180.924 314.399 174.476 305.461 172.475 301.233C181.866 311.29 190.104 322.597 199.262 332.946C204.837 339.188 210.145 345.638 215.529 352.009C216.358 352.937 218.187 355.808 219.466 355.841C220.978 355.887 225.185 351.657 226.247 350.835C257.708 327.116 293.845 309.057 318.233 277.17C327.929 264.501 334.994 250.32 342.847 236.504C344.783 233.107 346.728 229.721 348.636 226.317C350.811 222.423 350.47 222.16 347.443 218.922C342.574 213.718 337.029 209.202 332.078 204.07C329.507 201.391 326.873 198.736 324.274 196.061C323.831 195.942 323.432 195.696 323.127 195.353C313.39 184.755 307.367 179.07 297.302 168.786" stroke="#20173B" stroke-width="2" stroke-linecap="round" stroke-linejoin="round"/>
<path d="M146.874 100.133C151.213 92.7209 162.567 94.0124 168.595 88.5872C172.686 84.9337 170.772 82.7905 167.424 79.1357C163.19 74.3938 159.465 71.9993 153.58 69.7387C141.739 65.2081 127.67 69.9936 118.298 77.5555C113.605 81.3472 108.415 85.111 105.11 90.2564C102.792 93.9508 100.897 97.8933 99.4593 102.01C97.7538 106.829 96.4071 112.556 98.7593 117.331C100.099 120.008 102.161 123.74 104.177 125.95C112.478 118.883 122.405 113.87 131.313 107.647C136.28 104.209 142.64 98.9908 146.874 100.133Z" fill="#D678D6"/>
<path d="M106.027 114.987C104.987 108.494 103.98 103.379 106.286 96.9845C107.821 92.7162 110.704 89.533 112.434 85.4586C106.285 85.9845 102.083 98.7013 100.341 103.774C98.0333 110.495 97.4081 115.241 102.469 120.767C103.095 118.739 105.558 116.78 106.027 114.987Z" fill="#FFC49C"/>
<path d="M147.427 100.752C151.765 93.3399 163.12 94.6314 169.148 89.2061C173.239 85.5526 171.325 83.4094 167.977 79.7546C163.742 75.0128 160.018 72.6183 154.133 70.3577C142.292 65.827 128.223 70.6126 118.85 78.1746C114.158 81.9663 108.968 85.73 105.663 90.8754C103.345 94.5698 101.45 98.5123 100.012 102.629C98.3065 107.448 96.9599 113.175 99.312 117.95C100.652 120.627 102.714 124.359 104.73 126.569C113.031 119.502 122.958 114.489 131.866 108.266C136.838 104.834 143.193 99.6098 147.427 100.752Z" stroke="#20173B" stroke-width="2" stroke-miterlimit="10"/>
<path d="M149.59 96.8568C134.831 100.328 121.427 103.869 109.168 112.822C98.9925 120.251 97.2911 134.356 94.6757 146.391C93.7606 150.577 91.1606 157.371 92.1827 161.539C94.4811 170.865 98.7442 158.828 99.4305 154.762C101.909 140.057 112.177 129.932 126.401 124.651C131.253 122.848 137.765 123.824 142.261 121.047C149.029 116.862 150.458 104.805 149.418 97.9343L149.59 96.8568Z" fill="#D678D6"/>
<path d="M106.21 119.169C104.068 123.181 103.624 129.036 102.673 133.454C101.723 137.872 100.355 141.822 99.1088 146.085C98.1494 149.198 97.9176 152.491 97.3088 155.586C96.7 158.68 95.6404 161.705 95.4561 165.04C89.1099 162.309 95.8576 147.067 96.7274 142.312C98.3737 133.074 100.284 124.556 106.21 119.169Z" fill="#FFC49C"/>
<path d="M150.143 97.4758C135.384 100.947 121.979 104.488 109.72 113.441C99.5453 120.87 97.8439 134.975 95.2285 147.01C94.3135 151.196 91.7134 157.99 92.7355 162.158C95.0339 171.484 99.297 159.447 99.9833 155.381C102.462 140.676 112.73 130.551 126.954 125.27C131.805 123.467 138.318 124.443 142.814 121.666C149.582 117.481 151.011 105.424 149.971 98.5533L150.143 97.4758Z" stroke="#20173B" stroke-width="2" stroke-miterlimit="10"/>
<path d="M104.324 98.9046C104.187 102.281 104.542 106.278 106.312 109.295C108.649 108.089 111.357 107.298 113.575 105.958" stroke="#20173B" stroke-width="2" stroke-linecap="round" stroke-linejoin="round"/>
<path d="M208.957 135.49C208.611 132.408 204.729 132.096 201.72 131.739C197.742 131.26 194.046 130.415 189.974 130.619C181.929 131.137 174.021 132.963 166.561 136.023C160.948 138.243 156.114 142.477 152.29 147.099C150.574 149.166 150.192 151.691 149.361 154.207C148.047 158.183 146.535 162.724 146.224 166.928C146.034 169.197 145.835 172.786 147.311 174.722C148.788 176.658 151.161 178.327 153.5 178.569C176.297 180.947 193.098 192.984 208.354 208.656C209.932 210.281 212.279 213.297 214.32 214.266L214.613 214.005C215.656 215.173 216.657 216.294 217.534 217.453C218.139 218.236 218.516 219.211 219.162 219.935C219.563 221.172 221.461 222.732 222.341 223.741C223.071 224.559 223.806 225.382 224.536 226.2C224.719 226.404 224.943 226.655 225.126 226.943C224.985 227.808 224.898 228.682 224.867 229.558C224.661 232.009 227.037 233.917 226.013 235.735C225.303 236.999 220.914 238.189 219.489 239.735C219.932 240.231 219.998 241.117 220.513 241.634C220.262 241.353 217.764 242.556 217.411 242.724C216.445 243.172 215.539 243.738 214.713 244.409C212.962 245.836 211.943 247.66 210.824 249.572C210.288 250.475 209.808 251.412 209.389 252.376C202.166 250.428 195.794 246.976 188.607 244.609C181.419 242.242 174.726 240.041 167.312 241.644C161.741 242.852 159.987 245.593 156.24 249.244C164.374 245.412 173.655 257.31 173.935 264.859C174.163 270.891 169.278 274.267 164.766 277.425C172.697 271.696 180.593 273.021 190.253 275.521C198.76 277.718 205.798 286.139 214.922 283.146C215.697 282.886 216.435 282.527 217.118 282.076C217.063 282.241 217.046 282.416 217.069 282.589C217.092 282.761 217.154 282.926 217.25 283.071C217.728 283.841 218.471 283.261 219.196 282.897C220.722 282.122 222.198 281.253 223.616 280.294C223.601 280.559 223.807 280.837 224.351 281.117C225.495 281.681 226.753 280.442 227.581 279.829C229.168 278.642 230.576 277.301 232.186 276.104C233.253 275.297 234.207 274.353 235.026 273.296C235.113 273.181 235.191 273.059 235.257 272.931C241.383 273.003 246.978 266.505 250.907 262.294C257.188 255.551 263.661 247.754 264.767 238.181C265.415 232.543 263.55 225.055 260.014 219.625C260.177 219.302 260.028 219.088 259.869 218.475C259.654 217.68 259.713 216.829 259.457 216.061C259.321 215.637 259.002 215.292 258.875 214.88C258.394 213.264 257.813 211.679 257.137 210.134C255.543 206.807 253.779 203.565 251.854 200.418C250.677 198.394 249.727 196.083 248.418 194.218C247.088 192.257 245.571 190.147 244.317 188.202C242.707 186.858 241.079 185.552 239.456 184.229C227.761 171.192 210.814 152.274 208.957 135.49ZM231.186 273.995L231.472 273.74L231.186 273.995ZM210.921 250.209L210.905 249.909L210.921 250.209Z" fill="#7CBC5C"/>
<path d="M210.381 249.946C212.407 245.345 215.355 242.87 220.197 241.621C219.934 241.395 219.725 241.114 219.583 240.797C219.442 240.48 219.373 240.136 219.38 239.79C219.44 239.426 219.542 239.07 219.685 238.73C219.881 238.383 220.141 238.075 220.452 237.825C221.125 237.292 221.866 236.852 222.657 236.517C223.336 236.143 224.08 235.903 224.849 235.808C225.134 235.808 225.418 235.779 225.697 235.723C227.691 235.108 224.345 231.997 224.551 229.546C224.606 228.783 223.926 228.257 223.792 227.389C223.708 226.175 223.434 224.983 222.978 223.855C222.204 222.593 221.294 221.42 220.264 220.357C219.196 219.044 217.908 217.213 216.561 216.317L214.288 214.253C212.246 213.284 209.899 210.268 208.322 208.643C193.065 192.971 176.242 180.955 153.467 178.556C151.141 178.304 148.755 176.656 147.279 174.709C145.803 172.762 146.017 169.202 146.191 166.915C146.503 162.711 148.015 158.17 149.328 154.194C150.16 151.678 150.542 149.153 152.257 147.086C156.105 142.443 160.939 138.21 166.528 136.01C173.983 132.953 181.885 131.129 189.924 130.611C193.962 130.427 197.693 131.252 201.671 131.73C204.679 132.088 208.567 132.395 208.907 135.481C210.905 153.505 225.187 168.18 236.845 181.176L238.94 183.263C246.893 192.557 253.26 203.886 258.682 214.863C261.174 219.912 264.393 225.352 264.881 231.098C264.974 233.472 264.838 235.85 264.477 238.198C263.377 247.777 256.887 255.578 250.618 262.31C247.357 265.8 243.099 268.584 239.231 271.335C234.399 274.864 229.365 278.108 224.155 281.051C222.108 282.25 219.815 282.969 217.451 283.154C214.77 283.364 211.805 283.997 209.175 283.722C206.9 283.388 204.698 282.676 202.66 281.614C198.444 279.575 194.527 276.743 189.917 275.58C180.257 273.08 170.466 273.667 161.954 277.605C167.59 274.882 173.85 270.929 173.599 264.918C173.318 257.369 164.026 245.482 155.904 249.303C159.657 245.647 161.41 242.905 166.976 241.703C174.39 240.1 181.181 242.317 188.27 244.667C195.643 247.1 202.178 250.701 209.631 252.6L210.381 249.946Z" stroke="#20173B" stroke-width="2" stroke-linecap="round" stroke-linejoin="round"/>
<path d="M101.045 181.861C111.495 172.529 122.945 163.353 134.043 154.629C152.777 139.893 169.776 122.718 187.525 106.868C194.054 101.038 200.445 94.196 207.615 89.284C209.206 90.6547 210.482 92.6123 211.959 94.1485C214.77 97.0021 212.473 98.5707 209.835 101.052C211.507 103.065 213.69 104.957 215.093 107.116C213.605 108.602 211.943 109.929 210.469 111.35C211.853 113.264 213.664 115.257 215.275 117.178C210.818 121.704 205.725 125.706 200.985 129.939C198.349 132.293 195.725 134.636 193.095 136.985C190.927 138.921 189.194 141.592 186.919 143.35C185.15 141.781 184.039 139.572 182.299 137.977C179.47 140.02 177.089 142.566 174.567 144.882C172.042 143.231 169.065 139.98 167.02 137.608C163.178 140.682 160.115 144.992 156.639 148.464C158.206 150.454 160.714 152.403 161.883 154.571C160.44 156.049 155.825 158.575 156.299 160.681C156.611 162.208 160.113 164.529 161.162 165.786C151.286 175.55 139.479 183.291 129.751 193.301C128.221 191.518 126.021 188.56 123.796 187.387C121.94 188.908 120.05 190.733 118.449 192.351C116.786 190.583 114.988 188.934 113.389 187.108C111.777 188.432 110.428 190.004 108.907 191.394C106.644 188.649 103.882 186.109 101.045 181.861Z" fill="#20173B"/>
<path d="M46.0578 221.845C43.0672 221.366 37.7543 221.146 34.0965 219.72" stroke="#20173B" stroke-width="2" stroke-miterlimit="10" stroke-linecap="round"/>
</g>
<defs>
<clipPath id="clip0_5041_20541">
<rect width="274.312" height="338.418" fill="white" transform="translate(0 182.716) rotate(-41.7658)"/>
</clipPath>
</defs>
</svg>
