<svg width="208" height="91" viewBox="0 0 208 91" fill="none" xmlns="http://www.w3.org/2000/svg">
<g clip-path="url(#clip0_5041_21328)">
<path d="M70.0729 51.6044C79.139 38.2522 86.8854 23.8712 96.5096 10.9643C98.6271 12.7083 100.901 14.2525 103.304 15.5774C107.289 18.2838 111.275 20.9901 115.122 23.9009C127.18 32.6521 139.767 40.8671 152.041 49.3004C160.103 54.7747 167.949 60.5669 175.988 66.1246C182.51 70.5533 190.369 75.06 196.015 80.4863C180.293 102.325 165.576 125.608 150.403 148.051C142.385 159.86 133.96 171.391 125.927 183.222C121.594 189.602 116.32 195.908 112.269 202.215C105.203 198.602 98.3447 194.598 91.7247 190.223C81.0182 183.185 69.5787 177.276 59.0635 170.102C43.2108 159.338 27.7773 147.665 11.6134 137.652C14.7719 134.123 17.5524 130.273 19.9092 126.165C27.472 115.287 34.982 104.373 42.4392 93.4225C49.4393 83.1131 55.8053 72.3732 62.828 62.0793C65.0027 58.4275 67.4233 54.9277 70.0729 51.6044Z" fill="#C7A941"/>
<path d="M71.3988 49.6516C75.8818 46.5578 83.2274 40.5638 84.0823 49.5381C84.6119 55.2392 81.0786 59.9069 80.008 65.2845C83.6545 65.3718 90.3502 59.7991 93.407 62.7041C95.1686 64.3979 93.7092 69.9097 93.5883 72.1832C93.4278 75.3919 92.2142 80.6392 94.344 83.5451C96.3811 85.3939 98.668 86.9468 101.138 88.1582C104.399 90.3725 107.491 92.8367 110.575 95.2627C117.06 100.33 125.441 107.48 134.107 107.923C137.934 108.133 143.518 106.683 146.241 110.323C147.486 111.998 147.372 114.409 147.672 116.305C148.148 119.747 148.741 122.87 152.015 124.529C154.971 126.071 162.732 126.531 165.675 124.78C163.526 128.529 160.679 132.137 158.243 135.725C148.369 129.02 137.809 123.376 127.935 116.672C118.061 109.967 107.372 102.709 96.8496 96.2281C83.1995 87.9217 70.5472 77.8047 57.3904 68.7717C61.5828 62.0621 66.2651 55.6712 71.3988 49.6516Z" fill="#596B30"/>
<path d="M59.6874 67.7766C82.3341 83.1538 104.852 99.3058 128.068 113.942C135.19 118.413 142.233 123.195 149.147 127.923C152.046 130.341 155.225 132.399 158.617 134.054C155.629 138.99 152.339 143.737 148.767 148.268C143.082 156.153 137.804 164.413 132.346 172.452C128.892 177.538 125.658 182.74 122.204 187.827C119.12 192.369 115.208 196.912 112.493 201.836C104.683 196.965 97.4071 191.161 89.5747 186.274C79.1587 179.832 69.0357 172.959 58.8673 166.054C43.8073 155.829 28.4399 145.958 13.574 135.3C15.706 131.167 18.225 127.245 21.0969 123.587C26.7864 115.208 32.4912 106.806 38.1807 98.4271C45.2777 88.3163 51.6172 77.9565 59.6874 67.7766Z" fill="#824830"/>
<path d="M88.479 92.7674C91.1012 89.2719 93.4901 85.6072 95.6299 81.7973C97.4286 77.9368 99.4884 74.2031 101.795 70.6224C106.158 64.1961 109.921 58.6554 117.015 55.0785C125.904 50.5638 135.094 54.0837 140.894 61.6714C143.977 65.6026 146.276 70.0918 147.665 74.8951C148.649 79.2731 148.819 83.7969 148.166 88.2405C147.925 94.7834 147.004 101.285 145.416 107.64C144.866 109.522 143.801 111.188 143.221 113.017C142.778 114.708 142.432 116.422 142.183 118.152C141.615 121.084 137.431 123.153 137.106 126.117C132.018 133.61 132.869 135.914 132.824 135.883C124.55 132.621 121.695 122.255 112.804 122.29C111.291 122.419 109.77 122.408 108.26 122.257C104.954 121.571 103.376 118.144 101.439 115.734C99.5023 113.324 97.2454 110.995 95.1561 108.614C92.3233 105.331 92.0968 102.058 90.5168 98.0991C89.6824 96.3855 89.0006 94.6014 88.479 92.7674Z" fill="#876126" stroke="#20173B" stroke-width="0.5" stroke-linecap="round" stroke-linejoin="round"/>
<path d="M45.0905 113.006C42.3291 116.439 39.3552 119.065 36.628 122.886C34.5619 125.929 32.4958 128.972 30.234 131.815C27.8397 135.454 25.2117 138.934 22.3666 142.233C31.1752 149.873 41.5763 155.508 50.7005 162.732C60.5638 170.524 72.0905 176.062 82.6549 182.87C90.9012 188.171 99.093 193.6 107.455 198.681C109.583 195.547 111.11 191.74 113.08 188.4C116.252 182.996 118.883 177.292 120.936 171.373C125.997 156.462 127.886 141.986 124.458 131.198C120.432 118.511 108.088 113.447 98.1892 108.484C94.4889 106.538 90.4732 105.26 86.3263 104.709C82.3718 104.247 78.4169 106.173 73.9594 107.426L52.9127 113.473C50.8635 114.006 49.4608 113.684 45.0905 113.006Z" fill="#64463A" stroke="#20173B" stroke-width="0.5" stroke-linecap="round" stroke-linejoin="round"/>
<path d="M87.6147 94.1377C82.5957 93.6356 77.5288 93.8603 72.5702 94.8046C63.495 96.9628 54.7366 100.295 46.5162 104.717C40.8054 107.475 34.4491 110.989 32.8995 117.169C32.4845 119.425 32.5999 121.745 33.2367 123.945C33.8734 126.145 35.014 128.166 36.5679 129.845C39.7155 133.201 43.3761 136.033 47.4132 138.238C49.7482 132.558 57.528 131.138 63.2903 133.226C66.2287 134.289 68.8868 136.005 71.0653 138.245C73.2438 140.485 74.8862 143.191 75.8691 146.16C76.8521 149.129 77.1501 152.284 76.7409 155.388C76.3318 158.492 75.226 161.465 73.5066 164.084C73.7382 166.603 73.0108 169.119 71.4699 171.128C77.2226 173.123 82.7831 175.633 88.0839 178.627C93.4563 181.676 99.5152 183.313 105.697 183.387C117.876 182.798 120.012 172.636 124.62 163.656C126.864 159.414 128.757 154.996 130.281 150.446C133.046 142.655 133.39 134.213 131.269 126.234C129.55 120.977 126.744 116.144 123.033 112.049C113.892 101.849 101.254 95.4581 87.6147 94.1377Z" fill="#64463A" stroke="#20173B" stroke-width="0.5" stroke-linecap="round" stroke-linejoin="round"/>
<path d="M122.075 112.096C121.559 110.922 121.131 109.711 120.796 108.473C120.718 106.56 121.268 104.673 122.36 103.099C125.578 97.3338 129.527 92.0085 134.11 87.2563C136.666 84.6125 139.559 81.7658 139.678 78.1308C139.488 75.2729 138.269 72.5834 136.249 70.5602C134.253 68.5467 132.605 66.2167 131.369 63.6638C130.765 62.3728 130.621 60.9126 130.961 59.5258C131.3 58.1391 132.103 56.9091 133.236 56.0403C128.821 58.45 123.303 57.0256 118.488 58.2686C115.733 59.0924 113.219 60.579 111.168 62.5982C109.116 64.6175 107.589 67.1079 106.719 69.8518C105.059 75.4281 104.915 81.3432 106.301 86.9862C106.685 88.9059 107.074 91.1602 105.791 92.6113C105.137 93.1218 104.386 93.4929 103.584 93.7017C102.782 93.9105 101.946 93.9524 101.128 93.825L91.1148 93.6612C90.0056 93.6379 88.4516 93.2463 87.6971 94.2601C86.9425 95.2739 87.2071 96.9797 87.1821 97.9912C86.9778 104.011 88.9942 109.89 92.8468 114.507C96.6994 119.124 102.119 122.156 108.071 123.024C111.544 123.702 115.148 123.113 118.231 121.363C119.744 120.465 120.936 119.114 121.639 117.501C122.343 115.887 122.521 114.095 122.148 112.377L122.075 112.096Z" fill="#FFC49C" stroke="#20173B" stroke-width="0.5" stroke-linecap="round" stroke-linejoin="round"/>
<path d="M68.3819 78.5571C67.0684 77.6653 61.998 74.7533 60.9832 77.5147C60.3516 79.176 64.6702 82.8052 65.2726 84.9394C67.1229 91.5705 60.4754 89.0806 56.7031 91.7612C57.3856 92.7576 58.1629 93.6854 59.0242 94.5316" stroke="#20173B" stroke-width="0.5" stroke-linecap="round" stroke-linejoin="round"/>
<path d="M121.924 72.9438C121.328 71.7757 121.632 69.4275 120.426 68.3766C119.451 67.4877 118.308 66.802 117.064 66.3594C116.379 66.0838 115.649 65.9366 114.911 65.9254C114.022 65.919 112.395 66.7058 111.679 66.153C111.932 68.2931 112.93 70.274 114.497 71.7489C115.374 72.6414 116.484 73.2689 117.701 73.5597C119.13 73.5447 120.55 73.3375 121.924 72.9438Z" fill="white" stroke="#20173B" stroke-width="0.25" stroke-linecap="round" stroke-linejoin="round"/>
<path d="M121.181 72.0409C122.845 71.1309 124.755 70.7769 126.631 71.0307C128.042 71.5242 129.299 72.3775 130.278 73.5064C132.077 75.1929 131.299 77.8495 132.91 79.3749C131.474 79.0247 129.97 79.0689 128.555 79.503C127.872 79.7449 127.138 79.802 126.426 79.6686C125.715 79.5352 125.052 79.2161 124.505 78.7434C123.451 78.1437 122.582 77.2668 121.991 76.2074C121.486 75.0019 121.636 73.71 121.181 72.0409Z" fill="white" stroke="#20173B" stroke-width="0.25" stroke-linecap="round" stroke-linejoin="round"/>
<path d="M110.285 78.2448C111.785 78.9132 113.193 79.7695 114.477 80.793C116.04 81.854 117.657 82.7861 119.281 83.7562C120.668 84.7406 122.25 85.4184 123.92 85.7448C124.792 85.8728 125.835 85.7511 125.528 86.8366C125.221 87.9221 123.083 88.1956 121.987 88.3474C121.249 88.5055 120.488 88.5155 119.747 88.3769C119.007 88.2384 118.301 87.9541 117.671 87.5403C114.684 85.8771 111.849 83.9526 109.201 81.7892C108.418 81.0934 107.807 80.2244 107.418 79.2509C107.247 77.31 110.051 78.0529 110.285 78.2448Z" stroke="#20173B" stroke-width="0.25" stroke-linecap="round" stroke-linejoin="round"/>
<path d="M110.56 80.4224C112.208 81.7726 113.974 82.9717 115.836 84.0052C117.013 84.6547 118.128 85.4114 119.165 86.2657" stroke="#20173B" stroke-width="0.25" stroke-linecap="round" stroke-linejoin="round"/>
<path d="M115.913 70.6867C114.192 68.6889 118.072 67.5076 118.12 69.5313C118.097 69.7782 118.013 70.0156 117.875 70.2217C117.737 70.4278 117.55 70.5961 117.33 70.7111C117.11 70.8261 116.865 70.8841 116.618 70.8798C116.37 70.8756 116.128 70.8091 115.913 70.6867Z" fill="#20173B" stroke="#20173B" stroke-width="0.5" stroke-linecap="round" stroke-linejoin="round"/>
<path d="M126.425 76.597C125.921 75.2926 128.657 74.529 129.091 75.985C129.105 76.3206 129.01 76.6519 128.821 76.93C128.633 77.2081 128.359 77.4183 128.042 77.5291C127.41 77.4179 126.838 77.088 126.425 76.597Z" fill="#20173B" stroke="#20173B" stroke-width="0.5" stroke-linecap="round" stroke-linejoin="round"/>
<path d="M113.092 213.722L1.85131 138.189L94.7798 1.32938L206.02 76.862L113.092 213.722ZM20.884 134.524L109.478 194.679L186.987 80.5273L98.3937 20.3719L20.884 134.524Z" fill="#FF8E31"/>
<path d="M95.0289 1.49855C95.9858 6.22913 96.1121 8.8695 100.256 11.6835C110.085 18.3572 120.061 24.7658 129.867 31.4241C150 45.0944 170.232 58.6665 190.288 72.4504C192.46 74.5028 194.877 76.278 197.486 77.7358C200.496 78.1521 203.565 77.7921 206.402 76.6898C201.836 71.8646 194.038 68.9253 188.38 65.5146C181.595 61.472 175.406 56.4069 168.884 51.9783C158.263 44.7664 147.988 37.093 137.344 29.8657C127.764 23.3612 118.392 16.5996 108.99 9.88332C104.552 6.77052 99.5355 4.5586 95.0289 1.49855Z" fill="#FFC49C"/>
<path d="M96.115 10.1322C96.0896 13.3738 96.6797 16.5892 97.8541 19.6073C99.7622 23.4244 105.574 25.8778 109.236 28.3308C120.559 36.0194 133.246 42.5769 144.381 50.8346C154.551 58.3703 164.868 65.6409 175.376 72.7759C178.184 74.6827 182.494 79.2018 185.729 80.2369C188.963 81.272 193.342 78.7708 196.72 78.3769C176.645 66.4717 157.838 52.5067 138.536 39.3672C129.318 33.1087 119.901 27.1455 110.661 20.8716C106.856 18.2882 97.6025 14.2277 96.115 10.1322Z" fill="#AE4B00"/>
<path d="M206.24 77.708L206.644 77.5512C202.821 74.0816 198.46 71.2553 193.732 69.1817L152.469 41.1645C147.519 37.6372 142.546 34.0946 137.496 30.6655C127.893 24.1456 118.544 17.3993 109.142 10.683C104.793 7.73059 100.043 5.46747 95.6264 2.5678L94.9243 2.09111L1.99589 138.951L2.87911 139.551L1.96455 139.826C2.59277 139.857 3.21327 139.976 3.80762 140.181L18.6865 150.284C28.7869 157.142 38.6261 164.288 48.7193 171.108C69.8033 185.424 91.5032 198.93 111.74 214.397L111.463 213.246L113.342 214.522L206.24 77.708Z" stroke="#20173B" stroke-width="0.5" stroke-linecap="round" stroke-linejoin="round"/>
<path d="M111.553 81.3955C111.245 81.8496 110.547 82.5368 110.647 83.1689C110.747 83.8009 111.784 84.2725 112.238 84.4811L113.456 82.6871" fill="white"/>
<path d="M111.553 81.3955C111.245 81.8496 110.547 82.5368 110.647 83.1689C110.747 83.8009 111.784 84.2725 112.238 84.4811L113.456 82.6871" stroke="#20173B" stroke-width="0.25" stroke-linecap="round" stroke-linejoin="round"/>
<path d="M114.611 83.4713C114.302 83.9255 113.604 84.6127 113.704 85.2448C113.805 85.8768 114.841 86.3484 115.295 86.557L116.513 84.763" fill="white"/>
<path d="M114.611 83.4713C114.302 83.9255 113.604 84.6127 113.704 85.2448C113.805 85.8768 114.841 86.3484 115.295 86.557L116.513 84.763" stroke="#20173B" stroke-width="0.25" stroke-linecap="round" stroke-linejoin="round"/>
</g>
<defs>
<clipPath id="clip0_5041_21328">
<rect width="136.075" height="168.474" fill="white" transform="translate(95.2678 0.366943) rotate(34.1767)"/>
</clipPath>
</defs>
</svg>
