<svg width="150" height="114" viewBox="0 0 150 114" fill="none" xmlns="http://www.w3.org/2000/svg">
<g clip-path="url(#clip0_5041_21265)">
<path d="M83.4052 41.5085C87.2996 39.7321 91.069 37.6969 94.6878 35.4167L92.284 34.3731C92.9097 33.6886 93.3469 32.855 93.553 31.9531C91.9541 31.9567 90.3857 31.5179 89.0233 30.6859C87.6608 29.8538 86.5583 28.6613 85.8389 27.242C87.7008 25.8079 89.1891 23.9506 90.179 21.8262C87.4429 20.1717 84.4985 18.8846 81.4226 17.9983C76.2403 21.9254 68.5331 29.3143 63.36 33.2416" fill="#EE81AA"/>
<path d="M83.4052 41.5085C87.2996 39.7321 91.069 37.6969 94.6878 35.4167L92.284 34.3731C92.9097 33.6886 93.3469 32.855 93.553 31.9531C91.9541 31.9567 90.3857 31.5179 89.0233 30.6859C87.6608 29.8538 86.5582 28.6613 85.8389 27.242C87.7008 25.8079 89.1891 23.9506 90.179 21.8262C87.4429 20.1717 84.4985 18.8846 81.4226 17.9983C76.2403 21.9254 68.5331 29.3143 63.36 33.2416" stroke="#20173B" stroke-width="2" stroke-miterlimit="10" stroke-linecap="round"/>
<path d="M78.0025 22.2922C81.3479 27.455 85.2136 32.266 89.5396 36.6507C90.6455 37.7825 91.887 39.3709 91.1432 40.7689C90.3132 42.3463 88.0128 41.9673 86.2287 42.1624C85.5737 42.3241 84.887 42.3084 84.2401 42.117C83.8882 41.9201 83.583 41.6504 83.3455 41.3258C79.5176 36.9097 76.1587 32.1126 73.3224 27.0109C72.2349 25.0722 71.1319 23.4144 72.4851 21.3047C74.2103 18.4959 76.557 20.046 78.0025 22.2922Z" fill="#AFAB1E" stroke="#20173B" stroke-width="2" stroke-miterlimit="10" stroke-linecap="round"/>
<path d="M7.53232 5.62774C23.4141 4.76555 38.987 10.2456 53.2089 17.3365C59.8324 20.644 66.3191 24.3477 71.9314 29.1741C72.3585 29.4588 72.6718 29.8832 72.8168 30.3735C72.8538 30.892 72.6885 31.4045 72.3551 31.805C70.2863 34.878 66.6063 36.5628 62.9342 37.1049C59.262 37.647 55.5127 37.1714 51.8166 36.7605C30.6943 34.3907 9.40749 33.8172 -11.812 35.0461C-16.0889 35.2932 -31.8831 38.7151 -31.7952 30.8622C-31.7234 24.5146 -22.5822 17.0769 -17.8836 13.946C-10.3176 8.95499 -1.5382 6.08158 7.53232 5.62774Z" fill="#2D2E82"/>
<path d="M120.045 132.503C127.639 122.16 136.069 112.448 145.249 103.464C144.261 103.459 143.295 103.172 142.466 102.637C141.637 102.103 140.98 101.342 140.573 100.447C140.167 99.5517 140.027 98.5593 140.172 97.5878C140.317 96.6163 140.74 95.7068 141.39 94.9676C140.694 95.1889 139.946 95.1875 139.25 94.9639C138.555 94.7403 137.947 94.3056 137.513 93.721C137.079 93.1363 136.84 92.4311 136.831 91.7046C136.821 90.9782 137.041 90.2672 137.459 89.6715C133.913 88.6836 132.806 83.2161 135.695 80.9872C129.818 91.5136 123.324 101.687 116.244 111.455" fill="#DDDB00"/>
<path d="M120.045 132.503C127.639 122.16 136.069 112.448 145.249 103.464C144.261 103.459 143.295 103.172 142.466 102.637C141.637 102.103 140.98 101.342 140.573 100.447C140.167 99.5517 140.027 98.5593 140.172 97.5878C140.317 96.6163 140.74 95.7068 141.39 94.9676C140.694 95.1889 139.946 95.1875 139.25 94.9639C138.555 94.7403 137.947 94.3056 137.513 93.721C137.079 93.1363 136.84 92.4311 136.831 91.7046C136.821 90.9782 137.041 90.2672 137.459 89.6715C133.913 88.6836 132.806 83.2161 135.695 80.9872C129.818 91.5136 123.324 101.687 116.244 111.455" stroke="#20173B" stroke-width="2" stroke-miterlimit="10" stroke-linecap="round"/>
<path d="M136.728 100.53C132.947 104.825 129.629 109.501 126.826 114.481" stroke="#20173B" stroke-width="2" stroke-linecap="round" stroke-linejoin="round"/>
<path d="M133.737 95.582C130.955 98.9888 128.433 102.597 126.19 106.376" stroke="#20173B" stroke-width="2" stroke-linecap="round" stroke-linejoin="round"/>
<path d="M102.526 132.285C106.612 135.226 111.214 138.316 116.237 137.768C116.57 135.182 115.945 132.563 114.48 130.399C116.631 131.063 118.844 131.508 121.085 131.729L116.311 122.124C119.434 122.169 122.539 121.646 125.473 120.582C123.983 117.425 122.183 114.422 120.101 111.616C120.465 111.758 120.855 111.824 121.246 111.809C121.636 111.794 122.02 111.698 122.371 111.528C122.723 111.358 123.035 111.117 123.288 110.82C123.54 110.523 123.728 110.178 123.839 109.805C124.019 109.037 123.985 108.234 123.74 107.484C123.495 106.734 123.048 106.064 122.448 105.547C121.236 104.528 119.803 103.8 118.262 103.42C115.634 102.625 102.882 101.917 100.138 101.773" fill="#EE81AA"/>
<path d="M102.526 132.285C106.612 135.226 111.214 138.316 116.237 137.768C116.57 135.182 115.945 132.563 114.48 130.399C116.631 131.063 118.844 131.508 121.085 131.729L116.311 122.124C119.434 122.169 122.539 121.646 125.473 120.582C123.983 117.425 122.183 114.422 120.101 111.616C120.465 111.758 120.855 111.824 121.246 111.809C121.636 111.794 122.02 111.698 122.371 111.528C122.723 111.358 123.035 111.117 123.288 110.82C123.54 110.523 123.728 110.178 123.839 109.805C124.019 109.037 123.985 108.234 123.74 107.484C123.495 106.734 123.048 106.064 122.448 105.547C121.236 104.528 119.803 103.8 118.262 103.42C115.634 102.625 102.882 101.917 100.138 101.773" stroke="#20173B" stroke-width="2" stroke-miterlimit="10" stroke-linecap="round"/>
<path d="M110.697 116.598C108.226 114.987 105.506 113.788 102.646 113.05C102.486 120.06 102.524 127.07 102.759 134.077C106.988 134.264 111.137 135.284 114.966 137.077C113.301 134.347 112.066 131.379 111.307 128.277L112.622 128.633C112.996 126.727 112.72 124.752 111.837 123.019L114.321 123.756C114.49 122.366 114.357 120.955 113.932 119.62C114.252 119.83 114.627 119.943 115.01 119.944C116.014 119.967 114.447 109.437 112.745 108.428C108.973 106.156 110.587 114.619 110.697 116.598Z" fill="#E85591"/>
<path d="M-35.2306 96.6345C-36.9514 94.1759 -38.3012 91.4805 -39.2372 88.6338C-40.2901 84.7821 -39.7957 80.7117 -39.2948 76.7594C-38.1922 68.4307 -37.0843 59.8754 -33.029 52.5393C-30.675 48.6459 -27.9284 45.0009 -24.8315 41.6605C-19.6576 35.7015 -14.1867 29.5224 -6.80164 26.6523C-3.69061 25.5537 -0.465198 24.8059 2.81398 24.4227C7.52666 23.7441 12.263 23.2293 17.0229 22.8783C22.4258 22.4846 28.395 22.4665 32.5791 25.8907C34.2649 23.6072 37.7179 23.8675 40.5267 24.3669L51.0439 26.2214C52.1487 26.3533 53.224 26.6659 54.2263 27.1466C55.246 27.8483 56.2136 28.6221 57.1214 29.462C58.8089 30.5717 60.6822 31.3731 62.6529 31.8286C72.1896 34.6584 82.5702 38.9044 86.5528 47.9568C88.4017 52.1259 88.6234 56.8113 88.766 61.3588C89.1224 72.4085 89.1077 83.4559 88.7219 94.5008C88.7177 99.3932 88.1842 104.271 87.1305 109.049C85.8241 113.594 84.076 118.001 81.911 122.209C80.4442 125.296 78.9111 128.49 76.3143 130.699C72.8144 133.694 67.9593 134.481 63.3673 134.938C40.2334 137.111 16.9108 133.746 -4.64898 125.124C-10.1297 122.931 -16.941 120.653 -21.6398 116.99C-24.2401 114.953 -25.8068 111.616 -27.5332 108.883L-35.2306 96.6345Z" fill="#F5BCD5"/>
<path d="M117.548 73.9338C124.519 74.1462 131.492 73.5906 138.339 72.2767C137.499 71.5971 136.802 70.7589 136.289 69.8104C135.775 68.862 135.456 67.8221 135.349 66.7506C135.242 65.6791 135.349 64.597 135.665 63.567C135.981 62.537 136.498 61.5793 137.188 60.7491C135.31 59.8446 133.316 58.8467 132.299 57.0095C131.282 55.1722 131.885 52.3651 133.913 51.8672C131.465 51.1492 129.794 48.7891 129.184 46.3171C128.723 43.8144 128.704 41.2511 129.129 38.7422L129.764 32.8971C123.952 40.0208 123.63 50.5352 117.612 57.509" fill="#DDDB00"/>
<path d="M117.548 73.9338C124.519 74.1462 131.492 73.5906 138.339 72.2767C137.499 71.5971 136.802 70.7589 136.289 69.8104C135.775 68.862 135.456 67.8221 135.349 66.7506C135.242 65.6791 135.349 64.597 135.665 63.567C135.981 62.537 136.498 61.5793 137.188 60.7491C135.31 59.8446 133.316 58.8467 132.299 57.0095C131.282 55.1722 131.885 52.3651 133.913 51.8672C131.465 51.1492 129.794 48.7891 129.184 46.3171C128.723 43.8144 128.704 41.2511 129.129 38.7422L129.764 32.8971C123.952 40.0208 123.63 50.5352 117.612 57.509" stroke="#20173B" stroke-width="2" stroke-miterlimit="10" stroke-linecap="round"/>
<path d="M130.598 61.9774L121.535 64.7639" stroke="#20173B" stroke-width="2" stroke-linecap="round" stroke-linejoin="round"/>
<path d="M128.122 54.0842C125.849 55.5502 123.651 57.1113 121.526 58.7681" stroke="#20173B" stroke-width="2" stroke-linecap="round" stroke-linejoin="round"/>
<path d="M113.572 80.9814C117.535 81.7722 121.614 81.8066 125.589 81.083C123.779 78.8426 121.621 76.9042 119.195 75.3408L122.314 72.2374L117.973 68.9092C117.605 68.6287 117.193 68.2566 117.25 67.7953C117.317 67.5197 117.466 67.2704 117.677 67.0793L123.588 60.8016C121.12 59.7839 118.668 58.4126 117.158 56.2194C115.647 54.0262 115.318 50.8532 117.008 48.7965L103.294 53.4542" fill="#EE81AA"/>
<path d="M113.572 80.9814C117.535 81.7722 121.614 81.8066 125.589 81.083C123.779 78.8426 121.621 76.9042 119.195 75.3408L122.314 72.2374L117.973 68.9092C117.605 68.6287 117.193 68.2566 117.25 67.7953C117.317 67.5197 117.466 67.2704 117.677 67.0793L123.588 60.8016C121.12 59.7839 118.668 58.4126 117.158 56.2194C115.647 54.0262 115.318 50.8532 117.008 48.7965L103.294 53.4542" stroke="#20173B" stroke-width="2" stroke-miterlimit="10" stroke-linecap="round"/>
<path d="M30.4413 56.7901C35.3044 58.452 38.7418 63.0021 40.2273 67.8977C41.7127 72.7933 41.6212 78.0066 41.2491 83.1138C41.1805 85.2804 40.8246 87.4285 40.1907 89.5025C38.7883 93.1855 36.1102 96.2504 32.6374 98.1465C29.1861 100.023 25.398 101.209 21.4871 101.638" fill="#EE81AA"/>
<path d="M30.4413 56.7901C35.3044 58.452 38.7418 63.0021 40.2273 67.8977C41.7127 72.7933 41.6212 78.0066 41.2491 83.1138C41.1805 85.2804 40.8246 87.4285 40.1907 89.5025C38.7883 93.1855 36.1102 96.2504 32.6374 98.1465C29.1861 100.023 25.398 101.209 21.4871 101.638" stroke="#20173B" stroke-width="2" stroke-miterlimit="10" stroke-linecap="round"/>
<path d="M10.0727 41.0963C8.78127 35.2305 9.76883 29.097 12.8373 23.9258C13.0621 23.482 13.3826 23.0928 13.776 22.7862C14.355 22.453 15.0284 22.3186 15.6922 22.4036C19.1007 22.6174 22.0219 24.9878 24.2548 27.5241C28.5329 32.4051 31.5551 38.2451 33.0615 44.5423C34.568 50.8394 34.5138 57.4054 32.9036 63.6763C32.6731 64.578 19.8924 55.5245 18.7985 54.665C14.4145 51.2665 11.3347 46.4774 10.0727 41.0963Z" fill="white" stroke="#20173B" stroke-width="2" stroke-miterlimit="10" stroke-linecap="round"/>
<path d="M13.6293 21.6127C12.0852 21.9646 10.6299 22.6269 9.35304 23.5586C8.07615 24.4903 7.00463 25.6721 6.20438 27.0308C4.6098 29.7835 3.68319 32.868 3.49816 36.0393C2.7951 44.1198 5.03719 52.183 9.81574 58.7594" stroke="#20173B" stroke-width="2" stroke-linecap="round" stroke-linejoin="round"/>
<path d="M16.6878 54.372C14.1805 55.3132 11.8883 56.7439 9.94663 58.5799C8.00493 60.4159 6.45301 62.62 5.38243 65.062C3.75417 68.8253 3.37625 72.9891 2.98196 77.0708C2.39021 83.4065 1.78023 89.7418 2.94217 96.0177" stroke="#20173B" stroke-width="2" stroke-linecap="round" stroke-linejoin="round"/>
<path d="M39.0184 44.4777C36.5472 42.3805 34.9528 39.4598 33.4115 36.6128C32.8949 35.7389 32.4636 34.8179 32.1235 33.8623C31.1371 30.6924 31.5622 25.26 35.8171 24.7766C36.8179 24.7024 37.8242 24.7927 38.7954 25.0441" stroke="#20173B" stroke-width="2" stroke-linecap="round" stroke-linejoin="round"/>
<path d="M32.8482 26.0967C31.5007 25.0616 29.9181 24.3713 28.2394 24.0867C26.5725 23.8006 24.885 23.6498 23.1935 23.6358C22.336 23.5905 21.4765 23.5952 20.6195 23.6498" stroke="#20173B" stroke-width="2" stroke-linecap="round" stroke-linejoin="round"/>
<path d="M40.4085 34.7497C41.7098 37.7182 43.9313 40.354 44.4977 43.5325C44.7501 44.8715 44.7093 46.2584 44.8427 47.6129C45.215 51.2949 46.8893 54.7163 47.6555 58.3347C48.0779 60.5467 48.3318 62.7869 48.4153 65.0367L49.1383 77.7517L49.4139 82.4747C49.578 85.2812 49.733 88.0875 49.8607 90.8931C50.016 94.4885 50.1043 98.0853 50.1256 101.684C50.1373 103.571 50.2173 105.668 51.5462 107.022C52.1952 107.595 52.9827 107.989 53.8316 108.168C54.6804 108.346 55.5612 108.302 56.3875 108.04C58.0267 107.488 59.5538 106.65 60.8978 105.567C63.1338 103.967 65.4447 102.287 66.732 99.8676C67.6687 97.8246 68.1845 95.6158 68.2492 93.3714C68.8977 85.8265 68.8937 78.2399 68.2371 70.6953C68.1212 68.494 67.7294 66.3158 67.0708 64.2107C65.9565 61.047 63.7914 58.3399 62.6495 55.1846C60.6745 49.7427 61.9438 43.7127 61.2166 37.9818C60.882 35.4501 60.1531 32.9854 59.056 30.6763C58.3722 28.9759 57.1701 27.5307 55.6182 26.5434C54.0225 25.6816 51.7374 25.829 50.6626 27.3374C51.6037 26.089 47.7976 22.9001 46.9868 22.4372C45.5001 21.596 43.108 20.8339 41.4472 21.6214C37.3342 23.4868 39.1095 31.6815 40.4085 34.7497Z" fill="#AA63E0" stroke="#20173B" stroke-width="2" stroke-miterlimit="10" stroke-linecap="round"/>
<path d="M49.9275 25.9511C51.4311 32.0534 52.9418 38.2465 52.6345 44.5162C52.4876 47.3519 51.984 50.2248 52.5873 52.9869C53.4167 56.6339 56.0861 59.6427 57.5958 63.0785C59.9066 68.2015 59.6635 74.0554 59.3713 79.6633C59.1392 84.2385 58.838 89.0388 56.3767 92.9101" stroke="#20173B" stroke-width="2" stroke-linecap="round" stroke-linejoin="round"/>
<path d="M68.5814 73.6058C69.3454 73.5733 70.0718 73.2678 70.6272 72.7455C70.9416 72.2874 71.1214 71.7513 71.1462 71.1972C71.6533 66.973 70.4263 62.7454 69.2966 58.6561C69.2537 58.3249 69.144 58.0055 68.974 57.7174C68.8041 57.4292 68.5775 57.1779 68.3077 56.9787C68.0379 56.7795 67.7305 56.6364 67.4039 56.5579C67.0772 56.4795 66.738 56.4674 66.4065 56.5221C62.3084 56.1394 58.1816 56.1789 54.092 56.6402C56.8064 60.2652 58.5897 64.4935 59.287 68.9583C59.6196 70.7799 59.2383 73.4923 60.8749 74.1646C62.7656 74.897 66.6389 73.9425 68.5814 73.6058Z" fill="white" stroke="#20173B" stroke-width="2" stroke-miterlimit="10" stroke-linecap="round"/>
<path d="M60.1112 50.0293C61.7027 50.0604 63.2775 49.704 64.6982 48.9911C65.2149 48.7018 65.6296 48.2617 65.8861 47.7303C66.1484 46.8925 66.1369 45.9936 65.8534 45.1625C65.3138 42.504 64.5585 39.8932 63.5947 37.3558C63.4381 36.8987 63.1829 36.4811 62.8468 36.1324C62.2044 35.6578 61.4166 35.4188 60.6171 35.4557C57.9497 35.3287 55.2776 35.573 52.6786 36.1816C52.5961 36.1845 52.5154 36.2059 52.4424 36.2442C52.3694 36.2825 52.3061 36.3367 52.2572 36.4028C52.2083 36.4688 52.1751 36.5451 52.16 36.6257C52.1449 36.7064 52.1483 36.7893 52.1701 36.8685C52.2254 40.4434 51.4018 45.3409 52.3457 48.7728C53.1544 51.7301 57.7942 49.9765 60.1112 50.0293Z" fill="white" stroke="#20173B" stroke-width="2" stroke-miterlimit="10" stroke-linecap="round"/>
<path d="M-28.5525 50.7459C-26.2183 53.3722 -24.3572 56.3786 -23.0511 59.6333L-28.5167 62.3748C-26.0535 63.6191 -23.1631 65.7441 -23.9079 68.3847C-24.1955 69.188 -24.6542 69.9202 -25.2528 70.531L-32.24 78.7617C-30.6958 78.7954 -29.1925 79.2613 -27.9025 80.1058C-26.6125 80.9503 -25.5882 82.1389 -24.9471 83.5356C-24.3405 84.9489 -24.1475 86.5036 -24.3904 88.0208C-24.6333 89.538 -25.3022 90.9563 -26.3201 92.1122L-20.7695 92.0391L-21.7265 105.986L-17.9594 105.682C-17.2248 108.959 -17.0244 112.332 -17.3659 115.673L-3.21924 115.66C-3.83769 117.686 -4.06574 119.81 -3.89142 121.921C2.64004 123.317 9.46025 122.223 15.2167 118.856C14.7769 121.483 15.1648 124.182 16.3274 126.582C20.7581 124.854 24.8201 122.309 28.2992 119.082C29.1498 122.241 30.3214 125.307 31.7959 128.232C32.8195 124.691 34.2256 121.272 35.9896 118.032C39.2717 122.491 43.567 126.117 48.5255 128.613C48.4114 125.955 48.7216 123.296 49.4446 120.734L65.2497 127.235L60.4148 118.735C66.3709 118.588 72.3306 118.8 78.2612 119.369C74.9002 115.989 72.2049 112.015 70.3146 107.65C72.3178 108.158 74.4111 108.206 76.4354 107.79L73.1558 102.726L79.6135 102.502C79.6849 100.787 79.3312 99.082 78.5834 97.5354C77.8357 95.9888 76.7169 94.6486 75.3255 93.6328L85.9386 90.4826C85.7106 85.7057 84.023 81.1111 81.1008 77.311L86.8498 76.9433L79.6226 65.6945L83.7351 65.0535C82.8278 62.764 81.4403 60.6925 79.665 58.9771C77.8897 57.2616 75.7673 55.9414 73.439 55.1044C75.3291 53.335 76.8185 51.1861 77.8085 48.8004L72.819 46.2739L75.7239 44.9615C75.2452 43.3248 74.2793 41.8704 72.9533 40.7894C73.4594 41.4086 74.5807 40.6632 74.526 39.8637C74.436 39.4744 74.2639 39.1084 74.021 38.7902C73.7781 38.4719 73.4699 38.2086 73.1169 38.0175C69.9521 35.7192 66.5169 33.8132 62.8876 32.342C75.1089 40.3124 92.14 40.6828 101.756 51.6233C104.932 55.2332 106.957 59.6875 108.616 64.188C110.816 70.1429 112.456 76.2847 114.095 82.4536L107.703 80.2125C111.158 84.0492 113.404 88.8092 114.162 93.902L108.297 92.9699C109.757 99.9502 110.491 107.061 110.487 114.19C107.865 113.281 105.128 112.739 102.355 112.58C102.801 119.861 102.634 127.167 101.857 134.42C99.5482 132.33 96.7639 130.829 93.743 130.044C93.1568 134.176 92.2582 138.257 91.055 142.255C89.0138 140.488 86.5866 139.219 83.966 138.547C83.8581 142.026 83.1626 145.463 81.9087 148.713C80.9171 146.166 79.5775 143.767 77.9279 141.584L70.5112 150.24C68.6266 149.969 66.7041 150.287 65.01 151.15C63.3158 152.014 61.9338 153.379 61.0556 155.058C56.6885 151.061 51.3476 148.266 45.5609 146.949C46.0152 147.089 46.4324 147.328 46.7824 147.648C47.1323 147.968 47.4061 148.362 47.584 148.8C47.7619 149.238 47.8394 149.71 47.8108 150.182C47.7822 150.654 47.6483 151.113 47.4187 151.527L38.3261 146.031L35.7654 160.667C32.8925 158.978 30.9044 156.112 28.1733 154.208C25.4422 152.305 21.1576 151.69 19.126 154.328L18.4781 145.923L6.32288 148.657L6.6936 145.609C1.80682 148.24 -3.59695 149.785 -9.14407 150.137C-9.89942 146.631 -10.2283 143.049 -10.1236 139.466C-12.7942 143.414 -16.2953 146.738 -20.3852 149.209C-23.8422 141.735 -26.0876 133.764 -27.0383 125.593C-30.5779 127.157 -34.4427 127.859 -38.3108 127.639L-32.3682 120.791C-39.2564 119.661 -45.6542 116.53 -50.754 111.791C-47.8637 110.865 -44.7806 110.704 -41.8083 111.323C-48.2366 102.243 -54.0538 92.7509 -59.2218 82.9081C-56.7698 84.2843 -54.051 85.1255 -51.2466 85.3757C-53.636 78.8994 -55.0492 73.2344 -57.4478 66.7579L-50.3527 72.5978C-51.1937 63.8459 -51.0874 55.0299 -50.0357 46.3011C-48.4705 50.4013 -46.1059 54.1542 -43.0776 57.3442C-41.1569 48.765 -37.3211 40.7249 -31.8536 33.8179C-32.0966 34.6823 -32.144 35.5896 -31.9922 36.4745C-31.8403 37.3593 -31.4931 38.1998 -30.9755 38.9355C-26.1488 33.7013 -20.674 29.0961 -14.682 25.2301C-15.837 27.2817 -16.4016 29.6097 -16.3141 31.9593C-13.1384 23.5782 -4.43287 18.8335 3.6087 14.7902C2.88715 16.472 2.45157 18.2612 2.3197 20.0849C4.6942 19.3833 7.16633 19.0631 9.64268 19.1364L7.3621 21.0888C13.7011 18.3812 20.704 17.5944 27.4924 18.827C27.1436 18.9099 26.8272 19.093 26.5827 19.3536C26.3381 19.6142 26.1763 19.9408 26.1173 20.2923L32.4975 20.6646C29.1784 24.5345 23.2858 24.3908 18.1465 24.4368C7.74423 24.5555 -2.52266 26.7908 -12.021 31.0049L-9.3754 31.8545L-15.5295 33.9726C-15.1278 34.7706 -14.481 35.4207 -13.6826 35.8288L-19.4657 38.8896C-18.6882 40.3127 -17.6152 41.5552 -16.318 42.5351C-17.0544 42.0104 -27.6576 49.9228 -28.5525 50.7459Z" fill="#EE81AA" stroke="#20173B" stroke-width="2" stroke-miterlimit="10" stroke-linecap="round"/>
<path d="M25.5914 32.1442C26.7373 32.4746 27.7622 33.1281 28.5421 34.0255C29.0054 34.7182 29.3403 35.4876 29.5307 36.2975C30.8814 40.8333 32.1615 45.3976 33.3709 49.9906C33.6801 50.8872 33.7892 51.84 33.6906 52.7826C33.5342 53.437 33.2298 54.0474 32.8004 54.5672C32.371 55.0871 31.828 55.5029 31.2127 55.7828C29.9789 56.3382 28.6649 56.6967 27.3187 56.8457C25.7854 57.1795 24.2033 57.2295 22.6516 56.9933C20.2266 56.4754 18.3155 54.636 16.7713 52.7141C13.5732 48.7211 11.3156 44.067 10.164 39.0939C9.77349 37.407 8.94513 34.9118 10.0849 33.3596C11.3668 31.5747 14.3055 31.1792 16.2721 30.9882C19.4262 30.6771 22.6106 31.0721 25.5914 32.1442Z" fill="#20173B"/>
<path d="M7.44439 80.2928C5.90493 88.9652 6.45214 98.1839 10.2776 106.126C17.1139 103.706 24.3217 101.004 28.777 95.3373C32.8383 90.142 33.907 83.3 34.8406 76.7816C35.3954 72.8668 35.935 68.8156 34.9179 64.992C33.4874 59.6895 27.8654 54.0828 21.9775 54.139C16.3907 54.1929 12.8186 63.9527 11.0529 68.1392C9.40178 72.0453 8.19156 76.1214 7.44439 80.2928Z" fill="white" stroke="#20173B" stroke-width="2" stroke-miterlimit="10" stroke-linecap="round"/>
<path d="M15.2538 96.0264C13.2925 94.9804 11.5976 93.5026 10.2987 91.7059C8.99992 89.9093 8.13155 87.8414 7.76002 85.6604C7.44203 83.1899 7.54548 80.684 8.06602 78.2479C8.5879 75.4191 9.36913 72.6437 10.3999 69.9565C10.7745 68.8449 11.3219 67.7985 12.0222 66.8552C12.8485 65.8853 13.8708 65.0989 15.0228 64.5471C18.3514 62.8495 22.1792 62.3839 25.8222 63.2334C29.4567 64.1118 32.6591 66.2455 34.8572 69.2535C35.2666 69.7783 35.5634 70.381 35.7295 71.0242C35.7991 71.5791 35.7863 72.141 35.6914 72.6921C35.5004 75.5131 35.0887 78.3149 34.4598 81.0722C33.3848 84.7331 31.9339 88.2744 30.13 91.6402C29.4888 92.9407 28.9221 94.9778 27.9667 96.0536C27.1513 96.9873 25.384 97.2462 24.1749 97.4363C21.1263 97.9154 18.0031 97.4218 15.2538 96.0264Z" fill="#20173B"/>
<path d="M-0.877308 60.6108L-8.47079 66.2155C-10.4671 67.5323 -12.2388 69.1575 -13.7189 71.03C-16.5486 75.0471 -16.4231 80.347 -16.1788 85.2414" stroke="#20173B" stroke-width="2" stroke-linecap="round" stroke-linejoin="round"/>
<path d="M-0.486152 53.064C-3.06269 54.1771 -5.90539 54.5368 -8.68076 54.1008C-11.4561 53.6648 -14.049 52.4512 -16.1553 50.6024" stroke="#20173B" stroke-width="2" stroke-linecap="round" stroke-linejoin="round"/>
<path d="M38.2084 102.382C43.1353 96.4301 45.5932 88.8343 45.0817 81.1423" stroke="#20173B" stroke-width="2" stroke-linecap="round" stroke-linejoin="round"/>
<path d="M25.6344 72.6714C25.6778 70.7688 24.161 69.1911 22.2466 69.1474C20.3322 69.1037 18.7451 70.6107 18.7017 72.5133C18.6583 74.4158 20.175 75.9936 22.0894 76.0373C24.0038 76.0809 25.591 74.574 25.6344 72.6714Z" fill="white"/>
<path d="M15.3876 80.9638C15.4124 79.8773 14.5462 78.9763 13.453 78.9514C12.3598 78.9264 11.4535 79.787 11.4287 80.8735C11.4039 81.9599 12.27 82.8609 13.3632 82.8859C14.4565 82.9108 15.3628 82.0503 15.3876 80.9638Z" fill="white"/>
<path d="M27.5757 85.1874C27.6005 84.1009 26.7343 83.2 25.6411 83.175C24.5479 83.1501 23.6416 84.0106 23.6168 85.0971C23.592 86.1836 24.4581 87.0845 25.5514 87.1095C26.6446 87.1344 27.5509 86.2739 27.5757 85.1874Z" fill="white"/>
<path d="M26.2163 36.7571C26.2597 34.8545 24.743 33.2768 22.8286 33.2331C20.9142 33.1894 19.3271 34.6964 19.2837 36.599C19.2403 38.5015 20.757 40.0793 22.6714 40.123C24.5858 40.1666 26.1729 38.6597 26.2163 36.7571Z" fill="white"/>
<path d="M15.9605 45.0493C15.9852 43.9628 15.1191 43.0618 14.0259 43.0369C12.9327 43.0119 12.0263 43.8725 12.0015 44.959C11.9768 46.0454 12.8429 46.9464 13.9361 46.9714C15.0294 46.9963 15.9357 46.1357 15.9605 45.0493Z" fill="white"/>
<path d="M28.1486 49.2729C28.1734 48.1864 27.3072 47.2855 26.214 47.2605C25.1208 47.2356 24.2144 48.0961 24.1897 49.1826C24.1649 50.2691 25.031 51.1701 26.1242 51.195C27.2175 51.2199 28.1238 50.3594 28.1486 49.2729Z" fill="white"/>
<path d="M82.8265 46.874C82.5293 46.8307 82.226 46.861 81.9435 46.9621C81.661 47.0633 81.408 47.2321 81.2069 47.4538C82.1022 48.2531 83.1496 48.8662 84.2871 49.2566L81.1141 51.5242L83.7388 52.4911C82.855 52.5968 82.0156 52.9346 81.307 53.4698C84.9333 56.0921 88.3718 58.9619 91.5976 62.0583C90.1899 61.6446 88.7172 61.494 87.2543 61.6144C88.3661 62.6146 89.3544 63.7425 90.1986 64.9742L86.8946 64.9806C88.0776 66.3726 89.4469 67.597 90.9642 68.6198C89.7888 68.4856 88.6045 68.7809 87.6323 69.4508L91.9131 71.8342C91.0263 72.1579 90.2377 72.702 89.6227 73.4147C91.9602 74.9017 94.0281 76.7704 95.7393 78.9419L88.9094 81.081C91.2425 83.407 93.3252 85.9685 95.1237 88.7239L91.3621 88.7831C92.1579 89.6146 92.742 90.6231 93.0656 91.7245C92.1506 91.3725 91.1406 91.3494 90.2105 91.6593L91.526 94.4014C91.6107 94.5253 91.6653 94.667 91.6857 94.8153C91.7061 94.9637 91.6916 95.1149 91.6434 95.2568C91.5653 95.3673 91.4634 95.4591 91.345 95.5255C91.2267 95.5918 91.0949 95.631 90.9593 95.6403L84.7671 97.0318C87.2005 98.2756 89.1175 100.329 90.1837 102.833C87.6939 103.338 85.2399 104.003 82.837 104.824C84.0941 106.323 84.9286 108.126 85.255 110.05C83.3205 109.994 81.3902 110.256 79.5422 110.827L80.0395 113.033L78.1201 113.152C81.5169 116.713 84.3678 120.751 86.581 125.137L78.1919 124.809L79.9361 126.364L75.4645 125.146L78.7992 128.995C72.1679 129.225 66.5158 124.543 61.5783 120.14L77.9103 119.152C75.2406 116.161 72.7406 113.024 70.4217 109.757C72.4963 109.643 74.5605 109.387 76.5997 108.991L73.3721 103.248L80.133 103.33C80.5136 99.9592 79.5377 96.5754 77.4181 93.9163C80.7106 93.0113 83.9548 91.941 87.1382 90.7094C86.0367 86.4954 84.6805 82.3511 83.077 78.2992C84.8629 78.259 86.6417 78.0631 88.393 77.7132C86.3206 73.7757 83.8687 70.0471 81.0718 66.5801L85.0778 66.2089C83.2966 61.5535 80.0346 57.6032 75.7879 54.9584C77.4082 53.5863 78.7215 51.8921 79.6433 49.9851C79.7507 49.8488 79.8242 49.6891 79.8576 49.5192C79.8911 49.3492 79.8836 49.1739 79.8358 49.0074C79.7879 48.8408 79.7011 48.6879 79.5824 48.5611C79.4637 48.4343 79.3166 48.3371 79.1529 48.2776C77.9707 47.5554 76.6457 47.0952 75.2683 46.9283C78.8727 46.9561 76.7397 44.4403 76.3296 42.4174C78.5069 43.7913 80.5768 45.4712 82.8265 46.874Z" fill="#E85591"/>
<path d="M112.86 59.3778L110.452 59.3229C111.454 60.6603 112.581 61.9008 113.817 63.0278L111.863 63.0738C112.62 64.9207 113.604 66.6677 114.793 68.2745L112.711 68.3085C114.187 69.9858 115.442 71.8433 116.446 73.8359L115.287 73.8095C115.872 74.5688 116.345 75.4075 116.691 76.2998C116.55 76.2346 116.393 76.2111 116.24 76.2324C116.086 76.2537 115.942 76.3188 115.825 76.4198C115.708 76.5207 115.623 76.6532 115.58 76.8012C115.537 76.9493 115.538 77.1064 115.583 77.2539C115.713 77.5381 116.019 77.7175 116.113 78.0189C116.206 78.3204 115.751 78.6818 115.611 78.4065L117.569 80.6101L114.522 80.5405C113.689 78.5226 113.085 76.4187 112.721 74.268C111.682 69.6756 110.127 65.2133 108.087 60.965C107.346 59.4333 105.649 57.4263 107.38 55.9692C109.11 54.5121 111.089 56.19 112.359 57.3256C111.865 57.3687 111.344 57.4021 110.85 57.4725C111.364 58.2526 112.052 58.9046 112.86 59.3778Z" fill="#E85591"/>
<g style="mix-blend-mode:lighten" opacity="0.56">
<path d="M-33.3185 51.2268C-33.5267 42.7503 -33.6644 33.9853 -30.1556 26.2014C-27.2927 19.9362 -22.2616 14.9011 -15.9776 12.0123C-8.91309 8.79022 -0.858033 8.55665 6.90682 9.04218C18.421 9.76968 29.7937 11.965 40.7455 15.5739C47.2496 17.7177 53.65 20.4035 59.1717 24.4025C63.0865 27.394 66.6795 30.7799 69.8932 34.5064C72.9445 37.735 75.6762 41.2479 78.0504 44.9965C86.2006 58.5974 85.8765 75.606 83.0568 91.188C80.7708 103.78 76.2017 117.236 65.2336 123.942C56.9037 129.022 46.5959 129.186 36.821 129.199C26.3069 129.204 15.4746 129.157 5.73532 125.206C-0.141403 122.662 -5.54428 119.15 -10.2458 114.819C-18.6367 107.371 -25.7863 98.3195 -29.865 87.8772C-34.357 76.3461 -33.0307 63.4148 -33.3185 51.2268Z" fill="#ABE9FF"/>
</g>
<path d="M51.5775 125.254C40.3813 126.758 29.0016 125.501 17.8367 124.031C13.6054 123.481 9.28424 122.865 5.46703 120.964C1.85735 119.168 -1.12506 116.279 -4.02765 113.491C-10.2782 107.435 -16.5998 101.295 -21.2878 93.9593C-32.5407 76.342 -33.0318 53.8634 -29.2778 33.3322C-28.6204 29.7191 -27.8353 26.109 -26.0654 22.9385C-24.2395 19.823 -21.7558 17.1379 -18.7853 15.0682C-11.2302 9.54438 -1.72698 7.0401 7.65967 6.84606C17.0463 6.65204 26.3473 8.6148 35.3205 11.3411C45.8888 14.5572 56.2576 18.9208 64.994 25.6235C73.7305 32.3262 80.7831 41.63 83.3223 52.3455C84.0798 55.5465 84.46 58.8839 85.8434 61.8543C87.2268 64.8246 90.0785 67.4386 93.3831 67.4051C84.1579 58.1244 85.3632 42.4964 77.8221 31.8028C73.0656 25.0638 65.3993 21.0613 57.9324 17.5168C47.2694 12.4481 36.3142 7.78992 24.752 5.33113C13.1898 2.87235 0.926641 2.73773 -10.2319 6.59203C-19.1184 9.6637 -26.9551 15.1267 -34.5732 20.6128C-39.213 23.9628 -43.8552 27.4216 -47.363 31.9584C-51.1255 36.8612 -53.2497 42.7628 -55.0454 48.6629C-56.9824 55.087 -58.5603 61.613 -59.7717 68.2106C-61.2855 75.8583 -61.9771 83.6444 -61.8349 91.4379C-61.3199 104.058 -57.8318 116.383 -51.651 127.421C-45.4703 138.458 -36.7695 147.901 -26.2486 154.989C-15.6002 161.887 -3.47212 166.205 9.15995 167.596C21.792 168.987 34.5754 167.412 46.4817 162.998C52.9032 160.406 59.1331 157.369 65.125 153.908C76.0593 147.881 87.073 141.574 99.2426 138.614C100.514 138.43 101.718 137.93 102.744 137.161C103.663 136.155 104.277 134.911 104.514 133.573L110.996 109.866C112.286 105.559 113.259 101.164 113.907 96.7168C115.87 80.6618 109.404 64.8679 103.108 50.0032C102.523 48.3051 101.599 46.7415 100.392 45.4061C96.4979 41.6891 87.0452 43.5778 82.3311 40.985C85.5791 51.0365 91.5506 61.3224 94.7981 71.392C93.5045 68.8863 89.3663 69.4541 87.7251 71.784C86.0839 74.1139 86.134 77.1173 86.1251 79.9108C86.0568 89.7052 84.6905 102.79 79.9264 111.588C75.1624 120.386 60.531 124.044 51.5775 125.254Z" fill="#FFDB80" stroke="#20173B" stroke-width="2" stroke-miterlimit="10" stroke-linecap="round"/>
<path d="M-45.276 134.111C-37.1571 144.681 -29.8279 151.461 -17.5357 158.326C-12.932 160.825 -8.05177 162.784 -2.99321 164.164C2.18146 165.35 7.43181 166.182 12.7209 166.654C17.8458 167.068 23.001 166.915 28.0915 166.197C40.4972 164.485 52.6706 160.155 62.3607 152.258C53.978 153.518 45.5574 154.438 37.099 155.019C31.2685 155.495 25.4116 155.568 19.5708 155.236C1.94722 153.938 -14.7316 146.807 -27.8 134.981C-40.7972 123.075 -49.4089 107.187 -52.2613 89.8513C-52.7242 86.9383 -53.0407 84.0103 -53.6137 81.122C-54.3955 76.9425 -55.4539 72.8187 -56.782 68.7775C-59.5306 72.4427 -59.1837 80.8408 -59.3601 85.3719C-59.5743 91.0862 -59.2311 96.8078 -58.3352 102.457C-56.5871 113.844 -52.34 124.906 -45.276 134.111Z" fill="#F9E4BB"/>
<path d="M86.2082 47.4591C88.1957 53.1523 90.3459 58.7856 92.6586 64.3592C93.0917 65.7359 93.9048 66.9642 95.0054 67.9046C93.6987 64.5362 93.4331 60.8573 94.2425 57.3385C95.2343 53.8691 97.8523 50.7271 101.367 49.9002C101.619 49.1883 101.636 48.415 101.416 47.6925C101.196 46.9699 100.751 46.3355 100.144 45.8813C98.9182 44.9913 97.4945 44.4081 95.9938 44.1811C92.2115 43.3471 88.3625 42.8466 84.4918 42.6853" fill="#E8B646"/>
<path d="M8.59725 8.95382C14.871 8.38946 21.1673 9.24058 27.3769 10.2893C33.8054 11.343 40.9307 13.0564 44.4108 18.5327C35.6348 19.9651 26.7715 17.2232 17.931 16.2777C4.50329 14.7832 -10.0667 17.7526 -19.7361 27.1375C-20.324 27.7046 -20.778 24.0026 -20.5655 23.4904C-20.1118 22.4033 -18.9195 22.5483 -18.1736 21.8578C-15.7952 19.6444 -13.2566 17.6076 -10.5781 15.7636C-4.86358 11.9292 1.73103 9.58724 8.59725 8.95382Z" fill="white"/>
<path d="M72.9967 101.299C75.6043 97.4124 75.936 92.4767 75.9341 87.76C75.1953 87.7188 74.4575 87.8541 73.7822 88.1543C73.1069 88.4545 72.5138 88.9109 72.0524 89.4856C71.1541 90.653 70.4131 91.932 69.8482 93.2902C67.9324 97.2555 65.4357 101.081 61.7837 103.537C59.93 104.783 57.8021 105.641 55.8686 106.785C53.4352 108.236 54.8753 110.318 57.235 110.499C58.8566 110.627 61.1644 109.083 62.6112 108.472C66.6005 106.831 70.5118 105.006 72.9967 101.299Z" fill="white"/>
</g>
<defs>
<clipPath id="clip0_5041_21265">
<rect width="166.125" height="218.983" fill="white" transform="translate(-73.04 166.947) rotate(-88.6932)"/>
</clipPath>
</defs>
</svg>
