<svg width="100" height="346" viewBox="0 0 100 346" fill="none" xmlns="http://www.w3.org/2000/svg">
<g clip-path="url(#clip0_5041_20679)">
<path d="M181.994 275.312C176.727 272.014 172.392 267.439 168.127 262.921C137.706 230.714 107.173 198.369 81.6828 162.147C75.435 153.27 69.223 142.984 71.025 132.273C72.4241 124.01 78.3218 117.325 83.9495 111.163L110.701 81.8121C119.428 72.1759 129.983 61.8356 142.966 62.3703C154.725 62.8935 163.886 72.2959 171.7 81.0158C205.168 118.336 238.635 155.661 272.102 192.992C277.4 198.895 283.071 206.794 279.85 214.06C278.85 216.338 277.001 218.225 276.41 220.667C275.427 224.608 277.804 228.448 280.144 231.808C282.484 235.168 284.743 238.376 288.043 240.554C291.344 242.732 295.871 243.526 299.24 241.465C301.165 240.278 302.652 238.198 304.862 237.593C309.353 236.363 312.91 242.706 310.921 246.918C308.933 251.129 304.009 253.034 299.437 253.901C299.95 254.611 300.313 255.418 300.503 256.274C300.693 257.129 300.706 258.015 300.542 258.876C300.378 259.737 300.04 260.556 299.548 261.282C299.056 262.009 298.421 262.627 297.682 263.1C296.897 263.502 296.037 263.738 295.156 263.794C294.276 263.851 293.394 263.725 292.564 263.426C291.735 263.127 290.976 262.661 290.334 262.056C289.693 261.451 289.183 260.721 288.835 259.911C290.287 263.326 290.116 267.797 287.308 270.2C284.499 272.603 279.054 271.376 278.6 267.714C278.366 265.949 279.243 264.255 279.847 262.543C282.406 254.956 277.848 245.747 270.297 243.137C268.604 240.641 266.303 238.618 263.611 237.256C253.018 252.716 241.486 268.974 224.176 276.144C224.185 276.985 224.371 277.815 224.723 278.579C225.075 279.343 225.584 280.024 226.218 280.577C226.851 281.13 227.594 281.543 228.399 281.789C229.204 282.034 230.052 282.107 230.887 282.002C231.047 287.285 231.79 293.569 236.477 296C238.424 297.017 240.772 297.146 242.66 298.279C243.431 298.797 244.089 299.467 244.593 300.248C245.097 301.028 245.436 301.904 245.591 302.82C245.745 303.737 245.711 304.676 245.491 305.579C245.271 306.483 244.869 307.333 244.31 308.076C243.681 308.761 242.919 309.311 242.071 309.692C241.223 310.073 240.306 310.278 239.377 310.293C238.447 310.309 237.525 310.136 236.665 309.783C235.806 309.431 235.027 308.908 234.376 308.245C235.062 310.114 235.131 312.155 234.573 314.069C234.015 315.982 232.859 317.668 231.275 318.878C229.64 320.017 227.684 320.603 225.694 320.55C223.703 320.497 221.782 319.808 220.214 318.584C220.867 319.817 221.052 321.246 220.732 322.606C220.413 323.965 219.612 325.164 218.477 325.98C217.29 326.722 215.874 327.009 214.492 326.788C213.11 326.566 211.855 325.851 210.962 324.775C209.015 322.26 209.559 318.515 211.203 315.789C212.847 313.063 215.309 310.938 217.335 308.492C220.008 305.264 221.877 301.45 222.791 297.361C223.103 296.311 223.113 295.195 222.822 294.139C222.181 292.874 221.149 291.851 219.878 291.221C214.068 287.551 206.791 280.857 200.126 279.345C194.391 278.132 186.839 280.517 181.994 275.312Z" fill="#FF8E31"/>
<path d="M221.408 135.685L225.69 138.039C228.217 135.403 231.264 133.32 234.637 131.923C238.01 130.525 241.636 129.844 245.285 129.922C236.146 121.076 225.425 114.025 213.68 109.137C209.778 107.518 205.532 106.129 201.352 106.994C196.309 108.087 192.629 112.435 189.331 116.444C178.952 129.025 167.738 141.295 153.712 149.6C152.222 150.473 150.726 151.275 149.159 152.098C151.731 155.756 150.987 162.199 145.262 163.7C132.181 167.176 120.369 171.74 109.041 179.395C104.057 182.765 97.9242 187.066 94.8909 192.401C92.1248 197.291 92.3086 201.932 91.6404 207.138C92.7727 212.216 94.5155 217.138 96.8306 221.796C97.2843 218.795 98.5586 215.977 100.513 213.653C102.467 211.329 105.026 209.59 107.905 208.628C116.632 205.845 121.757 211.757 125.311 218.798C129.96 227.757 135.182 236.406 140.945 244.691C141.519 245.726 142.374 246.577 143.412 247.146C145.172 247.914 147.183 246.965 148.871 246.028C186.317 225.057 219.137 196.725 245.351 162.741C246.193 161.853 246.731 160.721 246.888 159.509C246.918 157.832 245.579 156.475 244.269 155.41L221.408 135.685Z" fill="#D678D6"/>
<path d="M87.951 77.1154C91.6277 84.3568 95.7904 91.3407 100.41 98.0194L95.1096 102.954C89.9206 97.6889 85.0284 92.1398 80.4555 86.3321C78.9344 84.3888 77.6166 82.6801 79.7514 80.6929C80.4002 80.104 87.3516 75.9181 87.951 77.1154Z" fill="#7CBC5C"/>
<path d="M87.9164 77.4199C91.593 84.6622 95.7528 91.6484 100.367 98.3315L95.0587 103.273C89.8619 98.0159 84.9693 92.4664 80.4046 86.6517C78.8911 84.7166 77.5733 83.0079 79.7006 81.0125C80.3506 80.3924 87.3095 76.2145 87.9164 77.4199Z" stroke="#20173B" stroke-width="2" stroke-linecap="round" stroke-linejoin="round"/>
<path d="M81.7802 78.8195C80.7214 77.0311 79.6035 75.2876 78.4264 73.589" stroke="#20173B" stroke-width="2" stroke-linecap="round" stroke-linejoin="round"/>
<path d="M84.876 158.66C79.6143 151.559 75.0034 143.171 75.9601 134.352C76.6036 128.533 79.5081 123.287 82.819 118.51C86.1298 113.733 89.9089 109.232 92.5756 104.056C86.5011 108.924 80.627 114.316 76.5103 120.978C72.3936 127.64 70.2247 135.726 71.9533 143.378C73.2329 149.147 76.6016 154.182 80.0242 159.031C82.4406 162.44 84.872 165.866 87.369 169.216L100.274 186.921C99.7357 175.453 91.3639 167.404 84.876 158.66Z" fill="#FFC49C"/>
<path d="M188.219 99.1848L171.835 80.9969C163.983 72.2365 154.821 62.8341 143.1 62.3515C130.119 61.7698 119.562 72.1571 110.835 81.7933L84.0833 111.145C78.4389 117.337 72.5493 124.015 71.1589 132.254C69.3714 142.997 75.5609 153.259 81.8168 162.128L100.338 186.907" stroke="#20173B" stroke-width="2" stroke-linecap="round" stroke-linejoin="round"/>
<path d="M94.6462 139.322C94.6493 138.807 94.489 138.304 94.1887 137.886C93.7554 137.49 93.2068 137.243 92.6227 137.18C81.5383 134.778 70.4381 132.38 59.322 129.988C58.8811 129.849 58.4118 129.828 57.9597 129.924C57.6059 130.06 57.289 130.277 57.0348 130.558C55.497 132.119 54.3918 134.053 53.8279 136.17C53.264 138.287 53.2609 140.513 53.8188 142.63C53.9084 142.971 64.8366 143.269 65.968 143.426C70.2124 143.873 74.4218 144.494 78.5961 145.289C80.6598 145.683 82.7137 146.132 84.7426 146.619C86.2041 146.968 88.6077 148.15 90.0758 147.888C93.2574 147.302 94.8311 141.994 94.6462 139.322Z" fill="#7CBC5C"/>
<path d="M92.9961 119.628C81.7182 115.488 70.1485 112.188 58.3816 109.755C58.0815 109.671 57.7675 109.65 57.4586 109.691C57.0423 109.82 56.6733 110.069 56.3975 110.406C54.9065 112.03 53.8799 114.024 53.4259 116.18C52.972 118.336 53.1074 120.574 53.8178 122.658C54.0177 123.198 63.4743 123.641 64.5123 123.779C68.1433 124.273 71.7464 124.888 75.3215 125.625C78.8966 126.363 82.5278 127.214 86.2148 128.18C88.6691 128.831 91.4543 129.87 93.5485 127.921C96.1623 125.488 96.6487 120.964 92.9961 119.628Z" fill="#D678D6"/>
<path d="M85.8443 107.795C81.4686 103.727 76.8102 99.9728 71.9035 96.5625C71.6665 96.35 71.3708 96.2139 71.0551 96.172C70.7583 96.1859 70.4717 96.2847 70.2292 96.4566C67.2231 98.252 64.9443 101.048 63.7932 104.354C69.2261 107.828 74.8839 110.937 80.7293 113.661" fill="#7CBC5C"/>
<path d="M116.771 84.6054C108.188 75.537 99.9078 66.2021 91.9298 56.6008C91.1186 57.9644 90.0244 59.1385 88.7211 60.0437C87.4178 60.9488 85.9356 61.5642 84.3749 61.8479L102.075 81.8226C103.584 83.444 105.045 85.1107 106.489 86.7925C107.244 87.6032 108.011 89.1279 109.04 89.5326C110.758 90.1576 117.79 85.6998 116.771 84.6054Z" fill="#D678D6"/>
<path d="M98.3438 100.926C98.5013 100.495 98.5101 100.023 98.369 99.5865C98.1862 99.2597 97.9273 98.9816 97.6144 98.7759C88.9859 91.6767 80.1685 84.8087 71.1624 78.172C68.3406 80.5808 66.1594 83.6509 64.8141 87.1075C71.014 90.415 76.4785 94.9669 82.4123 98.6884C85.8775 100.865 89.9005 104.731 93.7082 106.331C93.6948 106.268 97.5351 103.964 98.3438 100.926Z" fill="#7CBC5C"/>
<path d="M73.7091 72.2C73.4953 72.024 73.3331 71.7933 73.2395 71.5326C73.1886 71.2103 73.2505 70.8802 73.4147 70.5979C74.025 69.2589 74.9146 68.0658 76.0238 67.0985C77.133 66.1312 78.4361 65.4123 79.8455 64.9899L105.179 90.8867L98.6007 97.1012C98.3409 97.343 75.9902 74.3739 73.7091 72.2Z" fill="#7CBC5C"/>
<path d="M99.8257 62.4301C101.517 59.7188 103.752 57.3864 106.388 55.5799C106.567 55.4213 106.801 55.3394 107.04 55.3519C107.224 55.418 107.381 55.5419 107.489 55.705L122.265 73.7263L117.012 78.8582C116.971 78.9157 116.919 78.9638 116.858 78.9995C116.797 79.0352 116.729 79.0578 116.659 79.0655C116.578 79.0556 116.5 79.029 116.43 78.9874C116.36 78.9458 116.3 78.89 116.253 78.8237C111.721 74.0205 106.903 69.4964 101.824 65.2762" fill="#D678D6"/>
<path d="M121.044 143.982C119.409 145.491 117.986 147.213 116.811 149.103C113.789 152.958 110.217 156.348 106.211 159.167C104.723 160.117 103.436 161.351 102.424 162.798C101.196 164.864 101.252 167.414 101.384 169.818L106.534 169.443C107.181 169.431 107.824 169.34 108.45 169.173C109.406 168.735 110.287 168.15 111.061 167.438C112.337 166.476 113.766 165.739 115.289 165.257C116.68 164.94 118.045 164.519 119.374 163.997C120.37 163.477 121.293 162.827 122.118 162.063C124.158 160.31 126.103 158.449 127.944 156.488C129.717 154.766 131.128 152.707 132.094 150.432C132.66 148.744 132.916 146.967 132.849 145.189C132.903 144.307 132.862 143.422 132.726 142.55C132.446 141.419 132.057 141.538 130.904 141.537C127.479 141.503 123.813 141.813 121.044 143.982Z" fill="#EECEEF"/>
<path d="M95.1148 202.391C94.8878 207.215 96.1571 211.99 98.749 216.061C98.9239 216.267 99.0177 216.529 99.0124 216.799C98.9531 217.039 98.8189 217.254 98.6292 217.413L96.2169 219.916C96.0876 217.01 94.2181 214.514 93.0458 211.822C91.224 207.724 90.8497 203.126 91.9843 198.784C92.3391 197.439 96.0425 188.348 97.7816 191.193C98.5661 192.475 96.8218 194.719 96.392 195.967C95.6667 198.038 95.2367 200.201 95.1148 202.391Z" fill="#FFD9FC"/>
<path d="M141.757 244.586C142.33 245.621 143.186 246.472 144.224 247.041C145.991 247.817 147.994 246.86 149.675 245.931C187.123 224.958 219.946 196.623 246.162 162.636C247.006 161.75 247.545 160.617 247.7 159.404C247.729 157.727 246.391 156.371 245.081 155.305L222.173 135.578L226.463 137.925C228.99 135.289 232.037 133.207 235.41 131.81C238.783 130.412 242.409 129.731 246.058 129.808C236.918 120.961 226.198 113.911 214.452 109.023C210.551 107.403 206.304 106.015 202.125 106.88C197.082 107.973 193.41 112.329 190.096 116.337C179.725 128.911 168.511 141.181 154.485 149.486C141.55 157.123 136.546 165.534 122.791 171.559C118.481 173.438 115.958 172.73 112.462 175.908C106.161 181.623 95.7946 188.049 92.5918 197.174C89.766 205.206 93.8906 214.032 97.6031 221.682C98.0568 218.681 99.3313 215.863 101.286 213.539C103.24 211.215 105.798 209.476 108.678 208.513C117.405 205.731 122.53 211.643 126.084 218.684C130.745 227.647 135.98 236.299 141.757 244.586Z" stroke="#20173B" stroke-width="2" stroke-linecap="round" stroke-linejoin="round"/>
<path d="M90.2452 145.824C90.7035 145.942 91.2677 146.174 91.2975 146.645C89.8689 147.975 87.6428 147.732 85.7055 147.311C75.4374 145.249 65.2464 142.146 54.7528 142.397C53.599 142.427 54.1282 139.952 54.6964 139.423C55.6491 138.672 58.2577 139.391 59.3502 139.539C62.8804 139.93 66.427 140.517 69.9104 141.118C76.7931 142.474 83.4888 144.23 90.2452 145.824Z" fill="#D3EA73"/>
<path d="M82.0127 112.875C81.8404 112.876 81.6706 112.916 81.5167 112.994C81.3628 113.072 81.2289 113.184 81.1259 113.322C78.5532 112.29 76.1005 110.981 73.8107 109.419C70.9178 107.678 67.7301 106.5 64.8105 104.845C66.4696 100.637 69.5952 103.735 72.042 105.452C75.437 107.829 78.7606 110.304 82.0127 112.875Z" fill="#D3EA73"/>
<path d="M94.983 104.706C94.3777 105.39 93.2748 105.1 92.441 104.742C87.8887 102.564 83.5564 99.9535 79.5039 96.9473L73.821 93.0072L67.1434 88.3892C64.0304 86.2332 66.087 84.4549 68.9075 86.2478C71.8968 88.1407 74.6479 90.5428 77.5207 92.6198C83.2454 96.7731 89.0662 100.802 94.983 104.706Z" fill="#D3EA73"/>
<path d="M100.128 95.8766C97.5653 96.0374 95.4938 93.9257 93.7918 91.9996C88.172 85.6858 82.2686 79.6207 76.0957 73.852C75.3856 73.2895 74.8205 72.5653 74.4475 71.7396C73.9292 70.2551 74.6737 69.6226 75.9015 70.1441C77.1293 70.6656 78.282 72.6037 79.1197 73.5035L86.2282 81.14L93.201 88.6306L96.6873 92.3759C97.2213 92.7867 99.5539 95.9113 100.128 95.8766Z" fill="#D3EA73"/>
<path d="M90.2962 126.787C90.9651 126.936 91.8299 127.523 91.4809 128.06C91.3292 128.244 91.1159 128.368 90.8802 128.407C88.3061 129.109 85.6035 128.386 83.032 127.723C74.4693 125.492 65.7568 123.878 56.9616 122.894C56.0901 122.865 55.2409 122.614 54.4945 122.164C53.3483 121.34 53.5645 120.352 54.6874 119.882C55.8102 119.411 58.3159 120.378 59.438 120.574C62.9082 121.177 66.372 121.811 69.8295 122.476C76.6602 123.824 83.4824 125.261 90.2962 126.787Z" fill="#F8D4FF"/>
<path d="M110.783 87.9549C110.608 88.3563 110.286 88.6759 109.883 88.8483C109.481 89.0207 109.028 89.0329 108.617 88.8824C107.801 88.5564 107.088 88.02 106.548 87.3278C100.639 80.9149 94.9381 74.3184 89.4451 67.5386C88.6724 66.5783 86.6469 65.1349 88.2662 64.3841C89.8854 63.6334 91.2402 65.8373 92.0255 66.6648C95.044 69.9074 98.0626 73.1501 100.907 76.4493C104.241 80.205 107.533 84.0402 110.783 87.9549Z" fill="#F8D4FF"/>
<path d="M118.205 77.9591C116.375 78.4672 114.59 77.1029 113.227 75.7847C109.31 72.0007 105.829 67.7066 101.288 64.7005C101.057 64.5925 100.854 64.4308 100.698 64.229C100.542 64.0271 100.436 63.7909 100.389 63.5399C100.422 61.1337 102.403 62.0737 103.427 63.0271C105.164 64.6486 106.777 66.4148 108.457 68.1048L113.335 73.0361C113.864 73.5722 117.651 78.1121 118.205 77.9591Z" fill="#F8D4FF"/>
<path d="M83.006 120.046C86.3366 121.394 89.697 123.002 93.3053 122.972C93.7758 122.973 94.3936 122.806 94.4189 122.329C94.3936 122.112 94.296 121.91 94.1418 121.755C91.4226 118.475 86.5703 118.211 82.5361 117.018C81.0704 116.567 79.6574 115.961 78.2184 115.424C71.6036 112.956 64.5599 111.932 57.5706 110.918C56.6737 110.785 55.2101 110.922 55.6175 112.222C55.9052 113.15 57.7081 113.166 58.463 113.326C61.2647 113.91 64.0753 114.472 66.8428 115.134C72.35 116.351 77.7539 117.993 83.006 120.046Z" fill="#B73E89"/>
<path d="M114.187 85.1497C114.49 85.553 114.908 85.8548 115.387 86.0152C115.877 86.103 116.479 85.74 116.418 85.2517C108.159 76.4926 100.681 66.9297 92.3631 58.2705C89.4827 60.059 99.5685 69.0549 101.016 70.6584C105.404 75.4861 109.742 80.3748 114.187 85.1497Z" fill="#B73E89"/>
<path d="M77.0961 135.458C82.8395 136.504 88.5251 137.842 94.1311 139.468C94.0733 138.86 93.8057 138.29 93.3743 137.858C92.6277 137.198 91.7283 136.735 90.7572 136.511C83.5045 134.335 75.6343 134.685 68.4261 132.362C66.2917 131.497 64.0692 130.866 61.7978 130.482C60.7349 130.382 57.1035 130.615 56.3322 131.984C62.9325 134.631 70.1792 134.18 77.0961 135.458Z" fill="#609E3C"/>
<path d="M84.3123 110.674C84.7793 109.86 85.3932 109.14 86.1228 108.55C81.5561 105.614 78.3226 100.952 73.7809 97.9773C72.9847 97.4475 69.7729 96.0642 70.3038 98.2785C70.6231 99.6306 73.8212 101.39 74.8787 102.282C75.7389 102.994 84.605 110.175 84.3123 110.674Z" fill="#609E3C"/>
<path d="M91.9618 97.8793C93.4881 99.36 95.1179 100.73 96.8389 101.979C96.9999 102.117 97.1996 102.2 97.4104 102.219C97.9598 102.207 98.2221 101.463 98.0217 100.939C97.6527 99.8926 96.9821 98.9795 96.0943 98.3147L86.7251 89.8773C85.5399 88.741 84.2667 87.7 82.9176 86.7638C81.5771 85.8933 80.1033 85.2376 78.7546 84.3746C77.2409 83.3467 75.7992 82.2167 74.4395 80.9923C73.7552 80.4037 70.3555 78.1513 69.9188 80.2375C69.6689 81.499 73.2411 83.3183 74.0205 83.879C78.018 86.7248 81.9818 89.6322 85.8141 92.7075C87.9503 94.3404 89.9996 96.0643 91.9618 97.8793Z" fill="#609E3C"/>
<path d="M102.116 92.1042C102.251 92.2881 102.425 92.4398 102.626 92.5485C102.827 92.6572 103.049 92.7204 103.277 92.7332C104.072 92.6592 104.231 91.5277 103.92 90.7875C103.534 90.0137 103.019 89.3114 102.396 88.7109C95.3984 81.1933 88.281 73.8021 81.0438 66.5375C80.8583 66.3207 80.6258 66.1491 80.3641 66.0354C79.9555 66.0103 79.5466 66.0801 79.1694 66.2396C78.7921 66.3992 78.4567 66.6441 78.1898 66.9548C77.6711 67.8462 78.74 68.4248 79.3976 69.0988C81.223 70.9403 83.038 72.7814 84.8425 74.6222L95.8607 85.7915L102.116 92.1042Z" fill="#609E3C"/>
<path d="M129.535 161.469C124.228 161.806 119.01 163 114.083 165.003C109.127 167.03 104.984 170.647 102.306 175.285C99.6683 180.583 99.1541 186.686 100.869 192.344C102.606 197.954 105.584 203.1 109.581 207.4C111.458 209.735 113.828 211.626 116.523 212.937C121.14 214.919 126.457 213.843 131.31 212.791C137.459 211.454 143.657 210.104 149.441 207.594C158.198 203.801 165.61 197.506 172.788 191.203C185.856 179.704 198.65 167.78 209.687 154.343C213.543 149.664 217.23 144.689 219.273 138.974C220.328 136.212 220.734 133.246 220.459 130.304C220.111 127.94 219.33 125.661 218.156 123.581C215.008 117.66 210.131 112.893 205.332 108.177C201.705 104.638 197.886 100.975 193.047 99.4722C187.966 98.0923 182.544 98.7395 177.925 101.277C173.353 103.821 169.345 107.269 166.146 111.41C160.089 118.758 155.56 127.239 152.823 136.356" fill="#FF8E31"/>
<path d="M130.486 162.702C124.148 163.82 118.599 167.609 113.778 171.87C110.665 174.393 108.088 177.512 106.197 181.044C104.068 185.761 103.724 191.087 105.227 196.034C106.759 200.946 109.498 205.393 113.193 208.97C109.374 205.747 105.428 202.354 103.407 197.774C102.675 195.98 102.107 194.123 101.712 192.225C100.656 187.836 99.6564 183.214 100.912 178.882C102.752 172.525 108.962 168.454 115.126 166.059C118.91 164.475 122.954 163.609 127.053 163.507" fill="#FFC49C"/>
<path d="M130.169 162.15C124.865 162.494 119.65 163.691 114.724 165.692C109.77 167.721 105.625 171.334 102.94 175.966C100.311 181.269 99.8 187.372 101.51 193.033C103.248 198.643 106.225 203.789 110.222 208.089C112.099 210.424 114.47 212.315 117.164 213.626C121.774 215.6 127.098 214.532 131.951 213.48C138.101 212.143 144.298 210.793 150.075 208.275C158.832 204.482 166.252 198.195 173.43 191.892C186.498 180.393 199.291 168.469 210.328 155.032C214.177 150.345 217.871 145.378 219.907 139.655C220.967 136.894 221.373 133.927 221.093 130.985C220.745 128.621 219.964 126.342 218.79 124.262C215.634 118.333 210.765 113.574 205.966 108.858C202.338 105.319 198.52 101.656 193.681 100.153C188.6 98.7732 183.178 99.4205 178.559 101.958C173.988 104.504 169.978 107.948 166.772 112.083C160.722 119.437 156.196 127.919 153.457 137.037" stroke="#20173B" stroke-width="2" stroke-linecap="round" stroke-linejoin="round"/>
<path d="M121.49 144.006C119.86 145.518 118.436 147.24 117.257 149.126C114.238 152.983 110.669 156.377 106.665 159.199C105.173 160.144 103.886 161.379 102.878 162.829C101.65 164.895 101.706 167.446 101.838 169.85L106.988 169.474C107.635 169.474 108.28 169.383 108.903 169.205C109.856 168.769 110.737 168.189 111.514 167.485C112.783 166.513 114.215 165.775 115.742 165.305C117.131 164.977 118.495 164.557 119.827 164.045C120.82 163.519 121.742 162.869 122.571 162.11C124.609 160.355 126.551 158.491 128.39 156.528C130.168 154.812 131.582 152.754 132.547 150.479C133.109 148.79 133.365 147.015 133.302 145.236C133.357 144.357 133.313 143.474 133.171 142.605C132.891 141.474 132.518 141.594 131.357 141.6C127.925 141.526 124.259 141.837 121.49 144.006Z" stroke="#20173B" stroke-width="2" stroke-linecap="round" stroke-linejoin="round"/>
<path d="M132.709 138.934C128.177 137.842 122.613 137.105 118.098 138.538C111.911 140.485 107.303 145.35 103.625 150.498C101.249 153.699 99.6623 157.415 98.9953 161.344" stroke="#20173B" stroke-width="2" stroke-linecap="round" stroke-linejoin="round"/>
<path d="M120.005 133.767C113.929 135.232 108.703 137.902 104.935 142.53C103.375 144.467 100.741 147.448 100.151 149.874" stroke="#20173B" stroke-width="2" stroke-linecap="round" stroke-linejoin="round"/>
<path d="M94.6116 139.626C94.6146 139.111 94.4544 138.609 94.1541 138.191C93.7185 137.792 93.1676 137.542 92.5805 137.477L59.3193 130.277C58.8797 130.146 58.4138 130.127 57.9646 130.222C57.6111 130.358 57.2944 130.576 57.0397 130.856C55.5017 132.416 54.3969 134.349 53.8343 136.465C53.2716 138.581 53.2707 140.806 53.8316 142.921C53.9136 143.253 64.8496 143.559 65.9809 143.717C70.223 144.156 74.4501 144.791 78.6088 145.58C80.6725 145.974 82.7108 146.422 84.7554 146.909C86.2169 147.259 88.6129 148.433 90.0885 148.179C93.2145 147.615 94.8267 142.331 94.6116 139.626Z" stroke="#20173B" stroke-width="2" stroke-linecap="round" stroke-linejoin="round"/>
<path d="M92.9157 119.9C81.6408 115.751 70.0704 112.45 58.3012 110.026C58.0058 109.947 57.6975 109.925 57.3938 109.963C56.9729 110.083 56.601 110.333 56.3325 110.679C54.8406 112.3 53.8131 114.293 53.3578 116.447C52.9025 118.602 53.0363 120.839 53.7453 122.922C53.9527 123.471 63.4096 123.913 64.4475 124.051C68.0731 124.55 71.6737 125.163 75.2492 125.889C78.8247 126.616 82.4582 127.471 86.1499 128.453C88.596 129.111 91.3893 130.142 93.4836 128.193C96.1194 125.8 96.646 121.254 92.9157 119.9Z" stroke="#20173B" stroke-width="2" stroke-linecap="round" stroke-linejoin="round"/>
<path d="M85.9949 108.185C81.5474 104.075 76.817 100.283 71.8385 96.8348C71.6004 96.624 71.3055 96.488 70.9903 96.4442C70.6939 96.4599 70.4077 96.5585 70.1644 96.7288C67.1553 98.5224 64.8776 101.323 63.736 104.634C69.1646 108.109 74.82 111.215 80.6645 113.934" stroke="#20173B" stroke-width="2" stroke-linecap="round" stroke-linejoin="round"/>
<path d="M116.729 84.9018C108.151 75.8388 99.8705 66.5041 91.8875 56.8974C91.078 58.2617 89.9853 59.4367 88.6834 60.3433C87.3814 61.2499 85.9004 61.8668 84.3403 62.1525L102.04 82.1272C103.55 83.7485 105.01 85.4153 106.454 87.0971C107.209 87.9078 107.969 89.4244 109.005 89.8372C110.723 90.4621 117.755 86.0043 116.729 84.9018Z" stroke="#20173B" stroke-width="2" stroke-linecap="round" stroke-linejoin="round"/>
<path d="M98.3241 101.247C98.4706 100.814 98.4796 100.346 98.3495 99.9073C98.1708 99.5775 97.9111 99.2985 97.5949 99.0967C88.9988 91.9672 80.1817 85.094 71.1434 78.4771C68.322 80.8862 66.1409 83.9562 64.7952 87.4126C70.987 90.7277 76.452 95.2639 82.3859 98.9855C85.8586 101.17 89.8816 105.036 93.6817 106.628C93.6603 106.572 97.5004 104.269 98.3241 101.247Z" stroke="#20173B" stroke-width="2" stroke-linecap="round" stroke-linejoin="round"/>
<path d="M73.6908 72.4894C73.477 72.3134 73.3146 72.0829 73.2209 71.8222C73.1721 71.5015 73.2282 71.1733 73.3807 70.8867C73.9946 69.548 74.8861 68.355 75.9963 67.3868C77.1065 66.4185 78.4099 65.6973 79.8196 65.2712L105.153 91.168L98.5823 97.3906C98.3063 97.6476 75.9806 74.6401 73.6908 72.4894Z" stroke="#20173B" stroke-width="2" stroke-linecap="round" stroke-linejoin="round"/>
<path d="M99.7592 62.7493C101.454 60.0405 103.688 57.7087 106.322 55.8991C106.41 55.8189 106.515 55.758 106.628 55.7201C106.742 55.6823 106.862 55.6683 106.981 55.6791C107.163 55.7479 107.32 55.8713 107.43 56.0322L122.206 74.0536L116.953 79.1855C116.86 79.2954 116.733 79.3711 116.592 79.4003C116.512 79.3885 116.435 79.3601 116.367 79.3172C116.298 79.2744 116.239 79.2178 116.194 79.151C111.654 74.3554 106.837 69.8317 101.765 65.6034" stroke="#20173B" stroke-width="2" stroke-linecap="round" stroke-linejoin="round"/>
<path d="M52.8342 136.299C51.1222 135.795 49.4252 135.236 47.7432 134.622" stroke="#20173B" stroke-width="2" stroke-linecap="round" stroke-linejoin="round"/>
<path d="M52.4638 115.052C50.1764 114.987 47.8833 114.867 45.6004 114.677" stroke="#20173B" stroke-width="2" stroke-linecap="round" stroke-linejoin="round"/>
<path d="M66.0584 99.0075C64.8693 98.3125 63.7364 97.5255 62.6703 96.6536" stroke="#20173B" stroke-width="2" stroke-linecap="round" stroke-linejoin="round"/>
<path d="M66.6914 82.0765C65.2591 81.0909 63.7251 80.2615 62.1158 79.6025" stroke="#20173B" stroke-width="2" stroke-linecap="round" stroke-linejoin="round"/>
<path d="M74.4347 66.7129L65.9283 58.698" stroke="#20173B" stroke-width="2" stroke-linecap="round" stroke-linejoin="round"/>
<path d="M89.5046 59.0248C88.5802 57.9098 87.5925 56.8488 86.5465 55.847" stroke="#20173B" stroke-width="2" stroke-linecap="round" stroke-linejoin="round"/>
<path d="M102.731 57.8038L100.165 55.5024" stroke="#20173B" stroke-width="2" stroke-linecap="round" stroke-linejoin="round"/>
<path d="M107.522 222.572C109.77 224.368 112.487 225.969 115.352 225.678C117.182 225.369 118.912 224.626 120.395 223.51C127.967 218.46 133.937 211.268 138.652 203.49C143.366 195.712 146.913 187.266 150.449 178.89C151.404 176.842 152.089 174.678 152.487 172.454C151.469 172.467 150.467 172.705 149.552 173.152C148.636 173.598 147.831 174.242 147.194 175.036C147.943 172.912 148.96 170.893 150.22 169.026C145.841 170.636 143.067 174.883 140.8 178.975C139.818 180.752 138.852 182.937 139.822 184.727L118.672 207.108C117.375 208.482 115.713 209.984 113.869 209.582C112.655 209.32 111.706 208.267 110.481 208.075C109.762 208.011 109.038 208.129 108.375 208.417C105.871 209.356 101.61 212.005 101.405 215.056C101.2 218.107 105.54 220.997 107.522 222.572Z" fill="#FF8E31"/>
<path d="M107.303 222.337C109.551 224.133 112.269 225.734 115.134 225.443C116.963 225.134 118.693 224.391 120.177 223.275C127.748 218.225 133.719 211.033 138.433 203.255C143.147 195.477 146.694 187.031 150.23 178.655C151.185 176.607 151.87 174.443 152.268 172.219C151.25 172.232 150.248 172.47 149.333 172.917C148.418 173.363 147.612 174.006 146.975 174.801C147.724 172.677 148.741 170.658 150.001 168.791C145.622 170.401 142.848 174.648 140.581 178.74C139.599 180.517 138.633 182.702 139.603 184.492L118.453 206.873C117.156 208.247 115.494 209.749 113.65 209.347C112.437 209.085 111.487 208.032 110.255 207.832C109.538 207.776 108.817 207.897 108.156 208.182C105.652 209.121 101.391 211.77 101.186 214.821C100.981 217.872 105.322 220.762 107.303 222.337Z" stroke="#20173B" stroke-width="2" stroke-linecap="round" stroke-linejoin="round"/>
<path d="M98.6367 224.306C99.8172 224.94 101.147 225.244 102.486 225.186C104.233 225.329 105.975 224.858 107.412 223.854C107.478 223.824 107.532 223.774 107.567 223.71C107.611 223.563 107.491 223.433 107.377 223.327C104.681 220.968 102.35 218.223 100.459 215.18C99.7915 215.832 99.1711 216.531 98.603 217.271C97.6651 218.477 97.6484 219.794 97.1822 221.181C97.0292 221.79 97.0903 222.433 97.3551 223.002C97.6199 223.571 98.0723 224.032 98.6367 224.306Z" fill="#20173B"/>
<path d="M105.283 214.714C105.029 215.886 105.02 217.098 105.258 218.272C105.496 219.447 105.975 220.559 106.666 221.538L104.415 219.82C103.589 219.236 102.837 218.554 102.176 217.789C101.512 217.012 101.162 216.016 101.195 214.994C101.445 213.654 102.199 212.46 103.301 211.657C103.804 211.189 106.003 208.945 106.627 209.045C108.622 209.382 105.453 213.725 105.283 214.714Z" fill="#20173B"/>
</g>
<defs>
<clipPath id="clip0_5041_20679">
<rect width="174" height="310" fill="white" transform="translate(0 118.555) rotate(-42.9494)"/>
</clipPath>
</defs>
</svg>
