<svg width="151" height="453" viewBox="0 0 151 453" fill="none" xmlns="http://www.w3.org/2000/svg">
<g clip-path="url(#clip0_5041_21095)">
<path d="M70.9068 242.792L77.4351 241.912C77.0299 241.725 76.6169 241.533 76.2093 241.333C74.3856 241.589 72.6034 242.079 70.9068 242.792Z" fill="#7CBC5C"/>
<path d="M145.267 293.99C145.294 294.083 145.345 294.168 145.415 294.234C145.485 294.301 145.572 294.348 145.667 294.37C146.643 294.638 146.315 292.606 145.525 292.976L145.428 293.117L145.267 293.99Z" fill="#7CBC5C"/>
<path d="M390.18 163.227C388.183 163.022 386.172 163.422 384.408 164.375C381.874 165.611 379.622 167.356 377.792 169.499C375.962 171.642 374.593 174.139 373.77 176.835C369.435 175.179 364.945 173.963 360.368 173.207C360.085 173.162 359.789 173.12 359.488 173.086C357.931 171.798 356.265 170.649 354.508 169.651C355.402 170.143 356.446 170.29 357.439 170.063C355.622 169.736 353.797 169.403 351.974 169.084C353.247 168.917 354.453 168.42 355.472 167.642C356.491 166.864 357.288 165.833 357.783 164.651C353.608 165.402 349.349 165.58 345.123 165.181C347.505 165.238 349.886 165.028 352.22 164.553C349.717 163.452 347.201 162.353 344.693 161.26L346.953 161.013C344.994 160.071 343.044 159.112 341.102 158.135L345.085 156.702C343.406 155.526 341.613 154.523 339.733 153.706C339.412 153.565 338.965 153.558 338.781 153.825C336.925 153.065 335.074 152.298 333.21 151.533L338.023 150.025C336.286 148.539 334.297 147.375 332.151 146.589L334.907 146.464C333.192 144.91 331.475 143.344 329.777 141.767C332.353 141.461 334.807 140.504 336.907 138.986L321.123 139.098C323.266 138.813 325.302 137.996 327.045 136.722C326.379 135.483 325.546 134.34 324.571 133.325L323.188 133.124C322.68 133.103 322.192 132.921 321.795 132.603C321.665 132.42 321.574 132.213 321.526 131.994C321.479 131.775 321.477 131.549 321.519 131.33C321.562 131.11 321.649 130.902 321.775 130.717C321.901 130.532 322.064 130.376 322.253 130.256C323.05 129.82 323.957 129.622 324.865 129.684C321.806 129.496 318.767 129.061 315.778 128.383C317.516 126.949 318.996 125.23 320.156 123.298C312.297 124.622 304.255 124.456 296.45 122.809C294.903 122.008 293.19 121.58 291.449 121.559C291.296 121.512 291.14 121.485 290.988 121.438L290.847 121.642C289.353 121.707 287.911 122.199 286.689 123.058C287.619 122.669 287.417 121.128 286.556 120.592C285.629 120.161 284.577 120.086 283.6 120.383C275.479 121.856 267.498 124.008 259.741 126.815C260.851 125.332 262.378 124.213 264.129 123.601L250.879 124.65L253.479 121.57C244.205 122.074 235.336 125.503 228.149 131.364C227.309 131.167 226.464 130.978 225.633 130.787L232.29 125.595C228.544 124.344 224.604 123.784 220.661 123.941L224.112 120.452C220.878 120.428 217.676 121.076 214.708 122.353C211.741 123.631 209.073 125.51 206.873 127.873L209.632 122.83C204.062 127.52 198.859 132.628 194.067 138.109L194.871 135.26L191.116 139.408C191.744 138.614 190.365 137.5 189.453 137.948C188.54 138.395 188.227 139.523 188.006 140.516L188.691 135.13L186.627 137.18C186.831 136.067 186.649 134.918 186.113 133.919C185.47 133.001 183.852 132.754 183.327 133.734L181.52 127.938C181.043 128.861 180.334 129.645 179.463 130.213C178.48 128.458 177.491 126.71 176.515 124.961L175.545 127.765L172.397 120.731L172.183 127.437C171.444 122.469 171.279 117.433 171.692 112.429L168.369 123.845C168.549 122.647 168.293 121.424 167.648 120.396C167.627 120.468 167.588 120.533 167.533 120.585C167.479 120.637 167.412 120.674 167.339 120.692C166.701 120.843 166.154 120.222 165.813 119.64L162.492 114.709L159.902 119.626C158.721 115.174 157.975 110.619 157.674 106.025C156.025 109.1 154.811 112.389 154.067 115.798C151.525 113.032 149.411 109.903 147.793 106.515C147.811 108.902 148.122 111.278 148.717 113.59C146.879 112.018 145.671 109.836 145.316 107.447C145.27 111.877 144.874 116.295 144.13 120.661C141.569 118.214 139.366 115.42 137.585 112.36L136.856 117.994C134.886 115.802 132.921 113.601 130.951 111.408C131.998 114.446 133.029 117.5 134.046 120.571C132.311 118.356 130.579 116.154 128.84 113.947C130.548 117.91 130.942 122.312 129.963 126.508L126.261 123.711L126.806 131.034L123.112 127.166C124.049 130.212 124.553 133.374 124.609 136.558C123.22 135.668 122.005 134.532 121.024 133.205L121.374 137.175C119.222 136.286 117.434 134.694 116.304 132.659L118.564 142.612C116.984 141.556 115.649 140.173 114.651 138.558L116.67 146.284C113.913 145.192 111.409 143.547 109.311 141.451C110.703 144.426 111.652 147.588 112.125 150.836C110.425 150.316 108.873 149.4 107.595 148.164L109.009 153.503L104.594 151.084L108.687 161.039L99.9135 156.237L108.553 168.622C107.108 168.379 105.801 167.614 104.881 166.472C106.725 168.646 108.563 170.829 110.407 173.004C108.775 172.306 108.369 175.234 109.106 176.842C107.75 176.506 106.529 175.76 105.609 174.708L106.107 178.918L102.933 176.636L104.489 181.97L98.7182 179.935L100.848 184.067L92.4787 184.083C93.2653 184.626 94.0913 185.195 94.9016 185.754C92.7384 185.524 90.5202 185.256 88.3309 184.996C88.9877 185.727 89.587 186.407 90.2045 187.111L83.7365 187.13L87.1287 190.628C85.4918 190.633 83.8515 190.632 82.2077 190.625C83.2407 191.535 84.279 192.436 85.312 193.346L76.2122 194.386C77.0063 194.783 76.4624 196.296 75.6019 196.096C78.637 197.789 81.4429 199.864 83.9504 202.271C80.9483 201.45 77.948 200.627 74.9495 199.802L87.1604 204.821C81.2527 204.43 75.3242 204.514 69.4325 205.074C70.8992 205.657 72.3738 206.246 73.846 206.821C70.4014 206.289 66.8936 206.334 63.467 206.956C66.0906 207.935 68.5556 209.295 70.7818 210.995L64.0446 211.488C66.9223 214.347 70.6812 216.153 74.7099 216.61C73.0997 216.793 71.6181 217.572 70.557 218.793C72.464 219.159 74.3673 219.531 76.267 219.907C72.7718 223.008 68.4385 225.012 63.8063 225.669C68.0879 227.01 72.5463 227.696 77.0301 227.704L64.3945 231.111C69.0022 231.507 73.4874 232.814 77.5894 234.956L68.017 237.523L76.2476 241.428C80.8779 240.753 85.6074 241.552 89.7645 243.712L82.5328 247.06C86.8677 246.914 91.1849 247.714 95.1827 249.406L89.1316 249.528C96.0475 250.583 102.661 253.104 108.528 256.921C105.817 260.216 104.233 264.292 104.007 268.556C103.781 272.82 104.925 277.048 107.272 280.623L106.351 276.352L110.256 285.923L109.406 282.106L113.322 288.211L112.572 283.677L118.343 293.724L117.861 289.71L122.464 294.112L121.751 291.409C122.591 292.278 123.444 293.144 124.292 294.019C123.702 292.843 123.436 291.532 123.521 290.222C125.098 293.843 127.082 297.274 129.435 300.449L127.744 293.794C128.597 297.097 130.441 300.062 133.029 302.291C131.908 298.857 131.33 295.271 131.316 291.662L136.715 301.811L137.359 293.908L141.664 298.406C141.589 298.29 141.538 298.16 141.515 298.025C141.492 297.889 141.498 297.75 141.531 297.616C141.564 297.483 141.625 297.358 141.709 297.249C141.792 297.14 141.898 297.049 142.018 296.983C142.149 296.94 142.288 296.925 142.425 296.938C142.562 296.952 142.695 296.993 142.816 297.06C142.936 297.127 143.042 297.218 143.126 297.327C143.209 297.436 143.27 297.562 143.303 297.695L143.047 293.86C143.595 294.748 144.207 295.679 144.781 296.596L145.274 294.064C145.236 293.916 145.231 293.761 145.26 293.611C145.29 293.461 145.352 293.32 145.443 293.197L145.46 293.07C145.46 293.07 145.46 293.07 145.532 293.05C145.638 292.885 145.789 292.754 145.967 292.671C146.145 292.589 146.343 292.559 146.537 292.586C147.562 292.783 148.07 293.898 148.443 294.873L150.013 290.745C150.747 292.189 159.428 287.665 161.568 287.138C161.568 287.138 161.568 287.138 161.666 287.113C160.867 288.118 160.235 289.246 159.793 290.452C157.745 296.113 160.513 302.283 163.226 307.674L163.257 305.947L165.741 311.62C165.94 311.005 165.919 310.34 165.681 309.738L169.065 318.498L169.206 317.334L172.246 323.193L171.682 321.183C172.395 323.642 173.726 325.879 175.547 327.681C175.37 326.253 175.337 324.811 175.451 323.378C177.178 326.109 179.664 328.53 180.063 331.722C180.43 334.708 182.327 337.915 183.394 340.677C185.272 345.585 187.148 350.495 189.022 355.408L186.808 348.3L192.841 355.24L191.518 351.537C194.672 355.992 198.205 360.168 202.076 364.018L200.045 360.568L211.278 368.872C210.741 367.783 210.203 366.694 209.652 365.608C214.035 368.218 218.263 371.08 222.314 374.18L220.119 369.435C221.417 370.275 222.913 370.759 224.455 370.84C223.854 369.187 223.259 367.526 222.65 365.867C223.757 366.606 225.019 367.08 226.338 367.253C225.48 364.693 224.505 362.168 223.423 359.697C225.287 360.176 227.235 360.23 229.12 359.852L228.196 356.042C228.774 356.204 229.385 356.202 229.962 356.038C230.538 355.874 231.058 355.553 231.462 355.111C230.585 353.858 229.703 352.612 228.81 351.348C229.152 351.418 229.505 351.415 229.845 351.341C230.186 351.267 230.507 351.124 230.789 350.919L229.223 348.056C230.702 347.729 232.143 347.253 233.524 346.634L230.848 343.781L233.298 343.596C233.011 343.058 232.536 342.645 231.964 342.432C232.77 342.691 233.631 342.729 234.455 342.541L233.171 340.868L233.694 339.168C235.575 340.766 237.453 342.386 239.347 343.982C240.423 344.897 241.859 345.911 243.385 346.998C243.998 347.422 244.636 347.861 245.265 348.295C248.085 350.333 250.868 352.542 252.079 354.743L250.352 351.607C258.401 357.892 266.482 364.191 274.595 370.506C273.207 368.31 271.82 366.114 270.43 363.904C275.502 367.558 280.581 371.208 285.666 374.854L284.986 373.551L284.314 372.254C286.477 373.746 288.746 375.068 291.031 376.366C292.18 377.008 293.339 377.633 294.5 378.238C295.662 378.843 296.848 379.429 298.035 379.981L296.459 377.216C295.938 376.289 295.427 375.346 294.889 374.443C296.648 375.709 298.504 376.834 300.439 377.808C300.718 377.942 300.994 378.063 301.279 378.19C303.177 379.056 305.262 379.431 307.341 379.28C307.644 379.246 307.938 379.206 308.236 379.145C309.277 378.924 310.281 378.556 311.218 378.053C311.317 377.993 311.413 377.921 311.52 377.867C312.548 378.669 313.623 379.41 314.738 380.086C319.619 373.346 324.231 366.408 328.782 359.439C332.338 353.997 336.996 348.827 339.6 342.796C339.068 341.893 338.62 340.944 338.258 339.961L336.274 342.551C336.259 342.136 336.24 341.776 336.215 341.526C336.156 340.885 336.056 340.248 335.917 339.619C335.845 339.303 335.759 338.989 335.668 338.683C335.249 337.154 334.333 335.805 333.065 334.85C334.218 335.897 335.67 336.559 337.217 336.741C336.582 336.06 335.913 335.413 335.211 334.802C333.116 332.954 330.763 331.42 328.227 330.251C329.502 328.317 331.178 326.68 333.142 325.451C335.105 324.221 337.311 323.426 339.611 323.121C339.171 322.934 338.721 322.728 338.311 322.549C337.421 322.155 336.579 321.794 335.718 321.409C336.495 320.54 337.387 319.78 338.368 319.15C339.999 318.081 341.842 317.378 343.772 317.088L340.16 314.481C340.42 314.105 340.68 313.728 340.94 313.351C341.199 312.975 341.501 312.639 341.808 312.295C342.115 311.951 342.435 311.639 342.768 311.324C343.433 310.7 344.15 310.133 344.911 309.63C345.296 309.375 345.686 309.146 346.092 308.928C346.895 308.493 347.735 308.127 348.6 307.833C347.482 307.176 346.238 306.76 344.95 306.612L346.935 304.323C346.362 304.021 345.862 303.597 345.47 303.081C345.34 302.912 345.222 302.734 345.117 302.548C347.391 301.626 349.845 301.227 352.297 301.381C354.749 301.535 357.137 302.238 359.282 303.438C358.169 302.763 357.048 302.082 355.932 301.394C356.392 301.468 356.849 301.563 357.3 301.666C359.588 302.18 361.795 303.009 363.857 304.128C364.679 304.579 365.478 305.072 366.251 305.605L364.352 302.35C365.676 303.09 367.008 303.835 368.334 304.588C368.807 304.844 369.267 305.103 369.727 305.363C377.073 294.476 385.236 283.434 390.831 271.652C392.536 268.069 394.219 261.253 393.043 256.899C392.918 256.754 392.784 256.615 392.644 256.485C392.272 256.409 391.911 256.288 391.569 256.125C390.654 255.667 389.781 255.181 388.928 254.685C388.613 254.66 388.296 254.663 387.982 254.693L388.45 254.402C386.72 253.359 385.044 252.238 383.342 251.052C382.338 250.366 381.543 249.417 381.043 248.309C378.887 247.412 376.79 246.464 375.401 244.707C373.62 242.459 379.921 240.461 381.511 235.849C382.041 234.34 383.907 236.044 385.788 237.642C386.268 237.054 386.843 236.551 387.489 236.153C387.707 235.819 387.952 235.504 388.221 235.21C388.686 234.535 389.096 233.823 389.491 233.099C389.896 232.131 390.22 231.131 390.461 230.11C391.514 226.598 392.635 223.794 395.889 221.72C397.498 220.699 399.104 220.256 400.489 218.872C401.661 217.498 402.655 215.983 403.449 214.361C405.236 211.147 405.611 208.315 405.619 204.65C405.626 203.871 405.766 203.098 406.034 202.366C405.91 191.226 403.116 180.271 397.886 170.418C396.148 167.181 393.768 163.815 390.18 163.227Z" fill="#57C8CE"/>
<path d="M107.301 183.145C97.3733 177.896 85.3844 179.456 74.2746 181.206C74.0138 176.614 74.3451 172.01 75.2606 167.506C76.1962 162.98 78.4656 158.84 81.7772 155.618C90.9291 163.725 99.5952 167.723 111.662 169.517" fill="#E62158"/>
<path d="M79.7301 158.872C79.5665 159.04 79.4709 159.263 79.4614 159.497C79.5317 159.72 79.6816 159.911 79.8826 160.031C83.9808 163.066 88.2047 165.891 92.5545 168.505C94.3812 169.651 96.2925 170.655 98.2714 171.511C101.718 172.905 105.438 173.489 109.143 173.22L110.931 170.459C102.162 168.428 94.1323 164.013 86.5108 159.207C85.4163 158.522 83.5103 156.455 82.1796 156.533C81.0741 156.604 80.3184 158.12 79.7301 158.872Z" fill="#FFC49C"/>
<path d="M79.0767 176.819C79.0815 176.693 79.1112 176.569 79.1642 176.454C79.2173 176.34 79.2926 176.237 79.3857 176.152C79.5684 176.035 79.7828 175.976 80 175.985C82.1077 175.841 84.2723 176.338 86.3874 176.234C87.5745 176.196 88.6746 175.948 89.8175 175.856C94.532 175.484 99.2362 177.467 103.9 178.785C104.671 178.941 105.4 179.262 106.037 179.726C106.633 180.242 106.943 181.173 106.492 181.742L100.91 180.393C99.3142 179.969 97.6979 179.627 96.0674 179.368C91.7431 178.919 87.3754 179.211 83.1535 180.233C82.1866 180.423 80.3592 180.783 79.4949 179.932C78.7634 179.242 78.929 177.689 79.0767 176.819Z" fill="#FFC49C"/>
<path d="M107.301 183.145C97.3733 177.896 85.3844 179.456 74.2746 181.206C74.0138 176.614 74.3451 172.01 75.2606 167.506C76.1962 162.98 78.4656 158.84 81.7772 155.618C90.9291 163.725 98.8102 168.71 110.893 170.514" stroke="#20173B" stroke-width="2" stroke-linecap="round" stroke-linejoin="round"/>
<path d="M73.6096 168.486C69.4083 168.435 65.3272 167.059 61.9496 164.554" stroke="white" stroke-width="2" stroke-linecap="round" stroke-linejoin="round"/>
<path d="M69.7469 162.742C70.0241 160.302 70.0057 157.836 69.6923 155.399C69.3512 156.734 68.8916 158.037 68.3192 159.291C67.6659 158.066 66.816 156.955 65.8033 156.004C65.2954 156.985 65.0877 158.094 65.2059 159.193C64.8469 158.481 64.3114 157.872 63.6505 157.425C63.3238 158.369 63.1433 159.357 63.1151 160.356C62.5321 158.874 61.7718 157.467 60.8507 156.166C59.9982 157.689 59.3326 159.309 58.8682 160.992" stroke="#FFC49C" stroke-width="2" stroke-linecap="round" stroke-linejoin="round"/>
<path d="M60.1584 168.968L54.1363 173.104" stroke="#FFC49C" stroke-width="2" stroke-linecap="round" stroke-linejoin="round"/>
<path d="M65.3711 170.954C63.757 173.142 62.307 175.447 61.033 177.849" stroke="#FFC49C" stroke-width="2" stroke-linecap="round" stroke-linejoin="round"/>
<path d="M72.6186 163.056L75.7031 158.584" stroke="#FFC49C" stroke-width="2" stroke-linecap="round" stroke-linejoin="round"/>
<path d="M61.4521 152.887C60.7224 152.294 60.0986 151.582 59.6075 150.781" stroke="#FFC49C" stroke-width="2" stroke-linecap="round" stroke-linejoin="round"/>
<path d="M56.1175 161.816C53.5208 160.708 50.9945 159.441 48.5529 158.022" stroke="#FFC49C" stroke-width="2" stroke-linecap="round" stroke-linejoin="round"/>
<path d="M162.995 305.535C163.924 306.882 165.077 308.071 165.944 309.457C166.915 311.205 167.721 313.04 168.351 314.938C170.227 319.705 172.928 324.108 176.33 327.944L176.311 325.43C182.991 332.005 181.957 343.484 187.888 350.724L187.615 349.621C188.987 350.914 190.423 352.148 191.908 353.311C192.199 353.512 192.553 353.756 192.873 353.595C193.193 353.434 192.835 352.792 192.611 353.066L201.043 363.514C200.834 363.648 200.642 363.237 200.858 363.074C201.075 362.911 201.338 363.035 201.565 363.144C205.293 364.882 208.908 366.854 212.388 369.047L211.215 367.381L221.337 373.645L220.054 369.495C220.151 369.663 220.282 369.81 220.438 369.925C220.594 370.04 220.773 370.121 220.962 370.164C221.151 370.206 221.347 370.208 221.537 370.171C221.727 370.133 221.908 370.056 222.066 369.945C218.127 367.221 214.702 363.82 211.952 359.9C212.252 360.937 212.783 361.894 213.505 362.697C211.001 360.804 208.731 358.62 206.743 356.192L208.233 359.721C206.04 357.348 203.98 354.856 202.062 352.257L202.509 356.86L194.394 341.376L195.041 345.133L191.572 340.182L191.351 342.472C190.773 341.135 190.055 339.864 189.208 338.678L188.889 339.813L184.993 333.479L185.136 334.735C183.98 329.106 182.571 323.541 180.908 318.041C180.578 316.922 180.121 315.681 179.069 315.187C179.154 318.411 179.448 321.627 179.951 324.814C178.093 321.201 176.043 317.689 173.812 314.293L174.327 316.373C171.172 310.583 168.798 304.403 167.269 297.993C167.603 297.946 167.392 298.622 167.068 298.503C166.744 298.384 166.686 297.962 166.691 297.618C166.715 296.244 166.881 294.876 167.185 293.536L164.812 296.658C166.43 292.701 168.432 288.913 170.79 285.348C170.79 285.348 167.864 285.483 167.577 285.563C166.512 285.898 165.509 286.402 164.607 287.057C162.968 288.315 161.789 290.077 161.253 292.072C160.499 294.298 160.265 296.668 160.567 299.001C160.869 301.334 161.699 303.569 162.995 305.535Z" fill="#ADF7BF"/>
<path d="M174.185 282.075C171.301 277.689 161.575 288.289 160.435 291.439C158.327 297.256 161.258 303.492 163.861 308.656C163.83 308.079 163.914 307.535 163.897 306.921L166.375 312.602C166.461 311.978 166.444 311.344 166.323 310.725L169.7 319.48L169.841 318.315L172.889 324.181C172.697 323.516 172.565 322.799 172.33 322.163C173.039 324.624 174.368 326.864 176.19 328.669C176.015 327.239 175.98 325.796 176.086 324.359C182.282 333.89 185.565 345.66 189.657 356.39L187.451 349.287L193.484 356.228L192.153 352.519C195.308 356.977 198.845 361.152 202.724 364.998C202.039 363.853 201.359 362.701 200.679 361.549L211.926 369.851C211.375 368.765 210.837 367.676 210.294 366.595C214.677 369.206 218.905 372.068 222.957 375.167L220.754 370.417C222.056 371.254 223.553 371.74 225.098 371.828L223.298 366.846C224.408 367.579 225.669 368.052 226.986 368.232C226.128 365.672 225.156 363.154 224.071 360.676C225.937 361.145 227.882 361.198 229.768 360.832L228.849 357.014C229.63 357.228 231.851 357.139 232.118 356.096C232.25 355.585 229.829 352.85 229.463 352.32C230.319 352.459 230.697 352.013 231.445 351.904L229.919 349.068C231.398 348.735 232.84 348.256 234.225 347.638L231.549 344.786L233.993 344.608C233.636 344.13 233.181 343.733 232.66 343.444C233.47 343.689 234.329 343.724 235.156 343.545C234.08 342.63 233.581 341.452 234.381 340.174C236.767 342.202 239.08 344.353 241.6 346.219" stroke="#20173B" stroke-width="2" stroke-linecap="round" stroke-linejoin="round"/>
<path d="M156.46 166.307C153.156 168.511 150.141 171.118 147.484 174.068C143.883 177.824 140.34 181.817 138.37 186.642C136.401 191.466 136.255 197.316 139.201 201.629C139.996 202.885 141.139 203.883 142.491 204.5C144.202 205.078 146.044 205.14 147.788 204.681C154.413 203.392 160.309 199.539 165.069 194.776C169.829 190.013 173.577 184.343 177.216 178.679C179.062 175.784 180.938 172.795 181.605 169.422C182.589 164.428 181.351 159.186 182.052 154.147C178.333 156.852 174.265 159.047 169.959 160.672C165.348 162.342 160.629 163.73 156.46 166.307Z" fill="#EECEEF"/>
<path d="M157.812 208.04C159.866 207.34 161.777 206.278 163.457 204.906C171.038 199.183 176.539 191.156 181.184 182.874C182.063 181.01 183.306 179.34 184.839 177.963C185.838 177.198 187.017 176.7 188.263 176.516C188.565 176.457 188.878 176.481 189.168 176.584C189.842 176.886 189.884 177.819 189.78 178.558C189.243 181.474 188.356 184.314 187.138 187.016C186.229 189.565 185.023 191.997 183.545 194.263C182.057 196.221 180.368 198.016 178.503 199.62C174.052 203.716 169.564 207.833 164.442 211.051C161.459 212.918 158.006 214.508 154.531 213.975C152.898 213.716 146.129 211.109 148.095 208.713C149.036 207.568 151.109 208.384 152.326 208.471C154.166 208.663 156.026 208.517 157.812 208.04Z" fill="#2AA8A8"/>
<path d="M138.914 231.684C138.615 233.855 138.011 235.972 137.12 237.972C135.917 240.143 134.401 242.124 132.622 243.854C129.775 246.904 126.875 249.998 123.225 252.007C120.608 253.444 117.497 254.285 114.625 253.485C110.225 252.256 107.574 247.464 107.583 242.839C107.593 238.214 109.54 233.977 111.78 230.023C113.983 225.817 116.787 221.956 120.105 218.56C123.268 215.62 126.849 213.163 130.731 211.266C132.794 210.212 142.542 204.478 142.542 204.478C142.542 204.478 140.861 217.316 140.624 219.746C140.185 223.75 139.615 227.729 138.914 231.684Z" fill="#EECEEF"/>
<path d="M118.214 220.359C115.035 224.731 111.368 229.391 109.001 234.254C111.008 236.495 113.131 238.735 115.909 239.875C117.658 240.497 119.482 240.887 121.332 241.034C121.757 241.117 122.196 241.103 122.614 240.992C122.901 240.875 123.165 240.708 123.395 240.5C125.978 238.341 128.223 235.807 130.054 232.983C130.601 232.195 131.073 231.358 131.465 230.483C131.828 229.544 132.108 228.575 132.302 227.587C133.186 223.612 133.909 219.602 134.469 215.559C134.532 215.225 134.54 214.882 134.494 214.545C134.368 214.104 134.138 213.699 133.823 213.365C133.034 212.429 132.154 211.573 131.196 210.811C125.847 213.062 121.736 215.471 118.214 220.359Z" fill="#20173B"/>
<path d="M145.353 177.275C139.64 182.597 137.68 190.252 137.458 197.81C137.443 198.372 137.345 198.929 137.167 199.462C137.167 199.462 137.237 199.511 137.269 199.532C137.799 199.973 138.368 200.365 138.968 200.704C139.86 201.143 140.802 201.474 141.772 201.689C142.687 202.004 143.656 202.134 144.621 202.068C145.815 201.815 146.918 201.25 147.818 200.429C153.675 195.843 158.392 189.997 163.059 184.208C163.545 183.655 163.964 183.047 164.309 182.396C164.568 181.777 164.757 181.13 164.872 180.469C165.214 179.284 165.325 178.043 165.198 176.815C164.749 175.11 163.845 173.558 162.583 172.325C161.108 170.514 159.49 168.825 157.743 167.274C153.424 170.366 149.287 173.706 145.353 177.275Z" fill="#20173B"/>
<path d="M156.598 166.46C153.306 168.654 150.3 171.247 147.65 174.182C144.049 177.938 140.478 181.971 138.541 186.748C136.604 191.525 136.42 197.43 139.366 201.743C140.161 202.999 141.304 203.997 142.656 204.614C144.368 205.192 146.209 205.254 147.953 204.795C154.578 203.506 160.474 199.653 165.234 194.89C169.994 190.127 173.742 184.457 177.382 178.793C179.227 175.898 181.104 172.909 181.77 169.536C182.754 164.541 181.516 159.3 182.218 154.261C178.5 156.97 174.432 159.165 170.124 160.786C165.493 162.535 160.78 163.915 156.598 166.46Z" stroke="#20173B" stroke-width="2" stroke-linecap="round" stroke-linejoin="round"/>
<path d="M139.052 231.838C138.752 234.009 138.15 236.127 137.266 238.131C136.056 240.297 134.538 242.277 132.76 244.007C129.913 247.057 127.013 250.151 123.363 252.16C120.747 253.597 117.635 254.438 114.763 253.638C110.363 252.409 107.713 247.617 107.695 243.032C107.677 238.446 109.651 234.169 111.891 230.215C114.094 226.01 116.898 222.148 120.216 218.752C123.379 215.813 126.96 213.355 130.842 211.459C132.905 210.404 142.653 204.67 142.653 204.67C142.653 204.67 140.977 217.501 140.735 219.939C140.303 223.909 139.742 227.875 139.052 231.838Z" stroke="#20173B" stroke-width="2" stroke-linecap="round" stroke-linejoin="round"/>
<path d="M77.7296 242.242C77.3377 242.053 76.9325 241.866 76.5327 241.672C74.7 241.925 72.9082 242.413 71.2012 243.123L77.7296 242.242Z" fill="#B7B2D9"/>
<path d="M145.345 207.685C148.197 208.619 151.217 208.925 154.196 208.581C157.175 208.237 160.042 207.252 162.6 205.693C167.135 202.905 170.418 198.651 173.66 194.438" stroke="#20173B" stroke-width="2" stroke-linecap="round" stroke-linejoin="round"/>
<path d="M143.615 206.793C146.798 216.097 147.703 225.103 146.24 232.812" stroke="#20173B" stroke-width="2" stroke-linecap="round" stroke-linejoin="round"/>
<path d="M117.044 237.59C116.469 236.759 116.201 235.756 116.285 234.751L116.146 231.436C116.112 231.182 116.153 230.925 116.262 230.694C116.397 230.499 116.586 230.348 116.806 230.259C119.265 228.967 121.973 228.214 124.75 228.051C124.613 229.585 124.45 231.117 124.262 232.646C124.096 234.014 124.178 235.865 123.601 237.122C122.725 239.065 118.35 239.012 117.044 237.59Z" fill="white"/>
<path d="M124.537 221.71C124.756 221.549 125 221.428 125.26 221.352C125.477 221.314 125.699 221.311 125.917 221.342C126.661 221.392 127.747 221.18 128.065 221.932C128.123 222.284 128.077 222.645 127.935 222.972C127.792 223.298 127.557 223.576 127.259 223.773C126.088 224.562 123.65 224.073 122.548 223.383C123.116 222.721 123.788 222.156 124.537 221.71Z" fill="white"/>
<path d="M150.5 183.766C149.168 183.937 147.866 184.289 146.631 184.814C146.021 185.076 145.472 185.46 145.016 185.941C144.56 186.423 144.207 186.993 143.979 187.616C143.8 188.446 143.699 189.291 143.677 190.14C143.58 190.988 143.349 191.812 143.23 192.657C143.039 193.667 143.221 194.713 143.741 195.603C145.88 198.745 150.283 194.129 151.399 192.225C151.995 191.151 152.385 189.975 152.549 188.757C152.902 187.204 152.643 185.574 151.823 184.204C151.7 184.011 151.527 183.855 151.322 183.754C151.052 183.681 150.767 183.685 150.5 183.766Z" fill="white"/>
<path d="M104.23 225.197C102.78 227.519 101.772 230.088 101.254 232.777C100.975 233.846 101.003 234.972 101.334 236.028C101.394 236.253 101.525 236.453 101.708 236.597C101.89 236.742 102.115 236.824 102.347 236.831C102.883 236.761 103.242 236.14 103.486 235.601L105.277 231.708C106.426 229.201 107.62 226.493 107.282 223.887C107.182 223.157 106.765 222.314 106.05 222.458C105.795 222.567 105.567 222.729 105.38 222.934C105.193 223.138 105.052 223.38 104.965 223.643L103.494 226.635" fill="white"/>
<path d="M137.114 172.507C139.064 170.261 141.262 168.242 143.667 166.491C144.213 166.069 145.035 165.652 145.531 166.144C145.844 166.465 145.808 166.972 145.706 167.423C144.819 171.604 141.436 174.573 138.781 177.698C137.582 179.116 136.716 181.298 135.353 182.5C133.483 184.15 133.646 180.396 133.84 179.291C134.333 176.786 135.461 174.451 137.114 172.507Z" fill="white"/>
<path d="M148.339 222.346C148.242 226.93 147.365 231.462 145.747 235.749C144.811 238.839 143.274 241.713 141.224 244.207C140.045 245.513 138.647 246.597 137.366 247.798C136.236 248.848 135.118 250.3 135.536 251.781C135.954 253.261 137.946 253.976 139.478 253.539C140.98 252.968 142.306 252.014 143.324 250.773C144.956 249.191 146.437 247.461 147.749 245.605C148.85 243.861 149.77 242.008 150.494 240.076C151.564 237.403 152.514 234.689 153.345 231.936C154.182 229.04 154.932 226.084 154.45 223.181C153.969 220.059 152.189 217.303 150.461 214.641C149.451 212.939 148.187 211.399 146.714 210.076C144.585 208.365 144.95 209.89 145.751 211.473C147.475 214.839 148.363 218.569 148.339 222.346Z" fill="#2AA8A8"/>
<path d="M136.996 166.417C140.685 160.92 145.607 156.362 151.373 153.103C157.139 149.845 163.59 147.977 170.212 147.648" stroke="#20173B" stroke-width="2" stroke-linecap="round" stroke-linejoin="round"/>
<path d="M112.59 214.037C109.511 217.748 106.584 221.583 103.807 225.542C101.81 228.437 99.7478 231.831 100.599 235.243" stroke="#20173B" stroke-width="2" stroke-linecap="round" stroke-linejoin="round"/>
<path d="M91.9816 210.404L89.5014 209.388" stroke="#20173B" stroke-width="2" stroke-linecap="round" stroke-linejoin="round"/>
<path d="M104.859 186.567L102.123 184.24" stroke="#20173B" stroke-width="2" stroke-linecap="round" stroke-linejoin="round"/>
<path d="M178.859 341.833C185.853 334.419 194.225 328.437 203.511 324.219C211.134 329.998 272.495 250.581 294.861 237.225C295.911 236.595 286.658 233.767 286.782 232.544C287.146 229.055 282.921 227.218 280.164 225.039C275.917 221.669 274.486 215.715 275.026 210.322C275.565 204.928 277.731 199.869 279.487 194.747C283.822 182.084 285.685 168.712 289.052 155.751C292.419 142.791 297.574 129.813 307.153 120.454C280.858 118.319 254.407 121.082 229.148 128.603C226.307 149.637 229.244 171.264 225.222 192.109C221.59 210.941 212.403 228.282 201.421 244.002C190.439 259.722 174.454 271.469 162.507 286.466C159.667 290.029 159.524 297.271 159.777 302.088C159.97 305.579 162.282 309.431 163.527 312.641C165.541 317.837 167.854 322.912 170.457 327.841C171.072 329.087 178.991 341.692 178.859 341.833Z" fill="#D678D6"/>
<path d="M170.026 275.246C168.677 276.003 167.613 277.18 166.995 278.597C167.724 280.501 170.093 281.359 172.106 281.034C174.101 280.553 175.951 279.602 177.501 278.26C201.052 260.628 219.421 237.059 236.315 212.971C239.021 209.048 241.727 205.126 243.505 200.679C245.283 196.233 245.888 191.232 244.392 186.703C243.636 184.433 242.377 182.303 242.112 179.909C241.491 173.622 247.965 169.184 250.76 163.517C251.026 163.06 251.164 162.539 251.161 162.01C251.108 161.245 250.527 160.623 250.211 159.92C249.077 157.424 251.282 154.765 253.293 152.91C250.343 152.644 247.56 151.412 245.377 149.407C243.848 148.005 242.66 146.26 241.201 144.79C238.599 142.184 235.219 140.536 231.897 138.94C230.248 138.15 228.356 137.342 226.656 138.022C225.135 138.628 224.301 140.241 223.691 141.766C221.773 146.556 220.758 151.662 220.698 156.825C220.639 161.658 221.427 166.474 221.324 171.301C221.145 175.098 220.685 178.875 219.95 182.602C218.687 189.987 217.395 197.397 215.075 204.515C205.922 232.68 182.14 253.256 166.542 278.412" fill="#57C8CE"/>
<path d="M226.003 131.042L232.588 125.904C228.84 124.656 224.897 124.098 220.953 124.259L224.41 120.762C221.27 120.744 218.161 121.357 215.267 122.566C212.374 123.774 209.754 125.552 207.566 127.795L207.271 127.986L209.935 123.131C204.364 127.821 199.161 132.928 194.37 138.41L195.179 135.553L191.419 139.709C192.053 138.908 190.676 137.807 189.755 138.249C189.189 138.589 188.778 139.137 188.61 139.775L188.476 139.683L189.005 135.416L186.941 137.466C187.145 136.365 186.968 135.227 186.439 134.237C185.796 133.319 184.179 133.072 183.653 134.052L181.852 128.248C181.373 129.173 180.662 129.96 179.79 130.531C178.806 128.775 177.817 127.028 176.842 125.278L175.871 128.082L172.729 121.041L172.51 127.755C171.777 122.786 171.612 117.751 172.018 112.747L168.701 124.155C168.877 122.957 168.622 121.735 167.98 120.706C167.959 120.778 167.919 120.843 167.865 120.895C167.811 120.947 167.744 120.984 167.671 121.002C167.028 121.161 166.486 120.532 166.118 119.989L162.797 115.058L160.207 119.975C159.028 115.52 158.284 110.962 157.984 106.366C156.338 109.442 155.124 112.731 154.377 116.14C151.836 113.373 149.721 110.245 148.103 106.856C148.119 109.245 148.428 111.624 149.022 113.939C147.191 112.362 145.984 110.182 145.621 107.796C145.579 111.539 145.286 115.275 144.745 118.978C144.16 119.153 143.598 119.345 143.028 119.565C141.061 117.481 139.338 115.177 137.895 112.702L137.161 118.343C135.196 116.143 133.226 113.95 131.261 111.75L134.356 120.912C132.616 118.705 130.884 116.503 129.15 114.288C130.854 118.255 131.245 122.659 130.268 126.857L126.566 124.06L127.111 131.383C125.877 130.092 124.651 128.806 123.422 127.507C124.287 130.339 124.778 133.27 124.884 136.227L124.581 136.666C123.336 135.821 122.242 134.773 121.345 133.565L121.7 137.527C119.547 136.642 117.757 135.052 116.625 133.019L118.885 142.972C117.311 141.909 115.977 140.528 114.971 138.918L116.996 146.636C114.236 145.551 111.729 143.908 109.632 141.811C111.024 144.786 111.972 147.949 112.446 151.197C110.748 150.672 109.196 149.756 107.916 148.523L109.329 153.863C107.863 153.06 106.394 152.244 104.92 151.436L109.008 161.399C106.083 159.798 103.164 158.19 100.239 156.589L108.879 168.974C107.43 168.74 106.121 167.973 105.207 166.824C106.387 168.228 107.585 169.622 108.759 171.033C109.407 171.423 110.056 171.812 110.71 172.194C110.611 173.55 110.54 174.914 110.476 176.27C109.88 177.133 109.035 178.089 108.122 177.645C107.853 178.804 107.199 179.838 106.267 180.578C105.336 181.318 104.18 181.721 102.988 181.722C102.596 181.683 102.199 181.72 101.821 181.832C101.388 181.534 100.981 181.183 100.575 180.845C100.074 180.662 99.5684 180.486 99.0624 180.311L101.198 184.435L92.8283 184.451L95.1411 186.047L94.852 186.079L88.683 185.378C89.0896 185.832 89.4986 186.3 89.9052 186.754C89.7242 186.814 89.5462 186.853 89.3574 186.908L87.5426 187.486L84.0624 187.482C84.3337 187.762 84.6051 188.042 84.8819 188.314L84.4802 188.442C85.1252 189.072 85.7755 189.694 86.426 190.317L83.8156 190.97L82.5734 190.97L85.0031 193.086C85.0889 193.246 85.1653 193.411 85.2317 193.58C83.9455 193.653 82.6697 193.851 81.4224 194.171L76.5779 194.731C77.0013 194.942 77.0414 195.456 76.8579 195.874C76.8044 196.057 76.6855 196.215 76.5234 196.316C76.3613 196.418 76.1674 196.457 75.9785 196.425C78.4852 197.833 80.8367 199.501 82.9936 201.403L81.0895 201.386C81.3255 201.549 81.5615 201.712 81.7975 201.874L75.3713 200.116C78.3831 201.36 81.3836 202.592 84.3729 203.813C84.9629 204.22 85.5608 204.632 86.1586 205.044C81.2746 204.705 76.3727 204.734 71.4948 205.13L71.6837 205.26C71.0739 205.303 70.4641 205.345 69.8489 205.396C70.5968 205.692 71.3526 205.993 72.1137 206.286C71.1267 206.343 70.149 206.507 69.1984 206.776C67.4154 206.795 65.6376 206.963 63.8834 207.278C65.517 207.889 67.0897 208.652 68.5805 209.557L70.3037 211.267L69.4298 211.44C67.778 211.562 66.1207 211.693 64.461 211.81C67.2841 214.603 70.9486 216.39 74.886 216.893C74.9176 216.909 74.9468 216.929 74.9725 216.953C73.4276 217.168 72.0126 217.93 70.9843 219.1L76.6888 220.221C73.1936 223.322 68.8605 225.326 64.2282 225.983C68.5159 227.317 72.9777 228.002 77.4653 228.016L64.8218 231.417C69.4274 231.82 73.91 233.129 78.0112 235.27L68.4443 237.829L76.6984 241.751C81.3278 241.074 86.0567 241.876 90.2099 244.043L82.9782 247.391C87.3135 247.24 91.6316 248.04 95.6281 249.737L89.5825 249.85C96.498 250.906 103.111 253.427 108.979 257.243C106.272 260.541 104.69 264.618 104.463 268.882C104.236 273.146 105.376 277.374 107.717 280.953L106.926 277.27C107.009 277.385 107.092 277.5 107.181 277.607L110.707 286.246L109.857 282.429L113.773 288.534L113.345 285.923C113.783 286.289 114.242 286.629 114.72 286.941C116.071 289.309 117.435 291.673 118.794 294.046L118.317 290.024C119.845 291.495 121.386 292.963 122.914 294.434L122.293 291.968C122.419 292.055 122.553 292.147 122.679 292.234C123.357 292.934 124.075 293.66 124.764 294.378C124.597 294.031 124.457 293.671 124.345 293.302C124.809 293.622 125.301 293.903 125.776 294.208C126.992 296.508 128.375 298.715 129.914 300.814L128.717 296.086C128.783 296.126 128.846 296.169 128.906 296.217C129.902 298.7 131.478 300.911 133.503 302.664C132.893 300.776 132.445 298.841 132.165 296.878C132.465 296.611 132.619 296.219 132.946 295.981C133.158 295.787 133.425 295.664 133.711 295.629L137.194 302.176L137.839 294.274C139.274 295.773 140.707 297.275 142.138 298.779C142.013 298.573 141.964 298.33 142.001 298.093C142.037 297.855 142.156 297.638 142.337 297.48L142.28 297.244C141.216 295.874 140.185 294.491 139.111 293.136C138.791 292.734 138.594 292.248 138.543 291.737C138.291 291.413 138.039 291.089 137.792 290.756C137.135 290.025 136.478 289.295 135.816 288.571C135.603 288.345 135.441 288.075 135.34 287.78L135.151 287.904C134.992 288.388 134.675 288.805 134.251 289.087C133.826 289.37 133.319 289.502 132.81 289.462L132.626 289.729C132.166 288.744 131.971 287.656 132.063 286.573C131.963 287.51 132.075 288.458 132.391 289.346C131.88 288.448 131.216 287.645 130.428 286.974L130.424 289.286C129.996 288.965 129.495 288.754 128.966 288.674L128.904 290.345C128.201 289.439 127.36 288.647 126.412 288.001L126.569 289.186L120.675 281.994C121.116 283.072 121.458 284.188 121.696 285.327C120.936 284.444 120.202 283.555 119.492 282.649C118.977 280.892 118.791 279.057 118.943 277.234L118.35 279.592C118.11 278.813 117.883 278.031 117.642 277.252C117.137 278.612 116.926 280.065 117.024 281.514C116.346 280.814 115.738 280.05 115.209 279.232L114.908 280.761L113.551 277.174C113.635 277.669 113.539 278.178 113.282 278.609L112.584 274.654C112.53 274.362 112.43 274.003 112.129 273.935C112.1 273.928 112.07 273.928 112.042 273.934C112.013 273.94 111.987 273.953 111.964 273.972C111.871 271.999 112.06 270.025 112.526 268.107C112.536 268.531 111.823 268.572 111.611 268.206C111.538 268.009 111.508 267.799 111.524 267.59C111.54 267.381 111.601 267.178 111.703 266.995C111.802 266.81 111.859 266.606 111.871 266.397C111.883 266.187 111.85 265.977 111.773 265.782C111.421 266.829 110.862 267.794 110.129 268.619C111.035 266.03 112.221 263.548 113.667 261.218L112.103 263.486C111.865 263.09 111.628 262.694 111.384 262.306L110.058 263.893C110.552 262.086 111.215 260.33 112.039 258.648C111.67 258.66 111.303 258.418 111.35 258.08C111.682 257.736 112.116 257.508 112.589 257.429L112.838 257.069C112.555 257.58 112.274 258.104 112.015 258.632C112.157 258.631 112.296 258.584 112.409 258.498C112.582 258.3 112.711 258.069 112.79 257.819C112.869 257.568 112.895 257.304 112.867 257.043L113.463 256.296C112.779 255.824 112.06 255.386 111.426 254.891C111.426 254.891 111.379 254.858 111.355 254.842C111.174 254.717 111.001 254.598 110.828 254.478C110.756 254.412 110.688 254.342 110.625 254.268C108.831 253.217 106.956 252.282 105.135 251.27C104.725 251.062 104.396 250.723 104.203 250.306C104.01 249.889 103.964 249.419 104.072 248.973C103.97 248.903 103.86 248.827 103.758 248.756C103.486 248.57 103.257 248.329 103.085 248.049L103.687 248.001C102.625 247.268 101.562 246.536 100.52 245.759L102.263 246.058C100.52 244.992 98.6727 244.106 96.7504 243.414C94.5085 241.661 92.1375 240.079 89.6576 238.683C90.1483 238.813 90.6337 238.951 91.1402 239.092C89.7668 238.458 88.4014 237.828 87.0305 237.207C87.3594 237.05 87.6414 236.809 87.8485 236.509C87.0147 235.934 86.1886 235.364 85.3193 234.857C85.3338 234.829 85.3521 234.803 85.3735 234.779C85.1296 234.611 84.8857 234.443 84.604 234.329C84.6553 234.318 84.7037 234.297 84.746 234.266C84.7883 234.235 84.8236 234.195 84.8495 234.15C84.8755 234.104 84.8913 234.054 84.8963 234.002C84.9013 233.95 84.8952 233.897 84.8784 233.847C84.7344 233.551 84.3593 233.489 84.0377 233.383C83.8437 233.339 83.6649 233.243 83.5199 233.107C83.4774 232.983 83.4447 232.856 83.4222 232.727C83.5274 232.612 83.5992 232.47 83.6299 232.318C83.6606 232.165 83.649 232.006 83.5964 231.859C83.5438 231.712 83.4523 231.582 83.3315 231.483C83.2106 231.384 83.0651 231.32 82.9106 231.297C83.031 231.184 83.12 231.041 83.1686 230.883C83.2171 230.725 83.2236 230.557 83.1875 230.396C83.1514 230.234 83.0739 230.085 82.9626 229.962C82.8513 229.839 82.71 229.747 82.5526 229.696C82.807 229.659 83.0459 229.552 83.2421 229.387C83.4384 229.221 83.5841 229.004 83.6627 228.759L82.3411 227.848L83.4722 227.47C83.4093 227.107 83.2484 226.768 83.0069 226.49C82.7655 226.211 82.4527 226.003 82.1021 225.888L84.6965 224.332C84.1923 223.793 83.5778 223.369 82.895 223.089C83.6549 222.93 83.4767 221.707 82.8479 221.239C82.219 220.771 81.3555 220.592 80.9362 219.92C81.2844 220.007 81.6462 220.023 82.0002 219.967C82.3541 219.911 82.693 219.783 82.9963 219.593L82.0857 218.826C82.4671 218.856 82.8454 218.74 83.1446 218.503C82.6521 217.965 82.0675 217.518 81.4183 217.185C82.4206 216.765 83.256 216.027 83.7955 215.085C82.5555 214.577 81.31 214.077 80.0645 213.577L81.589 213.47C79.5597 212.592 77.5359 211.705 75.5066 210.827L83.8113 211.09C85.39 211.674 87.0284 212.082 88.6962 212.306C87.9443 212.1 87.1979 211.886 86.4514 211.672L88.086 211.642C87.8456 211.683 87.609 211.745 87.3788 211.826L88.5311 211.636L89.8982 211.607C89.6113 211.561 89.3206 211.542 89.0303 211.552L92.7314 210.933L90.3433 211.601C93.1582 211.071 95.8792 210.131 98.4196 208.812L95.7085 207.105C96.0571 206.986 96.4059 206.868 96.7522 206.736C96.0886 206.265 95.3691 205.877 94.6104 205.583C95.0542 205.718 95.5225 205.753 95.9808 205.683C94.1377 204.706 92.2433 203.828 90.3061 203.054C91.2193 203.333 92.185 203.392 93.1243 203.227L88.6305 200.266L95.5789 200.543C94.6759 200.178 93.7244 199.947 92.7549 199.857L95.56 199.477C95.1999 199.114 94.7592 198.842 94.2738 198.682L96.0551 198.22C95.7679 197.765 95.3393 197.417 94.8352 197.228C95.8118 197.244 96.7752 197.007 97.6315 196.541C97.1792 196.321 96.7583 196.123 96.2799 195.875C98.2603 195.838 100.227 195.544 102.13 195.001C101.498 194.958 100.857 194.91 100.236 194.852C101.947 194.495 103.632 194.025 105.281 193.446C104.419 193.129 103.566 192.819 102.707 192.515L106.081 191.983L104.839 190.872C105.688 191.104 106.585 191.097 107.429 190.852C107.574 190.828 107.71 190.768 107.825 190.677C107.94 190.587 108.031 190.469 108.088 190.334C108.1 190.259 108.083 190.181 108.041 190.117C108.16 190.131 108.279 190.113 108.389 190.067C108.645 189.931 108.676 189.466 108.404 189.406L109.623 189.54C109.352 188.566 108.98 187.622 108.512 186.725C108.896 187.059 109.278 187.381 109.655 187.71L108.788 185.028C109.167 185.58 109.711 186 110.341 186.227C110.391 185.741 110.333 185.251 110.172 184.79C110.258 184.926 110.368 185.045 110.497 185.142C110.39 184.45 110.132 183.79 109.742 183.208C110.214 183.24 110.687 183.162 111.123 182.982C111.56 182.801 111.949 182.522 112.26 182.166C111.654 181.748 111.048 181.331 110.405 180.968L111.976 180.894C111.64 180.384 111.19 179.959 110.662 179.652C110.948 179.292 111.316 179.006 111.736 178.818C111.48 178.693 111.244 178.53 111.036 178.335L114.18 179.601L114.156 175.833L112.642 176.63L112.696 176.551L114.344 175.592C113.943 175.18 113.631 174.69 113.429 174.152C113.226 173.614 113.138 173.04 113.169 172.466L114.664 170.163L113.579 167.933C113.954 168.08 114.363 168.121 114.759 168.051C115.156 167.981 115.525 167.803 115.826 167.537C115.364 166.709 114.902 165.881 114.434 165.061C115.065 165.461 115.792 165.686 116.538 165.713C116.875 164.374 116.708 162.957 116.069 161.731C116.596 162.077 117.191 162.306 117.814 162.402C118.437 162.498 119.073 162.459 119.679 162.287C119.157 161.038 118.381 159.911 117.399 158.978C118.15 159.774 119.231 158.157 118.811 157.15C118.391 156.143 117.461 155.119 117.878 154.11C118.07 154.391 118.334 154.616 118.642 154.761C118.95 154.906 119.291 154.967 119.63 154.936L120.723 150.642C121.223 151.23 121.725 151.831 122.22 152.427C122.97 150.513 123.203 148.433 122.895 146.398C123.522 147.6 124.331 148.697 125.295 149.651L126.135 143.283L127.177 146.318L129.164 137.882L129.309 140.297C130.797 135.605 132.972 131.159 135.762 127.104L134.952 136.525C136.197 134.383 137.127 132.072 137.711 129.664L137.762 132.014L140.19 128.225L139.581 130.791L142.685 126.796C142.48 127.144 142.346 127.53 142.293 127.931C142.24 128.332 142.268 128.74 142.375 129.13L146.939 125.122C147.606 126.854 147.988 128.682 148.071 130.534L149.667 128.22L151.362 132.411C152.295 131.542 152.903 130.381 153.086 129.12L153.475 131.703L156.113 126.785L155.856 130.659C156.571 128.645 157.632 126.772 158.99 125.122C159.366 126.98 160.131 128.739 161.235 130.283L160.872 127.173C161 127.515 161.201 127.825 161.462 128.081C161.723 128.337 162.037 128.533 162.382 128.654L162.425 127.109C163.469 128.469 164.52 129.835 165.579 131.206C165.535 130.624 165.614 130.04 165.809 129.491C166.004 128.942 166.311 128.44 166.711 128.016C166.471 130.994 166.672 133.992 167.307 136.914L169.7 133.713L169.415 138.773L172.633 136.952L172.606 138.589L178.429 139.387L177.193 141.903C178.336 141.459 179.402 140.839 180.353 140.065L178.833 142.791C178.894 142.75 178.964 142.721 179.037 142.707C179.109 142.693 179.184 142.694 179.257 142.71C179.33 142.725 179.399 142.755 179.46 142.798C179.52 142.841 179.572 142.895 179.612 142.958C179.668 143.164 179.669 143.381 179.614 143.588C179.56 143.794 179.452 143.982 179.301 144.133L182.889 141.641C182.582 141.861 182.328 142.146 182.144 142.476C181.961 142.806 181.853 143.172 181.828 143.549C182.628 142.771 183.652 142.263 184.757 142.096C184.703 142.959 184.424 143.792 183.949 144.514C184.179 145.161 184.602 145.723 185.159 146.125C185.408 146.274 185.7 146.336 185.987 146.298C186.274 146.261 186.54 146.127 186.741 145.919C186.702 146.378 187.763 146.844 187.82 146.189L188.831 150.058C190.632 147.783 192.561 145.611 194.607 143.553L191.183 149.006C193.83 145.59 196.662 142.322 199.666 139.215L196.174 144.159C201.582 137.311 207.779 131.124 214.636 125.725C214.654 125.732 214.67 125.743 214.683 125.758C212.807 127.629 211.115 129.676 209.63 131.871L211.71 130.538L209.843 133.245C213.074 131.081 216.811 129.79 220.694 129.498L217.683 132.551L221.979 131.775L219.308 135.177L221.963 134.693L219.64 136.564C220.94 136.001 222.336 135.691 223.753 135.649C222.148 136.494 220.671 137.56 219.363 138.816L224.624 138.241L222.481 140.827C225.115 140.104 227.919 140.291 230.437 141.36L228.835 142.084L235.798 142.256C235.846 142.383 235.884 142.513 235.912 142.646L235.611 142.729L239.31 143.509L236.231 145.785L238.867 147.012C238.491 147.134 238.145 147.333 237.85 147.596C237.554 147.858 237.317 148.18 237.153 148.539C240.251 150.363 243.927 150.94 247.43 150.151C247.409 149.485 247.321 148.823 247.167 148.175C248.337 147.825 249.524 147.485 250.718 147.151C250.024 145.851 248.143 145.514 246.698 144.9C245.253 144.285 244.048 141.589 245.684 141.085C243.745 139.587 241.497 138.537 239.105 138.012C236.712 137.487 234.234 137.5 231.849 138.05C234.437 136.426 237.386 135.462 240.437 135.244C235.797 133.548 231.038 132.2 226.199 131.212C226.148 131.14 226.081 131.081 226.003 131.042ZM109.902 258.749C110.157 258.541 110.457 258.395 110.777 258.322L109.271 260.304L109.902 258.749ZM195.573 141.278C195.248 141.84 194.754 142.285 194.161 142.55C194.045 142.579 193.925 142.593 193.805 142.594L196.33 139.994L197.273 138.896L195.573 141.278Z" fill="#ADF7BF"/>
<path d="M161.128 288.768C160.919 291.495 160.004 294.117 159.655 296.829C159.244 300.917 159.794 305.047 161.262 308.89C162.731 312.71 164.494 316.412 166.535 319.96L178.915 342.844C179.282 340.937 180.294 339.215 181.781 337.967C183.201 336.631 184.788 335.56 186.122 334.165C187.065 332.991 188.111 331.903 189.246 330.913C190.146 330.301 191.12 329.806 192.144 329.439C198.176 327.023 204.364 324.564 210.859 324.321" stroke="#20173B" stroke-width="2" stroke-linecap="round" stroke-linejoin="round"/>
<path d="M257.857 155.618L250.14 155.899C249.505 155.931 248.869 155.914 248.237 155.848L246.02 158.742L246.718 157.915C246.44 158.231 246.248 158.613 246.162 159.025C246.135 159.172 246.14 159.322 246.175 159.467C246.21 159.612 246.275 159.749 246.365 159.868C246.455 159.986 246.569 160.085 246.7 160.158C246.83 160.231 246.974 160.276 247.123 160.29L248.684 158.97L248.504 162.968C248.38 163.172 248.245 163.368 248.098 163.556C247.886 164.414 247.455 165.201 246.846 165.842C246.969 165.195 247.214 164.578 247.567 164.023L243.858 168.945L244.212 168.112C242.082 171.118 239.78 173.999 237.319 176.742L243.556 170.461C241.265 173.512 239.14 176.643 237.181 179.854L238.516 181.168C239.068 180.669 239.693 180.257 240.369 179.945C240.448 179.999 240.526 180.054 240.605 180.108L237.315 184.878L238.31 184.175C237.059 185.706 236.033 187.408 235.265 189.23C236.296 187.34 237.814 185.761 239.662 184.656C238.151 185.74 236.881 187.125 235.932 188.724C234.983 190.322 234.376 192.101 234.148 193.947C235.441 192.073 236.941 190.35 238.619 188.811C238.847 189.316 238.928 189.875 238.853 190.423C238.779 190.971 238.552 191.488 238.198 191.913C240.22 190.649 242.431 189.716 244.748 189.148L241.745 193.502L243.441 193.248L240.71 196.366C241.535 195.52 242.25 194.574 242.838 193.55C240.77 194.335 238.874 195.512 237.255 197.016L237.976 195.835C236.403 197.274 234.896 198.781 233.453 200.357C233.897 200.257 234.301 200.028 234.615 199.699C233.042 201.979 231.566 204.327 230.187 206.741C230.304 206.692 230.431 206.675 230.557 206.69C230.682 206.706 230.802 206.754 230.903 206.829C231.005 206.905 231.084 207.006 231.135 207.122C231.185 207.238 231.205 207.365 231.191 207.491C232.347 207.047 233.572 206.803 234.811 206.77C233.902 207.461 232.887 208 231.806 208.367C232.427 208.138 233.104 208.109 233.744 208.282C234.383 208.456 234.953 208.824 235.375 209.335C234.08 210.469 232.855 211.682 231.709 212.966L233.383 211.701L230.129 215.813L231.367 215.046C229.994 217.256 228.293 219.245 226.323 220.944L227.704 220.508L223.969 223.616C222.604 225.481 220.948 227.114 219.065 228.454L222.873 227.225C216.445 230.623 211.402 236.148 208.608 242.857C208.578 242.983 208.52 243.1 208.439 243.2C208.358 243.3 208.255 243.381 208.138 243.436C208.062 243.442 207.986 243.422 207.923 243.378C207.86 243.335 207.814 243.271 207.792 243.198C207.589 244.309 207.141 245.36 206.482 246.276C206.22 246.015 205.967 245.76 205.701 245.506L204.405 248.479C204.093 248.382 203.81 248.211 203.578 247.981C203.347 247.751 203.175 247.468 203.076 247.158C202.953 248.9 202.47 250.597 201.658 252.142C200.883 251.226 200.243 250.204 199.758 249.107L197.007 254.156C197 254.067 196.962 253.984 196.9 253.92C196.838 253.856 196.756 253.816 196.667 253.806C196.347 253.816 196.13 254.13 195.962 254.408L194.249 257.313L193.493 255.715L191.591 258.675C191.331 259.051 190.483 259.069 190.748 258.719C190.342 259.48 190.106 260.321 190.058 261.184C189.7 261.029 189.336 260.883 188.973 260.736L188.948 262.456C188.778 262.474 188.607 262.446 188.452 262.375C188.296 262.305 188.162 262.194 188.064 262.054C188.383 262.854 188.703 263.653 189.028 264.444L187.65 263.563C187.842 263.891 187.955 264.258 187.983 264.636C188.01 265.014 187.949 265.393 187.806 265.744C187.116 265.455 186.534 264.956 186.143 264.318C185.815 265.803 185.212 267.214 184.366 268.476L183.492 267.353C183.236 268.567 182.621 269.676 181.727 270.535C181.41 270.085 181.094 269.635 180.772 269.193C180.211 270.211 179.838 271.322 179.67 272.474C179.199 272.011 178.831 271.454 178.592 270.839L177.05 274.302L176.041 273.258C175.645 273.529 175.625 274.13 175.722 274.578C175.877 275.037 175.852 275.537 175.651 275.977C175.375 276.377 174.561 276.278 174.61 275.803L174.128 277.462C173.023 277.179 171.896 276.994 170.759 276.909C170.781 276.926 170.796 276.949 170.803 276.975C170.811 277 170.809 277.028 170.799 277.053C170.494 276.884 170.155 276.783 169.806 276.759C169.458 276.735 169.109 276.788 168.783 276.913L169.542 278.489C167.728 278.781 165.886 278.859 164.053 278.721C164.284 279.077 164.509 279.441 164.747 279.802C163.52 279.995 162.265 279.919 161.069 279.58C161.265 280.008 161.34 280.48 161.287 280.947C160.51 280.784 159.763 280.496 159.078 280.094L158.921 281.364L157.183 280.165C156.3 281.534 155.541 282.978 154.914 284.481C154.385 283.986 153.995 283.362 153.783 282.671L152.331 284.877C152.273 284.975 152.195 285.059 152.102 285.124C152.002 285.167 151.891 285.175 151.786 285.148C151.681 285.122 151.587 285.061 151.519 284.977C151.387 284.805 151.294 284.606 151.247 284.395C150.929 284.818 150.671 285.283 150.48 285.776C150.204 285.586 149.969 285.355 149.736 285.171L149.905 285.936C149.545 285.583 149.216 285.252 148.819 284.885C148.74 285.572 148.685 286.24 148.583 286.911L148.359 287L148.306 288.12L148.471 288.049C148.305 289.973 148.15 291.88 148.048 293.813C148.303 294.229 148.511 294.672 148.67 295.133L150.245 290.998C150.979 292.442 159.655 287.925 161.8 287.39C167.117 286.054 172.255 284.09 177.106 281.542C182.088 278.937 186.742 275.749 190.97 272.047C192.292 270.887 202.484 261.801 201.649 260.217L204.487 265.579C204.826 264.289 204.913 262.946 204.743 261.622C206.271 263.093 207.804 264.556 209.325 266.021C209.839 262.631 210.074 259.204 210.03 255.775C211.369 256.56 212.709 257.345 214.053 258.122L211.649 252.283C214.253 252.323 216.834 251.806 219.219 250.767L214.118 247.306C218.193 246.283 222.044 244.526 225.485 242.121L220.964 240.091C228.023 236.59 232.769 229.709 236.147 222.522C239.525 215.336 241.713 207.721 245.421 200.762C248.677 194.729 253.076 187.309 249.113 181.692C251.755 180.321 254.596 179.371 257.534 178.876C255.702 177.254 253.356 176.334 250.912 176.279C248.468 176.225 246.087 177.039 244.192 178.576L252.105 170.268C252.397 170.038 252.634 169.744 252.796 169.409C252.959 169.074 253.044 168.707 253.045 168.334C253.009 168.159 252.912 168.001 252.77 167.89C254.052 165.819 255.579 163.91 257.319 162.205C256.149 161.78 254.977 161.342 253.796 160.933C254.921 158.998 256.285 157.212 257.857 155.618ZM248.515 162.952L249.327 159.182C249.389 160.476 249.116 161.764 248.536 162.921L248.515 162.952Z" fill="#2AA8A8"/>
<path d="M150.298 290.988L148.723 295.123C148.363 294.146 147.842 293.034 146.823 292.829C145.803 292.623 144.978 294.393 145.98 294.656C146.983 294.919 146.598 292.767 145.767 293.282L145.088 296.808L143.353 294.071L143.63 298.198C143.649 298.034 143.625 297.867 143.56 297.714C143.494 297.561 143.391 297.428 143.258 297.328C143.126 297.227 142.97 297.163 142.805 297.141C142.641 297.119 142.473 297.14 142.32 297.202C142.17 297.273 142.042 297.381 141.947 297.517C141.853 297.652 141.795 297.81 141.78 297.974C141.764 298.139 141.792 298.305 141.86 298.456C141.929 298.607 142.035 298.737 142.169 298.835L137.666 294.12L137.021 302.023L131.623 291.873C131.635 295.485 132.211 299.073 133.33 302.51C130.744 300.278 128.901 297.311 128.051 294.006L129.736 300.668C127.387 297.491 125.403 294.06 123.823 290.441C123.744 291.751 124.01 293.06 124.594 294.238L122.052 291.628L122.765 294.331L118.168 289.921L118.644 293.943L112.874 283.896L113.629 288.423L109.713 282.318L110.563 286.135L106.658 276.564L107.573 280.842C105.232 277.263 104.092 273.035 104.319 268.771C104.546 264.508 106.128 260.431 108.835 257.133C102.967 253.316 96.354 250.796 89.4384 249.739L95.4841 249.626C91.4901 247.93 87.1744 247.131 82.8421 247.285L90.0658 243.932C87.1761 242.426 83.9923 241.571 80.7391 241.428C77.486 241.284 74.2429 241.856 71.2386 243.102L77.7669 242.222L68.316 237.729L77.8829 235.17C73.7817 233.029 69.2991 231.72 64.6935 231.317L77.3369 227.916C72.8494 227.902 68.3875 227.217 64.0998 225.883C68.732 225.226 73.0653 223.222 76.5605 220.121L70.856 219C71.9158 217.781 73.3957 217.004 75.0034 216.824C70.9759 216.362 67.2185 214.558 64.3381 211.702L71.0807 211.201C68.8523 209.504 66.3855 208.146 63.7605 207.17C67.1866 206.543 70.6952 206.498 74.1395 207.035L69.726 205.288C75.6191 204.722 81.5497 204.635 87.4593 205.027L75.2429 200.016L84.2439 202.485C81.7385 200.076 78.9345 197.998 75.9008 196.302C76.7559 196.51 77.3214 194.966 76.5057 194.6L85.6109 193.552L82.5012 190.84L87.4222 190.842L84.03 187.344L90.498 187.325L88.627 185.224L95.1951 185.968L92.7722 184.297L101.142 184.281L99.0063 180.157L104.777 182.192L103.221 176.858L106.395 179.14L105.897 174.93C106.819 175.979 108.039 176.723 109.394 177.064C108.657 175.456 109.047 172.517 110.7 173.218L105.175 166.686C106.088 167.835 107.398 168.602 108.846 168.836L100.207 156.451L108.975 161.261L104.888 151.298L109.297 153.725L107.883 148.385C109.164 149.618 110.715 150.534 112.413 151.058C111.94 147.81 110.992 144.648 109.599 141.673C111.696 143.77 114.204 145.413 116.964 146.498L114.939 138.779C115.945 140.39 117.278 141.771 118.853 142.834L116.593 132.881C117.724 134.914 119.514 136.504 121.668 137.389L121.312 133.427C122.291 134.755 123.509 135.889 124.903 136.772C124.843 133.588 124.339 130.427 123.405 127.38L127.094 131.256L126.549 123.933L130.251 126.729C131.228 122.531 130.837 118.128 129.133 114.161L134.339 120.785L131.252 111.628L137.158 118.214L137.886 112.58C139.665 115.642 141.867 118.439 144.426 120.889C145.172 116.523 145.569 112.104 145.612 107.674C145.975 110.06 147.182 112.24 149.013 113.817C148.422 111.501 148.114 109.123 148.094 106.735C149.712 110.123 151.827 113.251 154.368 116.018C155.116 112.609 156.33 109.321 157.975 106.245C158.275 110.841 159.019 115.398 160.198 119.853L162.788 114.936L166.109 119.867C166.477 120.41 167.024 121.031 167.662 120.88C168.3 120.73 167.933 119.411 167.436 119.844C167.943 120.407 168.318 121.075 168.535 121.799C168.752 122.523 168.806 123.287 168.692 124.033L172.01 112.625C171.603 117.629 171.768 122.664 172.501 127.633L172.72 120.919L175.862 127.96L176.833 125.156L179.781 130.409C180.654 129.838 181.364 129.052 181.843 128.126L183.644 133.93C184.17 132.95 185.787 133.197 186.431 134.115C186.959 135.105 187.136 136.243 186.932 137.344L188.996 135.294L188.311 140.68C188.537 139.679 188.84 138.567 189.752 138.12C190.664 137.672 192.049 138.778 191.415 139.58L195.176 135.423L194.371 138.273C199.162 132.794 204.364 127.689 209.932 123.001L207.173 128.045C209.374 125.682 212.043 123.802 215.011 122.523C217.979 121.244 221.182 120.595 224.417 120.616L220.96 124.113C224.904 123.953 228.847 124.511 232.595 125.759L225.932 130.958C230.828 131.944 235.643 133.295 240.337 135.001C237.286 135.22 234.338 136.183 231.75 137.807C234.134 137.257 236.612 137.244 239.005 137.769C241.398 138.294 243.645 139.344 245.584 140.843C243.948 141.347 245.019 143.985 246.598 144.657C248.178 145.33 250.31 145.655 250.8 147.301C249.257 147.781 247.842 148.601 246.66 149.701L254.772 151.742L250.601 155.719C253.262 155.118 256.001 154.934 258.721 155.173C256.503 156.891 254.461 158.826 252.625 160.948L258.828 161.128L251.482 167.94C251.615 167.209 252.935 167.517 253.033 168.234C253.032 168.606 252.947 168.973 252.784 169.308C252.622 169.643 252.386 169.937 252.094 170.168L244.184 178.605C246.079 177.068 248.46 176.254 250.904 176.308C253.347 176.363 255.694 177.283 257.526 178.904C254.588 179.4 251.747 180.35 249.105 181.721C253.067 187.338 248.669 194.758 245.413 200.791C241.681 207.734 239.461 215.395 236.139 222.551C232.816 229.707 228.033 236.643 220.956 240.12L225.476 242.15C222.036 244.555 218.184 246.312 214.11 247.335L219.211 250.796C216.826 251.835 214.245 252.352 211.64 252.312L214.04 258.158L210.03 255.775C210.09 259.195 209.871 262.614 209.375 265.998L204.794 261.599C204.963 262.923 204.876 264.266 204.537 265.556L201.699 260.194C202.535 261.778 192.343 270.864 191.02 272.024C186.792 275.727 182.139 278.914 177.157 281.519C172.306 284.067 167.168 286.031 161.851 287.367C159.686 287.947 151.041 292.485 150.298 290.988Z" stroke="#20173B" stroke-width="2" stroke-linecap="round" stroke-linejoin="round"/>
<path d="M146.835 255.58C166.618 236.645 183.8 214.747 195.715 190.084C198.37 184.552 200.893 178.755 205.302 174.502C205.603 174.147 205.973 173.856 206.389 173.648C206.806 173.44 207.261 173.319 207.727 173.292C208.658 173.355 209.451 174.562 208.846 175.221C210.649 173.767 213.462 175.059 214.766 176.989C216.922 180.108 216.732 184.238 216.2 187.97C215.611 192.404 214.748 196.797 213.617 201.124C212.343 206.349 210.401 211.387 207.84 216.115C204.744 221.563 200.525 226.283 196.343 230.947L185.62 242.909C178.913 250.394 172.14 257.925 163.999 263.887C159.448 267.22 154.557 269.161 149.085 266.996C142.894 264.509 141.928 260.253 146.835 255.58Z" fill="#7777D8"/>
<path d="M150.214 259.786L156.044 253.017C157.433 251.362 158.909 249.784 160.468 248.288C161.896 246.957 163.49 245.741 164.949 244.432C166.68 242.882 168.26 241.182 169.824 239.47C181.147 227.042 191.918 213.816 198.958 198.561C199.677 197.088 200.259 195.552 200.696 193.971C201.259 191.674 201.275 189.277 201.796 186.973C202.317 184.669 203.479 182.345 205.616 181.283C207.649 184.446 206.051 188.53 204.375 191.936L197.84 205.281C193.467 214.213 189.056 223.2 183.087 231.147C180.733 234.442 177.899 237.365 174.679 239.82C172.742 241.05 170.889 242.405 169.129 243.877C167.128 245.785 165.773 248.254 164.183 250.526C161.81 253.911 158.889 256.877 155.54 259.303C154.474 260.073 152.142 262.227 150.904 262.439C148.798 262.816 149.156 261.001 150.214 259.786Z" fill="#4444A0"/>
<path d="M150.772 262.579C155.262 259.134 159.783 255.642 163.43 251.315C166.278 247.942 168.594 244.063 171.968 241.192C175.103 238.515 179.058 236.82 181.963 233.938C185.247 230.658 186.928 226.167 189.175 222.102C191.132 218.542 193.579 215.263 195.643 211.766C201.288 202.252 204.108 191.381 206.854 180.667" stroke="#20173B" stroke-width="2" stroke-linecap="round" stroke-linejoin="round"/>
<path d="M146.554 255.988C166.336 237.053 183.519 215.155 195.433 190.492C198.088 184.96 200.612 179.163 205.02 174.91C205.321 174.553 205.69 174.263 206.107 174.054C206.524 173.846 206.98 173.726 207.446 173.7C208.377 173.763 209.17 174.97 208.564 175.629C210.368 174.175 213.18 175.467 214.485 177.397C216.646 180.508 216.45 184.646 215.919 188.378C215.33 192.812 214.467 197.205 213.336 201.532C212.061 206.757 210.119 211.795 207.558 216.523C204.462 221.971 200.243 226.691 196.062 231.355L185.343 243.378C178.637 250.863 171.863 258.394 163.722 264.356C159.171 267.689 154.28 269.63 148.808 267.465C142.586 264.956 141.625 260.693 146.554 255.988Z" stroke="#20173B" stroke-width="2" stroke-linecap="round" stroke-linejoin="round"/>
</g>
<defs>
<clipPath id="clip0_5041_21095">
<rect width="275.435" height="397.696" fill="white" transform="translate(0 226.731) rotate(-55.4038)"/>
</clipPath>
</defs>
</svg>
