<svg width="176" height="428" viewBox="0 0 176 428" fill="none" xmlns="http://www.w3.org/2000/svg">
<g clip-path="url(#clip0_5041_20848)">
<path d="M14.3445 325.275C20.7062 309.455 25.7524 293.138 29.4316 276.491C32.9111 269.594 35.3105 262.205 36.5457 254.582C37.6948 246.89 37.3906 239.038 38.6257 231.357C40.4331 220.209 45.3984 209.778 51.1835 200.08C63.3087 179.714 79.0307 161.716 97.5837 146.963C95.3547 147.284 93.0883 146.739 91.2492 145.442C89.4101 144.145 88.1375 142.193 87.6922 139.986C83.6934 141.046 79.6717 142.134 75.6271 143.25C79.1864 139.689 82.4228 135.819 85.2984 131.686C81.5221 127.653 69.3948 115.194 64.3644 111.11C55.8695 104.253 46.9189 97.1778 36.2869 94.4699C22.7507 126.334 -8.10383 150.295 -42.4483 155.349C-55.7921 157.306 -69.5948 156.64 -82.9702 158.233C-86.5501 157.547 -90.1337 156.545 -93.6656 155.85C-114.665 151.646 -136.228 158.239 -155.854 166.706C-159.674 168.156 -163.249 170.183 -166.456 172.717C-168.348 174.176 -169.68 176.244 -170.225 178.57C-170.457 181.258 -169.662 183.932 -167.998 186.054C-165.106 190.079 -161.364 193.419 -157.038 195.838C-177.542 207.766 -185.878 206.287 -206.148 218.498C-219.75 226.544 -232.748 235.571 -245.039 245.506C-256.705 255.12 -284.397 275.409 -279.563 293.659C-277.122 303.024 -267.249 310.978 -258.187 313.093C-254.066 314.047 -228.994 312.556 -230.09 304.527C-227.249 325.358 -215.423 344.201 -200.182 358.678C-184.94 373.156 -166.426 383.706 -147.582 393.016C-155.381 397.716 -158.135 408.254 -156.02 417.105C-153.904 425.957 -147.873 433.363 -141.302 439.65C-135.448 445.291 -128.122 450.623 -120.077 449.692C-113.355 448.853 -107.946 443.919 -103.124 439.137C-65.0784 401.489 -42.114 373.701 -9.09289 331.643C-6.89418 334.779 -4.32953 337.642 -1.45307 340.171C-0.851018 340.841 -0.0992238 341.36 0.741372 341.685C2.33242 342.164 4.01799 341.178 5.26385 340.127C9.6558 336.306 12.1938 330.679 14.3445 325.275ZM-148.364 183.297C-142.482 180.318 -136.01 178.691 -129.421 178.536C-130.44 179.236 -131.468 179.927 -132.497 180.618C-135.788 182.814 -139.114 184.956 -142.474 187.042C-144.457 185.819 -146.42 184.571 -148.364 183.297ZM1.25502 318.203C0.693024 319.573 0.208793 320.886 -0.323932 322.228L-1.16036 321.36C-0.374566 320.32 0.439958 319.271 1.25502 318.203Z" fill="#D877AE"/>
<path d="M52.8179 187.424C48.8057 193.185 45.1734 199.201 41.9442 205.435C41.307 206.726 37.84 217.989 37.187 218.073L41.8243 217.532C42.1734 217.535 42.5133 217.42 42.7885 217.205C42.9813 216.99 43.1121 216.728 43.1668 216.445C45.8857 207.359 50.3843 198.903 56.4006 191.569C57.6846 190.011 59.064 188.474 60.1865 186.846C61.9185 184.386 63.2058 181.62 64.8528 179.092C66.8244 176.236 69.0514 173.566 71.5064 171.114C75.9238 166.44 80.464 161.855 85.1073 157.396C87.1365 155.439 97.4686 148.523 91.1582 146.294C89.4829 145.709 89.2484 146.461 87.8544 147.749C86.713 148.85 85.5716 149.951 84.3734 151.012C82.1361 153.17 79.9021 155.324 77.6713 157.475C70.4619 164.53 63.8469 172.167 57.8937 180.31C56.1736 182.645 54.4819 185.011 52.8179 187.424Z" fill="#F8D4FF"/>
<path d="M8.98962 137.855C-0.713194 145.971 -11.6195 152.857 -23.6932 156.581C-28.4411 158.051 -33.3306 159.015 -38.2803 159.456C-38.4064 158.056 -38.7903 156.691 -39.4126 155.431C-38.7848 156.707 -22.6614 150.564 -21.0396 149.903C-15.0226 147.447 -9.23982 144.452 -3.76216 140.954C7.23542 133.954 16.8868 125.036 24.7316 114.624C29.2506 108.611 32.3241 102.016 36.131 95.6553C38.2246 96.0264 40.2498 96.7114 42.1384 97.6872C42.1384 97.6872 32.6318 112.761 30.3059 115.738C24.0112 123.851 16.8649 131.266 8.98962 137.855Z" fill="#F8D4FF"/>
<path d="M-206.417 218.531C-177.94 201.379 -160.502 199.216 -132.853 180.755C-122.366 173.746 -112.068 166.073 -100.15 161.953C-81.8966 155.637 -61.8739 158.243 -42.7658 155.429C-8.48893 150.403 22.3844 126.462 35.9694 94.5506C46.6013 97.2585 55.5043 104.324 64.0469 111.191C69.0968 115.256 81.2043 127.733 84.9806 131.766C82.1051 135.899 78.8686 139.769 75.3094 143.331L87.3747 140.067C87.82 142.274 89.0926 144.226 90.9317 145.523C92.7708 146.82 95.0369 147.364 97.2659 147.044C78.7129 161.797 62.9912 179.794 50.8659 200.16C45.1387 209.84 40.1257 220.261 38.3081 231.438C37.073 239.119 37.3772 246.971 36.2281 254.663C33.369 273.936 21.7341 290.629 10.0719 306.221C-28.3271 357.716 -57.8889 394.068 -103.538 439.255C-108.35 444.027 -113.713 449.067 -120.491 449.809C-128.537 450.74 -135.881 445.388 -141.716 439.767C-148.267 433.462 -154.3 426.074 -156.434 417.222C-158.569 408.371 -155.814 397.814 -147.996 393.133C-166.84 383.823 -185.364 373.282 -200.596 358.795C-215.827 344.308 -227.664 325.475 -230.505 304.644C-229.409 312.673 -254.48 314.165 -258.601 313.21C-267.673 311.105 -277.536 303.141 -279.987 293.786C-284.762 275.479 -257.08 255.199 -245.405 245.577C-233.084 235.625 -220.053 226.586 -206.417 218.531Z" stroke="#20173B" stroke-width="2" stroke-linecap="round" stroke-linejoin="round"/>
<path d="M2.06906 351.184C26.8043 319.355 37.4345 278.386 39.0649 238.139C39.1744 235.343 39.3183 232.251 41.2246 230.206C42.1343 229.197 43.2862 228.556 44.1475 227.575C46.5264 224.849 45.8461 220.727 45.0303 217.206C29.8527 221.948 12.9892 216.897 0.00539561 207.748C-12.9784 198.599 -22.7987 185.741 -32.3844 173.145C-35.91 168.513 -38.9366 163.832 -39.9974 158.027C-40.6058 154.682 -40.1437 153.014 -43.9709 152.227C-46.9389 151.61 -50.488 152.869 -53.429 153.372C-72.4733 156.877 -91.8611 150.009 -111.217 150.203C-135.489 150.416 -158.427 161.87 -178.328 175.869C-166.267 169.242 -149.554 173.629 -141.879 184.888C-142.518 185.24 -143.117 185.555 -143.785 185.917C-150.785 189.67 -157.932 193.12 -165.227 196.268C-168.878 197.832 -172.559 199.325 -176.271 200.747C-179.175 201.855 -185.489 202.903 -187.153 205.297C-181.051 209.477 -172.092 211.465 -165.289 214.479C-157.978 217.679 -150.864 221.308 -143.982 225.347C-117.839 240.88 -96.8001 263.555 -76.13 285.946C-63.9528 298.022 -53.8812 312.049 -46.331 327.449L-28.4286 360.598C-20.9985 347.959 -7.76655 335.03 1.83204 322.218C6.01395 330.713 4.17394 341.555 2.06906 351.184Z" fill="#E62158"/>
<path d="M-51.9978 266.964C-49.542 269.881 -46.2794 272.171 -44.4354 275.528C-43.3175 277.914 -42.5329 280.442 -42.1035 283.042C-41.0266 287.695 -39.5436 292.245 -37.6716 296.639C-33.2951 307.034 -26.7431 316.366 -22.3374 326.734C-20.969 329.674 -20.0769 332.814 -19.694 336.035C-19.3297 339.283 -20.1308 342.555 -21.9544 345.269C-23.7828 347.766 -26.6003 349.354 -28.6272 351.704C-30.6541 354.053 -31.5887 357.946 -29.3482 360.074C-22.5008 351.136 -15.1248 342.616 -7.25967 334.56L-27.7291 303.961C-32.2051 297.368 -36.6493 290.611 -39.2982 283.14C-39.8658 281.201 -40.6641 279.337 -41.6762 277.589C-43.4181 274.924 -46.346 273.176 -47.9727 270.493" fill="#A80437"/>
<path d="M-12.8214 308.058C-13.0596 308.29 -13.2164 308.593 -13.2686 308.921C-13.226 309.279 -13.0509 309.606 -12.778 309.84L-6.30587 316.767C-7.0954 315.948 -1.93025 303.01 -1.44749 301.265C-0.681531 298.545 0.0461538 295.825 0.735498 293.103C1.16983 291.386 3.29474 286.346 2.68281 284.736C1.53131 281.745 0.301206 285.546 -0.142298 286.726C-1.11554 289.283 -2.23035 291.783 -3.48156 294.216C-6.03266 299.185 -9.16814 303.832 -12.8214 308.058Z" fill="#A80437"/>
<path d="M27.9558 134.426C27.8098 133.306 28.0365 132.169 28.6005 131.19C29.4439 130.175 30.6477 129.527 31.9587 129.381C36.5609 128.574 41.2995 129.287 45.4582 131.412C49.5837 133.542 53.305 136.377 56.4541 139.788C60.4676 143.95 64.0938 148.843 65.0226 154.531C65.5164 156.8 65.1007 159.172 63.8649 161.14C61.889 163.835 58.009 164.341 54.7547 163.661C49.2667 162.539 44.6692 158.884 40.6312 155.009C34.6333 149.375 28.5511 143.107 27.9558 134.426Z" fill="#FFF39F" stroke="#20173B" stroke-width="2" stroke-miterlimit="10"/>
<path d="M27.8524 134.319C27.6973 133.197 27.9207 132.054 28.4875 131.073C29.3354 130.063 30.5368 129.416 31.8457 129.264C36.448 128.461 41.1853 129.173 45.3452 131.294C49.4707 133.425 53.192 136.26 56.3411 139.671C60.3546 143.833 63.9901 148.735 64.9096 154.413C65.4034 156.682 64.9877 159.055 63.7518 161.022C61.776 163.718 57.8962 164.224 54.6419 163.544C49.154 162.422 44.5562 158.767 40.5182 154.892C34.5203 149.258 28.4384 142.99 27.8524 134.319Z" stroke="#20173B" stroke-width="2" stroke-linecap="round" stroke-linejoin="round"/>
<path d="M29.608 130.067C38.4904 127.427 48.8713 127.161 55.7653 132.006C62.6594 136.851 69.9828 150.029 64.3568 159.932" stroke="#20173B" stroke-width="2" stroke-linecap="round" stroke-linejoin="round"/>
<path d="M59.5083 164.607C57.1962 165.658 54.6897 166.211 52.1511 166.232C49.6126 166.254 47.0982 165.741 44.7709 164.729C40.5705 162.892 37.3524 159.75 34.2009 156.639C31.4762 154.21 29.1699 151.351 27.3742 148.173C25.7202 144.896 26.5122 136.834 27.8935 132.624" stroke="#20173B" stroke-width="2" stroke-linecap="round" stroke-linejoin="round"/>
<path d="M43.707 145.195L52.1421 145.996" stroke="#20173B" stroke-width="2" stroke-linecap="round" stroke-linejoin="round"/>
<path d="M49.7168 141.958C48.4694 144.501 47.4147 147.134 46.5618 149.835" stroke="#20173B" stroke-width="2" stroke-linecap="round" stroke-linejoin="round"/>
<path d="M45.1409 142.27C47.313 144.334 49.3521 146.533 51.2459 148.854" stroke="#20173B" stroke-width="2" stroke-linecap="round" stroke-linejoin="round"/>
<path d="M72.2474 116.883C78.0753 110.864 83.1773 104.183 87.4485 96.9757" stroke="#20173B" stroke-width="2" stroke-linecap="round" stroke-linejoin="round"/>
<path d="M49.0257 120.917C52.948 121.636 56.6801 123.153 59.9908 125.373C63.3015 127.594 66.1202 130.472 68.2723 133.827" stroke="#20173B" stroke-width="2" stroke-linecap="round" stroke-linejoin="round"/>
<path d="M12.2746 152.84C13.2127 152.59 14.1992 152.585 15.1397 152.824C17.5787 153.522 19.8623 154.677 21.8689 156.229C29.9405 161.437 37.5993 167.257 44.7777 173.639C46.6715 175.162 48.153 177.134 49.0873 179.378C49.8686 181.672 49.326 184.584 47.2526 185.831C44.8691 187.264 41.8936 186.014 39.5039 184.688C32.0365 180.578 25.0495 175.65 18.6714 169.997C15.7307 167.396 11.5346 164.294 9.48995 160.905C7.9468 158.368 9.08469 153.847 12.2746 152.84Z" fill="#7CBC5C"/>
<path d="M2.53679 350.244C2.18789 351.018 1.58583 351.65 0.829911 352.038C0.0739885 352.425 -0.790797 352.543 -1.62247 352.374C-2.19701 352.17 -2.72529 351.855 -3.17645 351.445C-7.00983 348.302 -9.44037 343.767 -9.93569 338.833C-9.98854 338.416 -9.98382 337.994 -9.92184 337.578C-9.60053 336.543 -8.95153 335.64 -8.07274 335.005L-5.76463 337.613C-4.60695 339.063 -3.21107 340.306 -1.63669 341.289C-0.841792 341.77 0.063733 342.038 0.992685 342.068C1.92164 342.098 2.84284 341.888 3.66781 341.459C3.6745 342.81 3.57892 344.16 3.3819 345.497C3.08308 347.14 3.26392 348.752 2.53679 350.244Z" fill="#20173B" stroke="#20173B" stroke-width="2" stroke-linecap="round" stroke-linejoin="round"/>
<path d="M-6.48858 314.234C-2.32331 304.574 1.20478 290.017 3.54224 279.731" stroke="#20173B" stroke-width="2" stroke-linecap="round" stroke-linejoin="round"/>
<path d="M9.63069 157.459C9.86483 157.233 10.243 157.508 10.4686 157.742C15.0058 162.775 19.8133 167.559 24.8698 172.07C29.9259 176.581 35.7214 180.186 42.0025 182.73C43.0681 183.132 44.1437 183.506 45.2197 183.86C45.8577 184.072 46.6253 184.517 46.4979 185.185C46.3705 185.854 45.5542 185.964 44.9228 185.914C41.8643 185.574 38.9507 184.432 36.4768 182.603C33.9411 180.891 31.6316 178.867 29.0662 177.203C27.8076 176.366 26.4799 175.634 25.2119 174.787C22.4464 172.83 19.8936 170.589 17.5953 168.1C16.4204 166.881 15.2549 165.673 14.08 164.454C12.9051 163.236 11.7235 162.382 10.6812 161.242C10.1368 160.639 8.98861 157.984 9.63069 157.459Z" fill="#609E3C"/>
<path d="M14.5187 158.388C17.1289 160.975 19.9939 163.292 23.07 165.303C24.8791 166.418 26.8653 167.287 28.6348 168.477C30.8046 169.946 32.8474 171.594 34.7417 173.404L42.2328 180.138" stroke="#20173B" stroke-width="2" stroke-linecap="round" stroke-linejoin="round"/>
<path d="M12.2746 152.84C13.2127 152.59 14.1992 152.585 15.1397 152.824C17.5787 153.522 19.8623 154.677 21.8689 156.229C29.9405 161.437 37.5993 167.257 44.7777 173.639C46.6715 175.162 48.153 177.134 49.0873 179.378C49.8686 181.672 49.326 184.584 47.2526 185.831C44.8691 187.264 41.8936 186.014 39.5039 184.688C32.0365 180.578 25.0495 175.65 18.6714 169.997C15.7307 167.396 11.5346 164.294 9.48995 160.905C7.9468 158.368 9.08469 153.847 12.2746 152.84Z" stroke="#20173B" stroke-width="2" stroke-linecap="round" stroke-linejoin="round"/>
<path d="M24.8203 289.534C25.2319 288.009 25.6435 286.483 26.0551 284.958C29.722 271.188 33.2762 257.303 34.6235 243.08C34.9533 239.771 35.178 236.451 35.2212 233.099C35.14 232.433 35.2015 231.757 35.4018 231.116C35.602 230.475 35.9363 229.884 36.3824 229.383C37.0381 229.016 37.6697 228.608 38.2734 228.161C38.6708 227.635 38.9145 227.009 38.9776 226.353L40.1756 220.157L37.6867 219.021C39.9048 218.319 42.2128 217.944 44.5383 217.906C45.4993 219.973 45.7165 222.308 45.153 224.518C44.5516 226.979 42.9994 229.04 41.9035 231.301C40.7423 233.888 39.891 236.603 39.3674 239.39C36.0375 255.129 35.0656 271.322 31.1729 286.926C28.771 295.882 25.8786 304.7 22.5091 313.339C18.1033 325.112 13.4873 337.37 4.4431 346.129C4.39233 342.679 3.87346 339.681 5.76793 336.725C8.00173 333.336 10.0346 329.817 11.856 326.189C17.7147 314.596 21.4353 302.054 24.8203 289.534Z" fill="#FFC49C"/>
<path d="M-140.117 187.007C-146.954 173.943 -165.065 168.497 -178.006 175.559C-161.561 163.97 -142.049 152.848 -121.661 150.775C-100.976 148.66 -80.8464 154.286 -60.1496 154.135C-54.5159 154.12 -44.6711 148.163 -40.6979 154.489C-38.781 157.531 -38.7519 161.622 -36.8103 164.885C-34.9707 167.964 -33.0537 171.006 -31.0684 173.983C-22.7437 186.383 -12.9044 198.227 -0.669573 206.951C12.7947 216.539 18.075 217.485 26.6002 218.594C32.9073 219.056 39.2485 218.499 45.3801 216.944C45.7145 220.082 44.4877 224.746 44.4566 226.412C43.5462 230.544 42.53 229.041 40.7726 232.354C37.9574 249.779 35.9523 266.403 32.3393 282.942C26.0462 308.612 18.1485 330.918 2.3894 350.95M2.3894 350.95C8.88526 342.184 2.55654 350.206 2.3894 350.95ZM2.3894 350.95C2.55654 350.206 4.02145 344.598 5.4614 344.959C6.6534 345.258 2.64483 350.609 2.3894 350.95ZM2.3894 350.95C3.84381 344.356 5.2448 337.55 4.55636 330.783C3.79475 323.316 1.09203 317.195 -6.51784 314.262" stroke="#20173B" stroke-width="2" stroke-linecap="round" stroke-linejoin="round"/>
<path d="M43.2439 227.751C29.2459 230.138 14.8611 227.39 2.73756 220.011C-3.00163 216.287 -8.3437 211.983 -13.205 207.169C-22.9894 197.921 -32.2153 188.1 -40.8341 177.757C-43.8897 174.401 -46.422 170.603 -48.3462 166.492C-49.7855 163.049 -50.4174 159.321 -50.1937 155.595" stroke="#20173B" stroke-width="2" stroke-linecap="round" stroke-linejoin="round"/>
<path d="M15.4119 165.992C15.1276 166.283 14.908 166.632 14.7672 167.014C14.6264 167.396 14.5675 167.803 14.5946 168.209C14.7473 168.687 15.0197 169.117 15.3858 169.459C16.5951 170.769 17.8979 171.99 19.2841 173.111C19.3744 173.201 19.4906 173.26 19.6163 173.28C19.7504 173.269 19.8779 173.218 19.9829 173.133C20.861 172.398 21.6012 171.513 22.1683 170.518C22.9872 169.24 23.7968 167.951 24.5872 166.662C24.4586 166.88 19.6676 162.79 19.1826 162.6C17.727 162.047 16.0998 165.065 15.4119 165.992Z" fill="white" stroke="#20173B" stroke-width="2" stroke-linecap="round" stroke-linejoin="round"/>
<path d="M-30.2273 283.233C-30.8099 281.894 -31.1156 280.451 -31.1263 278.991C-31.137 277.53 -30.8525 276.082 -30.2896 274.734C-29.508 272.889 -28.2232 271.293 -27.2988 269.499C-24.1684 263.451 -25.5849 256.164 -27.0709 249.528C-29.8514 250.159 -30.9585 253.54 -31.0691 256.393C-31.1797 259.246 -30.9128 262.412 -32.6405 264.643C-36.426 254.411 -33.4058 242.959 -34.9774 232.172C-35.1719 230.779 -35.6404 229.181 -36.9636 228.726C-37.5282 228.582 -38.1243 228.624 -38.6634 228.846C-39.2025 229.068 -39.656 229.457 -39.9564 229.957C-40.5427 230.96 -40.8884 232.085 -40.9661 233.244C-41.9732 241.057 -41.749 248.978 -40.3013 256.718L-42.8062 244.085C-43.5065 240.528 -44.1624 236.646 -42.4834 233.428C-44.6229 232.049 -47.6864 233.48 -48.8777 235.72C-49.8886 238.086 -50.1253 240.711 -49.5539 243.219C-48.7343 248.291 -47.6055 253.309 -46.1737 258.243L-50.0144 248.403C-50.83 246.62 -51.3854 244.729 -51.6632 242.788C-51.8466 240.802 -51.5454 238.518 -52.9173 237.076C-53.0839 236.887 -53.2885 236.737 -53.5179 236.633C-53.7472 236.53 -53.9959 236.477 -54.2474 236.477C-55.4849 236.561 -55.8129 238.232 -55.7305 239.469C-55.4153 244.929 -54.3019 250.313 -52.4257 255.45C-54.3815 252.956 -55.6805 250.012 -56.2039 246.885C-56.3675 245.896 -56.6223 244.655 -57.5472 244.418C-59.2824 245.509 -59.2998 247.99 -58.9064 250.018C-57.8695 255.539 -55.5878 260.749 -52.2344 265.254C-47.7106 271.331 -41.1054 276.248 -39.2545 283.868C-37.4557 291.2 -32.5861 297.246 -28.4074 303.336L-17.9512 318.572C-14.6025 323.45 -11.6031 328.552 -8.22518 333.402C-6.2326 336.009 -3.98587 338.41 -1.5181 340.572C-0.91605 341.243 -0.164012 341.761 0.676579 342.086C2.26762 342.565 3.95297 341.579 5.19883 340.528L5.4037 340.331C5.23623 339.781 5.17223 339.205 5.21497 338.632C5.62883 331.837 5.61104 324.556 1.13392 319.054L-0.27468 322.669C-12.1695 311.54 -22.204 298.577 -29.9974 284.272L-30.2273 283.233Z" fill="#D877AE"/>
<path d="M-0.44504 323.078C0.367271 324.366 0.904775 325.807 1.13367 327.312C1.22736 328.072 1.08757 328.842 0.732629 329.52C0.377693 330.199 -0.17553 330.753 -0.853102 331.109C-3.05528 332.066 -5.31527 329.957 -6.77441 328.054C-15.3128 317.013 -23.3268 305.592 -30.8163 293.79C-32.8698 290.697 -34.6799 287.449 -36.2305 284.076C-37.0301 282.251 -37.6848 280.361 -38.5328 278.564C-41.1595 272.99 -45.6165 268.466 -49.5925 263.835C-53.5684 259.204 -57.3986 253.944 -58.3969 247.872C-59.3619 247.73 -59.5433 249.24 -59.2445 250.175C-56.8798 257.846 -52.9357 264.935 -47.6657 270.987C-46.2869 272.573 -44.8201 274.075 -43.5967 275.773C-40.4683 280.13 -39.0927 285.481 -36.6136 290.238C-35.4302 292.421 -34.1261 294.536 -32.7076 296.573C-23.0419 311.048 -14.6022 325.501 -3.51823 338.927C-2.74342 339.438 -1.88412 339.806 -0.980379 340.017C-0.674454 340.076 -0.359576 340.072 -0.0550878 340.005C0.249395 339.938 0.536954 339.809 0.789652 339.626C1.90229 338.841 2.78926 337.777 3.36204 336.541C3.93482 335.305 4.17327 333.941 4.05346 332.585C3.78301 329.877 3.03068 327.238 1.83199 324.795" fill="#B73E89"/>
<path d="M-30.3629 283.307C-30.9449 281.965 -31.2488 280.518 -31.2561 279.054C-31.2635 277.59 -30.974 276.139 -30.4054 274.79C-29.614 272.936 -28.3292 271.339 -27.3955 269.555C-24.265 263.507 -25.6909 256.211 -27.1769 249.574C-29.9574 250.205 -31.0648 253.586 -31.1754 256.439C-31.2859 259.292 -31.019 262.458 -32.7467 264.689C-36.5322 254.457 -33.5026 243.014 -35.0837 232.218C-35.2879 230.835 -35.7466 229.227 -37.0699 228.772C-37.6345 228.628 -38.2305 228.67 -38.7696 228.892C-39.3088 229.114 -39.7622 229.503 -40.0626 230.003C-40.649 231.006 -40.9946 232.131 -41.0723 233.29C-42.0772 241.104 -41.8465 249.025 -40.3884 256.765L-42.8933 244.132C-43.5936 240.574 -44.2494 236.692 -42.5704 233.474C-44.71 232.095 -47.7735 233.526 -48.9746 235.775C-49.9748 238.138 -50.2047 240.756 -49.6312 243.256C-48.8173 248.329 -47.6884 253.347 -46.2511 258.28L-50.0917 248.44C-50.9013 246.655 -51.4564 244.765 -51.7406 242.825C-51.924 240.839 -51.6227 238.555 -52.9946 237.112C-53.1623 236.925 -53.3672 236.776 -53.5962 236.673C-53.8253 236.57 -54.0735 236.516 -54.3248 236.514C-55.5622 236.598 -55.8902 238.268 -55.8079 239.506C-55.4905 244.972 -54.3773 250.362 -52.5034 255.506C-54.4513 253.008 -55.7494 250.065 -56.2816 246.941C-56.4448 245.932 -56.7094 244.701 -57.6813 244.416C-59.4068 245.497 -59.4241 247.978 -59.0214 250.016C-57.99 255.534 -55.7112 260.742 -52.3588 265.242C-47.8349 271.32 -41.2296 276.236 -39.3692 283.867C-37.5798 291.189 -32.7105 297.234 -28.5223 303.334L-18.0755 318.56C-14.7269 323.439 -11.7272 328.541 -8.34931 333.391C-6.35673 335.997 -4.11 338.399 -1.64223 340.56C-1.04018 341.231 -0.288376 341.75 0.552214 342.075C2.14326 342.553 3.82861 341.567 5.07447 340.516L5.27934 340.319C5.11061 339.769 5.04659 339.193 5.09061 338.62C5.50447 331.825 5.48668 324.544 1.00956 319.042L-0.399046 322.657C-12.3074 311.535 -22.3464 298.567 -30.1312 284.25L-30.3629 283.307Z" stroke="#20173B" stroke-width="2" stroke-linecap="round" stroke-linejoin="round"/>
<path d="M-5.60991 317.469C-3.34863 320.028 -0.524343 322.196 1.01859 325.26C2.36125 327.935 2.60276 331.031 1.69153 333.885C0.751054 336.725 -1.25848 339.088 -3.91101 340.473C-1.03065 342.286 1.67887 344.357 4.1843 346.661C4.49281 346.688 4.80227 346.619 5.06961 346.462C5.33695 346.306 5.54893 346.07 5.67601 345.787C5.91574 345.216 6.02851 344.6 6.00656 343.982C6.20649 338.224 5.98393 332.46 5.3407 326.735C5.23042 324.54 4.63562 322.396 3.5989 320.458C2.13856 318.104 -0.460335 316.698 -2.89909 315.438C-3.7055 315.012 -5.28884 314.112 -6.21789 314.612C-7.55347 315.336 -6.21038 316.787 -5.60991 317.469Z" fill="#20173B"/>
</g>
<defs>
<clipPath id="clip0_5041_20848">
<rect width="258.541" height="417.898" fill="white" transform="translate(-4.18591) rotate(46.0401)"/>
</clipPath>
</defs>
</svg>
