<svg width="252" height="387" viewBox="0 0 252 387" fill="none" xmlns="http://www.w3.org/2000/svg">
<g clip-path="url(#clip0_5041_20335)">
<path d="M-25.01 205.366C-24.9966 193.268 -22.5644 181.517 -19.5212 169.871C-18.8348 167.248 -18.0022 164.682 -17.2188 162.105C-15.4372 156.241 -16.8268 149.105 -16.1173 143.002C-15.4881 137.61 -17.0398 132.264 -16.3658 126.818C-15.473 119.584 -12.1484 113.865 -8.83373 107.558C-8.28125 106.361 -7.47213 105.3 -6.46376 104.45C-3.6122 102.312 2.0354 104.229 4.93819 105.489C8.80963 107.203 12.2011 109.842 14.8147 113.174L19.4448 118.995C20.155 117.392 20.5403 115.664 20.5784 113.911C20.6165 112.158 20.3067 110.415 19.6668 108.782C16.7518 100.602 5.88858 88.4092 -3.91428 92.9311C-3.34565 90.7416 -4.83832 88.6101 -6.24733 86.8361C-10.9572 80.8985 -18.7212 74.5863 -26.9101 75.3232C-29.7155 75.575 -32.272 76.9413 -34.7425 78.2831C-28.8849 79.9271 -23.2651 83.1455 -19.8174 88.1645C-17.7007 91.243 -15.8783 96.0561 -16.8475 99.8198C-18.565 106.494 -21.6912 112.696 -23.3511 119.344L-27.9509 137.218C-29.2514 142.262 -30.1739 148.384 -33.3018 152.661C-32.8051 173.908 -44.221 192.509 -50.4205 212.527" fill="#7673B4"/>
<path d="M7.28948 94.4631C8.15954 95.0942 8.96509 95.8097 9.69448 96.5992C11.0899 98.0331 12.3565 99.5038 13.6874 100.956C15.9034 103.374 18.1464 105.984 18.9356 109.167C17.0092 106.373 14.827 103.764 12.4171 101.374C10.9158 99.8039 9.19033 98.4644 7.29693 97.3995C4.13554 95.7395 0.47161 95.3947 -3.09408 95.0682C-2.68945 95.0365 -1.525 93.6302 -0.885869 93.4107C-0.000346047 93.1031 0.928586 92.9386 1.86605 92.9231C3.78975 92.8588 5.68591 93.3973 7.28948 94.4631Z" fill="#B6B6FF"/>
<path d="M-20.9995 156.442C-20.0369 148.412 -20.004 140.284 -18.9782 132.264C-17.9524 124.244 -15.8271 116.151 -11.1622 109.543C-11.7995 114.63 -15.1859 118.995 -16.1885 124.024C-16.5571 126.31 -16.6763 128.629 -16.544 130.942L-16.0404 154.976C-15.9508 156.951 -16.053 158.929 -16.3454 160.884C-16.7022 162.643 -17.1932 164.372 -17.814 166.055C-19.6935 171.648 -21.2645 177.339 -22.5198 183.104C-23.149 185.987 -23.6986 188.882 -24.1686 191.791C-24.5468 194.158 -24.2258 198.516 -25.3336 200.576C-26.1867 202.144 -26.9261 201.086 -27.4657 199.329C-28.1276 197.128 -27.4383 194.109 -27.2 191.87C-26.6009 186.194 -25.4886 180.59 -24.3627 175C-23.049 168.832 -21.7501 162.677 -20.9995 156.442Z" fill="#B6B6FF"/>
<path d="M-37.6177 188.518C-35.6783 182.767 -33.7382 177.001 -31.4371 171.393C-30.2583 168.508 -28.9752 165.664 -28.0758 162.697C-25.3918 153.794 -26.1643 144.166 -24.502 135.007C-22.491 123.669 -16.7913 113.088 -16.1379 101.57C-17.3459 103.861 -18.3175 106.27 -19.0378 108.758L-23.8504 123.532C-24.8456 126.587 -25.8408 129.642 -26.5571 132.794C-27.7133 137.611 -28.3376 142.564 -30.2135 147.172C-31.0295 148.872 -31.7543 150.613 -32.3846 152.39C-32.8446 154.198 -33.1444 156.044 -33.2807 157.905C-35.0996 173.963 -41.212 189.181 -47.2495 204.141C-42.5581 205.267 -38.7559 206.34 -39.434 200.586C-39.9761 196.268 -38.9995 192.497 -37.6177 188.518Z" fill="#4444A0"/>
<path d="M-24.8111 205.183C-24.7977 193.086 -22.3655 181.335 -19.3592 169.723C-18.6728 167.1 -17.8401 164.533 -17.0199 161.923C-15.2383 156.058 -16.6279 148.922 -15.9184 142.82C-15.2892 137.428 -16.8409 132.082 -16.1668 126.635C-15.2741 119.402 -11.9495 113.683 -8.62744 107.369C-8.07823 106.174 -7.27142 105.115 -6.26485 104.268C-3.41328 102.129 2.23431 104.047 5.1371 105.306C9.00855 107.021 12.4001 109.66 15.0136 112.992L19.6437 118.813C20.3534 117.209 20.739 115.48 20.7784 113.726C20.8177 111.972 20.51 110.228 19.8731 108.593C16.9581 100.413 6.08752 88.2269 -3.71535 92.7488C-3.14672 90.5593 -4.63203 88.4211 -6.04104 86.6471C-10.7509 80.7095 -18.5222 74.404 -26.7112 75.141C-29.5166 75.3927 -32.0731 76.759 -34.5436 78.1009C-28.686 79.7448 -23.0588 82.9564 -19.6184 87.9822C-17.5017 91.0608 -15.6794 95.8738 -16.6486 99.6375C-18.3588 106.305 -21.4923 112.513 -23.1522 119.162L-27.752 137.036C-29.0524 142.08 -29.9749 148.202 -33.1029 152.479C-32.6062 173.726 -44.0221 192.326 -50.2216 212.345" stroke="#20173B" stroke-width="2" stroke-linecap="round" stroke-linejoin="round"/>
<path d="M-64.6672 208.725C-71.8897 181.205 -77.9111 158.47 -72.5069 130.663L-71.7274 127.52C-70.3434 122.671 -68.3847 117.783 -64.7187 114.315C-61.0526 110.847 -55.3274 109.167 -50.8199 111.438C-47.801 112.957 -45.8132 115.909 -43.9754 118.728C-42.9022 113.377 -43.8001 107.817 -46.5036 103.074C-49.2424 98.3513 -53.5959 94.7778 -58.7608 93.0124C-60.436 92.4147 -62.1989 92.1006 -63.9771 92.0829C-67.7998 92.2615 -71.4459 93.7413 -74.3106 96.2771C-77.1407 98.7947 -79.6745 101.627 -81.8632 104.718C-84.138 101.016 -87.1254 97.8014 -90.6518 95.2622C-94.2191 92.7274 -98.5769 91.5569 -102.932 91.9636C-110.103 92.8655 -115.485 98.7348 -120.179 104.203C-111.417 102.819 -102.266 106.341 -95.9192 112.541C-91.8344 116.716 -88.7741 121.781 -86.9796 127.338C-85.0048 133.154 -84.6533 139.397 -85.963 145.396C-86.9774 149.93 -87.4581 154.567 -87.3951 159.214C-87.4536 161.493 -87.2119 163.771 -86.6761 165.988C-85.9478 168.307 -85.5378 170.715 -85.4573 173.145C-85.4397 176.994 -85.2288 180.788 -85.4863 184.619C-86.2461 192.351 -87.4687 200.029 -89.1473 207.614L-89.9156 211.479" stroke="#20173B" stroke-width="2" stroke-linecap="round" stroke-linejoin="round"/>
<path d="M88.5251 188.661C88.9017 188.36 89.3412 188.147 89.8113 188.038C90.467 188.002 91.1124 188.214 91.6178 188.634C92.6855 189.398 93.5399 190.423 94.0992 191.61C94.6585 192.798 94.9041 194.109 94.8126 195.418C94.8061 195.722 94.7252 196.019 94.577 196.285C94.3711 196.531 94.1138 196.73 93.8231 196.867C87.5782 200.258 80.9177 203.771 74.6654 207.169C73.195 207.96 71.9629 204.22 71.0373 203.21C69.9766 202.053 73.8383 199.951 75.1735 198.85C79.4523 195.281 84.4809 192.368 88.5251 188.661Z" fill="#7CBC5C"/>
<path d="M85.6989 198.399C83.6379 199.596 81.7482 201.084 79.6811 202.259C77.614 203.435 75.5991 204.224 73.726 205.493C74.8739 205.773 76.084 205.627 77.1325 205.084C78.2345 204.63 79.3047 204.097 80.368 203.556L84.7287 201.363C87.1518 200.232 89.4918 198.93 91.7313 197.469C92.3808 197.009 94.7517 195.189 93.9724 194.56C93.193 193.932 90.5206 195.852 89.7673 196.257C88.4418 196.97 87.0341 197.623 85.6989 198.399Z" fill="#609E3C"/>
<path d="M71.6039 203.03C71.528 202.902 71.488 202.757 71.4882 202.609C71.4883 202.46 71.5286 202.315 71.6048 202.188C71.7657 201.939 71.9719 201.722 72.2127 201.549C77.2828 197.35 82.3467 193.13 87.4297 188.96C88.0425 188.554 88.7485 188.311 89.4813 188.254C90.214 188.198 90.9492 188.328 91.6178 188.634C93.554 189.667 90.0496 191.034 89.1889 191.633C86.4828 193.517 83.7435 195.349 80.9772 197.152C77.886 199.162 74.7615 201.121 71.6039 203.03Z" fill="#D3EA73"/>
<path d="M88.5251 188.661C88.9017 188.36 89.3412 188.147 89.8113 188.038C90.467 188.002 91.1124 188.214 91.6178 188.634C92.6855 189.398 93.5399 190.423 94.0992 191.61C94.6585 192.798 94.9041 194.109 94.8126 195.418C94.8061 195.722 94.7252 196.019 94.577 196.285C94.3711 196.531 94.1138 196.73 93.8231 196.867C87.5782 200.258 80.9177 203.771 74.6654 207.169C73.195 207.96 71.9629 204.22 71.0373 203.21C69.9766 202.053 73.8383 199.951 75.1735 198.85C79.4523 195.281 84.4809 192.368 88.5251 188.661Z" stroke="#20173B" stroke-width="2" stroke-linecap="round" stroke-linejoin="round"/>
<path d="M94.4976 191.244L96.8514 189.819" stroke="#20173B" stroke-width="2" stroke-linecap="round" stroke-linejoin="round"/>
<path d="M-21.7452 396.645C-12.1468 386.854 -3.44952 376.218 4.24118 364.867C7.59613 359.92 10.752 354.83 13.9142 349.762C19.5256 340.731 25.1371 331.7 30.7486 322.669C43.9776 301.403 57.1583 280.108 70.2908 258.786C77.2085 247.522 84.3639 234.684 81.3046 221.822C79.8202 215.574 76.0292 210.15 72.2424 204.954C66.0829 196.547 59.5886 188.189 51.2038 181.998C42.8191 175.807 32.3417 171.874 21.975 173.236C2.83792 175.855 -9.36865 195.073 -26.965 202.966C-38.8903 208.308 -52.4369 208.109 -65.4945 208.547C-79.2179 209 -92.9024 210.256 -106.478 212.308C-115.059 213.608 -123.756 215.284 -131.358 219.471C-138.562 223.442 -144.371 229.512 -149.459 235.925C-156.89 245.312 -162.431 253.7 -164.538 265.791C-166.565 277.168 -165.44 288.886 -161.284 299.674C-155.917 313.338 -145.984 324.634 -136.251 335.625L-96.7817 380.169C-88.8555 389.113 -80.7518 398.206 -70.428 404.221C-60.1042 410.235 -47.0042 412.742 -36.149 407.771C-30.5719 405.263 -26.0225 400.999 -21.7452 396.645Z" fill="#7673B4"/>
<path d="M-1.02192 215.73C-0.783923 216.995 -0.402936 218.23 0.113728 219.409C0.64402 220.43 1.28589 221.388 2.02768 222.267C4.84272 225.799 7.97682 229.065 11.3903 232.024C12.3534 232.897 13.4005 233.673 14.5163 234.34C16.1093 235.201 17.8335 235.794 19.6192 236.093C24.0815 236.954 28.6878 236.774 33.1605 237.558C34.5529 237.879 35.976 238.049 37.4048 238.062C38.1246 238.056 38.833 237.882 39.4735 237.554C40.114 237.226 40.6691 236.753 41.0946 236.173C38.9387 235.18 36.6371 234.542 34.2785 234.282C31.0756 233.745 27.9091 233.075 24.779 232.272C21.9448 231.656 19.1989 230.687 16.6051 229.388C10.7626 226.251 6.89466 220.478 3.25701 214.942C3.30121 214.901 -2.39757 205.651 -3.16694 205.61C-3.53689 206.804 -2.50528 209.29 -2.18383 210.528L-1.02192 215.73Z" fill="#4444A0"/>
<path d="M78.3792 213.395C80.9114 212.359 83.3718 211.155 85.744 209.792C87.0296 209.021 88.2917 208.135 89.5951 207.442C90.8928 206.762 92.2584 206.22 93.6693 205.824C93.9006 205.738 94.1497 205.71 94.3944 205.743C94.5951 205.797 94.7816 205.895 94.941 206.029C96.1618 206.955 97.1262 208.177 97.7428 209.579C98.3594 210.982 98.6079 212.519 98.4645 214.044C98.4469 214.507 98.3 214.956 98.0405 215.341C97.6071 215.772 97.0471 216.052 96.4424 216.141C91.1184 217.512 85.7272 218.61 80.2903 219.429" fill="#7CBC5C"/>
<path d="M80.6742 217.422L81.1896 218.591C83.0332 218.773 84.8929 218.703 86.717 218.381C87.8996 218.192 89.1318 217.836 90.3273 217.514L97.1 215.66C97.2474 215.638 97.384 215.57 97.4904 215.465C97.5551 215.369 97.5985 215.26 97.6175 215.145C97.8088 214.319 98.5329 212.625 97.2348 212.376C96.6328 212.371 96.0381 212.508 95.4985 212.774L93.4035 213.446L85.2133 216.016C84.8412 216.112 80.7399 217.538 80.6742 217.422Z" fill="#609E3C"/>
<path d="M79.435 214.502L78.7594 213.765C82.8261 210.746 87.3511 208.398 92.1622 206.812C92.8873 206.568 93.8812 205.996 94.5169 206.675C94.9493 207.147 96.7062 207.585 96.4226 208.089C95.9089 209.007 92.7795 209.719 91.8739 210.047L88.0649 211.422L83.7027 212.992C83.2581 213.128 79.6242 214.709 79.435 214.502Z" fill="#D3EA73"/>
<path d="M82.2673 225.742L91.5422 225.908C92.2177 225.858 92.8941 225.993 93.499 226.299C93.8249 226.553 94.0963 226.87 94.2971 227.231C94.4978 227.593 94.6238 227.991 94.6675 228.402C94.9392 229.989 94.6899 231.621 93.957 233.054C93.865 233.292 93.6941 233.492 93.4728 233.62C93.2475 233.7 93.0043 233.716 92.7702 233.667L81.1859 232.267" fill="#7CBC5C"/>
<path d="M78.3792 213.395C80.9114 212.359 83.3718 211.155 85.744 209.792C87.0296 209.021 88.2917 208.135 89.5951 207.442C90.8928 206.762 92.2584 206.22 93.6693 205.824C93.9006 205.738 94.1497 205.71 94.3944 205.743C94.5951 205.797 94.7816 205.895 94.941 206.029C96.1618 206.955 97.1262 208.177 97.7428 209.579C98.3594 210.982 98.6079 212.519 98.4645 214.044C98.4469 214.507 98.3 214.956 98.0405 215.341C97.6071 215.772 97.0471 216.052 96.4424 216.141C91.1184 217.512 85.7272 218.61 80.2903 219.429" stroke="#20173B" stroke-width="2" stroke-linecap="round" stroke-linejoin="round"/>
<path d="M82.8977 229.979C82.9216 230.773 82.764 231.562 82.4371 232.286C86.062 232.771 89.6951 233.284 93.3363 233.826C93.6114 233.845 94.139 231.626 93.3892 231.296C92.8246 231.173 92.2464 231.123 91.6693 231.149C91.0841 231.103 90.4995 231.041 89.9149 230.98C87.5202 230.734 85.193 230.398 82.8977 229.979Z" fill="#609E3C"/>
<path d="M82.8135 227.343C82.8253 227.132 82.8985 226.929 83.0239 226.758C83.1494 226.588 83.3218 226.458 83.52 226.384C83.9183 226.237 84.3422 226.171 84.7664 226.191L91.2873 226.074C91.8858 226.011 92.4901 226.121 93.0281 226.391C93.6409 226.779 94.4628 228.223 93.448 228.624C92.6345 228.949 90.949 228.337 90.0911 228.215C87.6724 227.868 85.2439 227.584 82.8135 227.343Z" fill="#D3EA73"/>
<path d="M82.2673 225.742L91.5422 225.908C92.2177 225.858 92.8941 225.993 93.499 226.299C93.8249 226.553 94.0963 226.87 94.2971 227.231C94.4978 227.593 94.6238 227.991 94.6675 228.402C94.9392 229.989 94.6899 231.621 93.957 233.054C93.865 233.292 93.6941 233.492 93.4728 233.62C93.2475 233.7 93.0043 233.716 92.7702 233.667L81.1859 232.267" stroke="#20173B" stroke-width="2" stroke-linecap="round" stroke-linejoin="round"/>
<path d="M98.6657 210.536C99.3836 210.099 100.152 209.751 100.953 209.498" stroke="#20173B" stroke-width="2" stroke-linecap="round" stroke-linejoin="round"/>
<path d="M94.9363 230.691C95.7629 230.488 96.6262 230.482 97.4557 230.675" stroke="#20173B" stroke-width="2" stroke-linecap="round" stroke-linejoin="round"/>
<path d="M28.2279 224.988C29.8169 227.191 31.8838 229.007 34.2736 230.298C30.4085 230.517 26.5621 229.485 22.8145 228.458C19.7732 227.791 16.8515 226.663 14.151 225.113C10.2894 222.63 7.76109 218.599 4.89516 215.014C2.99981 212.879 1.29745 210.581 -0.191907 208.147C-0.930806 206.924 -1.41326 205.564 -1.60996 204.149C-1.80667 202.735 -1.71358 201.295 -1.33617 199.918C1.19015 200.885 3.9593 200.49 6.68674 200.405C7.20052 200.351 7.71992 200.413 8.2072 200.585C8.68256 200.835 9.09714 201.186 9.42188 201.614L20.8927 214.811C22.6437 216.738 24.2782 218.768 25.7874 220.891C26.9919 222.649 28.0289 224.52 29.3139 226.217" fill="#20173B"/>
<path d="M8.42158 184.003C20.972 176.475 37.8438 176.176 50.0133 184.337C52.8867 186.356 55.5709 188.631 58.0324 191.135C63.7467 196.749 68.9821 202.801 72.7946 209.86C76.607 216.918 78.787 224.917 78.0547 232.858C77.2391 241.744 72.8613 249.893 67.9419 257.317C63.0225 264.742 57.3906 271.789 53.5895 279.857L55.9926 281.548C63.6888 270.801 70.6403 259.541 76.7985 247.844C80.5226 240.742 84.0647 232.938 82.9513 224.979C82.1632 219.313 79.085 214.254 75.8798 209.514C73.3122 205.737 70.6214 202.032 67.9371 198.334C65.7276 195.121 63.2657 192.088 60.5751 189.266C57.0737 185.964 53.215 183.063 49.0705 180.617C43.4919 177.104 37.6038 173.711 31.0637 172.801C28.1302 172.439 25.1626 172.451 22.2328 172.837C19.2925 173.129 16.4075 173.829 13.6605 174.916C9.74107 176.555 6.41501 179.196 3.13069 181.854L-19.3034 199.702C-20.5711 200.715 -26.9267 206.173 -23.4621 207.365C-21.0512 208.221 -14.1905 202.367 -12.4047 200.988C-5.30617 195.527 0.699661 188.666 8.42158 184.003Z" fill="#B6B6FF"/>
<path d="M-21.3331 397.094C-11.7347 387.304 -3.03758 376.668 4.65313 365.316C8.00808 360.37 11.1641 355.28 14.3263 350.212C19.9377 341.181 25.5491 332.15 31.1605 323.118C44.3896 301.852 57.5727 280.56 70.7096 259.243C77.6206 247.972 84.776 235.134 81.7168 222.272C80.2323 216.023 76.4411 210.6 72.6544 205.403C66.4948 196.997 60.0007 188.639 51.616 182.448C43.2312 176.257 32.734 172.287 22.4213 173.709C3.28429 176.328 -8.92228 195.545 -26.5186 203.439C-38.4372 208.787 -51.9904 208.581 -65.048 209.019C-78.7714 209.473 -92.456 210.728 -106.032 212.78C-114.613 214.08 -123.309 215.757 -130.912 219.944C-138.116 223.915 -143.924 229.984 -149.012 236.397C-156.443 245.785 -161.984 254.173 -164.092 266.263C-166.125 277.63 -165.012 289.339 -160.872 300.124C-155.505 313.787 -145.572 325.084 -135.839 336.074L-96.3698 380.618C-88.4098 389.599 -80.3398 398.656 -70.016 404.67C-59.6922 410.684 -46.5921 413.191 -35.7369 408.22C-30.1598 405.713 -25.6037 401.456 -21.3331 397.094Z" stroke="#20173B" stroke-width="2" stroke-linecap="round" stroke-linejoin="round"/>
<path d="M9.81145 174.103C11.7937 172.247 14.294 171.039 16.9801 170.639C19.6662 170.239 22.4111 170.666 24.85 171.863C29.2028 174.113 31.9376 178.605 33.7428 183.163C35.396 187.342 36.4541 191.733 36.8862 196.206" fill="#7673B4"/>
<path d="M9.81145 174.103C11.7937 172.247 14.294 171.039 16.9801 170.639C19.6662 170.239 22.4111 170.666 24.85 171.863C29.2028 174.113 31.9376 178.605 33.7428 183.163C35.396 187.342 36.4541 191.733 36.8862 196.206" stroke="#20173B" stroke-width="2" stroke-linecap="round" stroke-linejoin="round"/>
<path d="M2.20168 192.05C2.64366 191.649 3.19338 191.386 3.7832 191.294C4.37302 191.202 4.97722 191.284 5.52101 191.531C6.60432 192.046 7.52803 192.844 8.19427 193.842C9.43663 195.685 10.5822 197.591 11.6263 199.553C13.5614 202.631 15.7658 205.531 18.2133 208.219C21.062 211.495 23.965 214.712 26.9226 217.87C28.2309 219.335 29.6531 220.694 31.1758 221.934C34.8244 224.761 39.3746 226.206 43.1883 228.815C44.7685 229.903 46.3745 231.7 45.7518 233.505C45.5196 234.023 45.1701 234.48 44.731 234.84C44.2919 235.201 43.7752 235.454 43.2214 235.58C40.5475 236.389 37.7277 235.501 34.9964 234.858C27.8622 233.122 20.0917 232.689 14.0836 228.47C12.36 227.194 10.7571 225.761 9.29512 224.192C6.16507 221.145 3.34735 217.793 0.884132 214.186C-1.56382 210.566 -3.12488 206.421 -3.67254 202.086C-3.7997 201.318 -3.72915 200.529 -3.46747 199.796C-3.32564 199.433 -3.07104 199.125 -2.74113 198.918C-2.41123 198.711 -2.02335 198.616 -1.63483 198.645C-1.19256 198.761 -0.794367 199.005 -0.490706 199.347C1.64662 201.457 2.25648 204.533 3.34707 207.29C5.02444 211.531 7.92352 215.168 10.857 218.664C12.2496 220.393 13.7764 222.01 15.4234 223.499C18.8568 226.334 22.8684 228.384 27.1767 229.505C31.4662 230.628 35.8316 231.437 40.2382 231.926C37.4283 231.131 34.749 229.931 32.2845 228.364C30.3327 226.952 28.5183 225.358 26.8657 223.605C22.7143 219.48 18.5706 215.338 14.4347 211.18C12.7368 209.573 11.1839 207.819 9.79383 205.939C8.06166 203.458 6.91095 200.62 5.12045 198.178C4.03386 196.637 0.163695 194.189 2.20168 192.05Z" fill="#7CBC5C"/>
<path d="M-25.8723 218.608C-24.37 225.098 -20.3032 230.688 -15.9442 235.74C-5.92661 247.366 6.72291 257.515 21.6905 260.847C27.6394 262.176 33.7786 262.382 39.6361 264.026C45.4936 265.67 51.2853 269.165 53.5745 274.798C56.759 282.635 52.2391 291.295 47.8655 298.531L22.0681 341.164C12.1399 357.587 2.18966 374.031 -9.44942 389.282C-6.19764 379.52 -8.47909 368.794 -11.7574 359.035C-22.0182 328.48 -41.9228 302.207 -62.3158 277.25C-73.1119 263.991 -84.1559 250.905 -96.0115 238.591C-104.441 229.837 -113.552 221.301 -124.776 216.626C-127.122 215.499 -129.705 214.954 -132.305 215.036C-134.846 215.222 -137.509 216.753 -138.344 219.214C-138.304 214.525 -132.727 212.195 -128.092 211.174C-106.255 206.303 -83.9351 203.925 -61.5592 204.086C-51.7852 204.161 -41.9466 204.707 -32.2332 203.4C-30.2407 203.134 -22.2253 201.01 -22.2253 201.01C-22.2253 201.01 -23.7945 204.089 -24.6383 205.934C-26.4052 209.914 -26.838 214.359 -25.8723 218.608Z" fill="#BACFE0"/>
<path d="M42.8874 200.742C44.0608 200.946 45.19 201.352 46.2244 201.943C47.2784 202.623 48.2248 203.456 49.0323 204.415C54.9127 210.959 58.5407 219.215 59.3833 227.969C54.2574 225.438 48.1633 225.015 43.4505 221.765C42.0383 220.731 40.7154 219.579 39.4959 218.323L37.0453 215.93C34.927 213.87 32.6976 211.601 32.2081 208.685C31.8772 206.683 32.3606 202.537 34.3601 201.45C36.7146 200.174 40.3477 200.249 42.8874 200.742Z" fill="#B9CAD6"/>
<path d="M30.7787 184.306C30.157 182.131 29.227 180.055 28.017 178.143C23.8456 171.861 16.0413 171.391 9.56232 174.142C9.41988 174.191 9.29054 174.273 9.18409 174.38C9.07556 174.548 9.02024 174.745 9.02524 174.946C8.80528 177.079 8.7834 179.229 8.95994 181.367C9.504 186.294 13.2831 190.033 17.2472 192.598C19.3269 193.932 21.5315 195.059 23.8297 195.965C26.2013 196.911 28.4483 198.12 30.8942 198.985C33.1386 199.762 33.6445 199.516 33.6445 199.516C33.6493 195.276 33.0232 191.06 31.787 187.004C31.5651 186.407 30.9809 184.867 30.7787 184.306Z" fill="#B9CAD6"/>
<path d="M34.6352 274.971C33.532 275.649 32.4921 276.425 31.5282 277.289L28.6289 279.716C25.6106 282.058 22.8838 284.752 20.5068 287.743C18.1263 290.775 16.9224 294.567 17.1166 298.419C17.4491 302.183 20.0185 305.918 23.6961 306.929C27.3737 307.939 30.974 306.322 33.9391 304.174C39.7454 299.965 43.5911 293.646 46.0498 287.011C46.9143 284.686 48.4731 281.521 48.54 278.992C48.6069 276.462 46.0025 275.01 43.8275 274.264C42.3319 273.725 40.7393 273.51 39.1549 273.632C37.5704 273.754 36.03 274.21 34.6352 274.971Z" fill="#7673B4"/>
<path d="M14.7798 323.51C12.795 324.005 10.9754 325.013 9.50315 326.433C7.33703 328.079 5.44421 330.057 3.89439 332.293C3.11699 333.566 2.45298 334.905 1.91021 336.295C0.727573 338.865 -0.0290802 341.611 -0.330092 344.424C-0.627856 347.264 0.190556 350.109 1.95189 352.357C2.65875 353.249 3.63258 353.892 4.73078 354.191C6.74119 354.654 8.74622 353.44 10.2772 352.064C13.9605 348.689 16.3214 344.151 18.5866 339.702C19.755 337.65 20.6248 335.441 21.1694 333.144C21.939 329.251 19.8674 322.672 14.7798 323.51Z" fill="#7673B4"/>
<path d="M25.402 326.226C27.1269 326.258 28.8346 326.577 30.4549 327.17C31.4528 325.035 33.1605 323.334 34.525 321.391C35.4273 320.158 36.2418 318.828 37.0194 317.532L46.6873 301.564C46.2608 302.267 44.1938 301.801 43.5774 301.986C41.9295 302.466 42.3138 302.087 40.8337 303.429C38.7564 305.333 37.1632 308.638 35.5551 310.98C32.1073 316.003 28.723 321.085 25.402 326.226Z" fill="white"/>
<path d="M-3.47669 261.397C-6.08895 264.045 -8.2938 267.067 -10.0192 270.363C-11.8568 273.594 -13.69 276.888 -15.7498 280.024C-17.7201 283.233 -19.931 286.289 -22.3635 289.164C-24.8343 292.011 -27.5793 294.609 -30.5587 296.919C-30.5692 296.927 -30.5812 296.933 -30.594 296.936C-30.6068 296.939 -30.6201 296.94 -30.6332 296.938C-30.6462 296.936 -30.6588 296.932 -30.6701 296.925C-30.6815 296.918 -30.6914 296.909 -30.6992 296.899C-30.7126 296.881 -30.7199 296.86 -30.7203 296.839C-30.7206 296.817 -30.714 296.796 -30.7011 296.778C-28.4823 293.727 -26.1571 290.837 -23.9492 287.877C-21.7414 284.918 -19.272 282.126 -17.0961 279.087C-14.9202 276.048 -12.9186 272.953 -10.8864 269.802C-8.90788 266.594 -6.46276 263.7 -3.63147 261.213C-3.62216 261.204 -3.61119 261.198 -3.59915 261.194C-3.58712 261.19 -3.5743 261.188 -3.56165 261.19C-3.549 261.191 -3.53674 261.195 -3.5257 261.201C-3.51466 261.207 -3.50519 261.216 -3.4977 261.226C-3.48181 261.233 -3.46787 261.244 -3.45751 261.258C-3.44715 261.272 -3.44062 261.288 -3.43851 261.305C-3.4364 261.323 -3.43878 261.34 -3.44547 261.356C-3.45216 261.372 -3.46295 261.386 -3.47669 261.397Z" fill="#7673B4"/>
<path d="M2.13638 264.77C-0.268063 268.192 -2.40364 271.796 -4.25101 275.548C-6.18728 279.262 -7.97737 283.032 -9.83932 286.828C-11.6226 290.676 -13.7468 294.357 -16.1866 297.826C-18.6775 301.306 -21.8098 304.278 -25.4155 306.583C-25.4269 306.59 -25.4397 306.595 -25.453 306.597C-25.4663 306.599 -25.4798 306.599 -25.4929 306.595C-25.5059 306.592 -25.5183 306.586 -25.529 306.578C-25.5398 306.57 -25.5489 306.56 -25.5556 306.548C-25.5654 306.529 -25.5694 306.508 -25.5672 306.487C-25.565 306.465 -25.5567 306.445 -25.5433 306.429C-22.6831 303.409 -20.1027 300.136 -17.8337 296.65C-15.5627 293.212 -13.3324 289.73 -11.2776 286.057C-9.22279 282.383 -7.26625 278.691 -5.14024 275.007C-3.04023 271.354 -0.659045 267.87 1.9816 264.587C1.98889 264.576 1.99824 264.567 2.00929 264.56C2.02033 264.554 2.03283 264.55 2.04564 264.548C2.05845 264.547 2.07143 264.548 2.08369 264.552C2.09595 264.556 2.10708 264.563 2.11657 264.571C2.14295 264.569 2.16933 264.577 2.18984 264.594C2.21034 264.61 2.22337 264.635 2.22598 264.661C2.2286 264.688 2.2205 264.714 2.2037 264.734C2.18689 264.755 2.16276 264.768 2.13638 264.77Z" fill="#7673B4"/>
<path d="M8.58368 268.152C5.3768 271.799 2.75269 275.92 0.804148 280.369C-1.2523 284.735 -2.8856 289.298 -4.56131 293.858C-6.23701 298.419 -7.81085 303.076 -10.2394 307.377C-12.5363 311.769 -15.7359 315.626 -19.6285 318.694C-19.6511 318.706 -19.6767 318.711 -19.702 318.707C-19.7273 318.704 -19.7508 318.692 -19.769 318.674C-19.8028 318.637 -19.8299 318.608 -19.7636 318.547C-16.6727 314.868 -14.0586 310.814 -11.9833 306.479C-9.88021 302.178 -7.87224 297.788 -6.02275 293.299C-4.17325 288.81 -2.32258 284.292 -0.0622665 279.956C2.15348 275.59 5.02221 271.589 8.44497 268.09C8.46517 268.071 8.4916 268.061 8.51911 268.061C8.54662 268.06 8.5731 268.071 8.59346 268.089C8.59721 268.111 8.59379 268.133 8.58368 268.152Z" fill="#7673B4"/>
<path d="M14.8315 273.372C11.9314 277.454 9.0385 281.53 6.40791 285.758C3.69829 289.924 1.38984 294.338 -0.486532 298.94C-2.3532 303.499 -3.24412 308.399 -4.92898 313.171C-5.74691 315.579 -6.79499 317.902 -8.05869 320.108C-9.31366 322.334 -10.9674 324.309 -12.9374 325.936C-12.9473 325.945 -12.9591 325.953 -12.9721 325.957C-12.9852 325.961 -12.9991 325.962 -13.0126 325.96C-13.0262 325.958 -13.0391 325.953 -13.0504 325.946C-13.0618 325.938 -13.0713 325.927 -13.0781 325.916C-13.0914 325.898 -13.0988 325.877 -13.0991 325.856C-13.0995 325.834 -13.0927 325.813 -13.0799 325.795C-9.93711 321.83 -8.27436 317.241 -6.87439 312.512C-5.59071 307.655 -3.96649 302.894 -2.0138 298.265C0.0801118 293.676 2.59772 289.294 5.50635 285.174C8.37951 281.062 11.4922 277.138 14.6043 273.228C14.6207 273.209 14.6437 273.196 14.6688 273.194C14.6938 273.191 14.7191 273.198 14.7394 273.213C14.7499 273.207 14.7614 273.203 14.7734 273.201C14.7854 273.199 14.7977 273.2 14.8094 273.203C14.8211 273.207 14.832 273.212 14.8416 273.219C14.8512 273.227 14.8592 273.236 14.8652 273.246C14.8713 273.257 14.8752 273.268 14.8768 273.28C14.8784 273.292 14.8776 273.305 14.8745 273.316C14.8713 273.328 14.8659 273.339 14.8585 273.348C14.8512 273.358 14.842 273.366 14.8315 273.372Z" fill="#7673B4"/>
<path d="M24.6058 274.912C20.0756 279.071 16.3484 284.027 13.6095 289.534C10.8391 295.01 8.43003 300.661 6.39786 306.452C4.27361 312.224 2.25079 318.106 -0.682797 323.616C-2.12418 326.374 -3.78791 329.01 -5.65742 331.498L-7.12315 333.33L-8.6774 335.08L-10.3331 336.719C-10.9077 337.246 -11.4823 337.772 -12.09 338.248C-12.1106 338.264 -12.1359 338.272 -12.1617 338.271C-12.1876 338.27 -12.2121 338.259 -12.2312 338.242C-12.2448 338.222 -12.2522 338.199 -12.2524 338.175C-12.2526 338.151 -12.2458 338.127 -12.2325 338.107C-11.7464 337.499 -11.254 336.912 -10.7617 336.326L-9.37394 334.497L-8.04813 332.631L-6.80468 330.705C-5.21609 328.103 -3.76808 325.417 -2.46687 322.66C0.161555 317.172 2.5634 311.526 4.89704 305.82C7.13955 300.051 9.75748 294.435 12.7338 289.008C15.7357 283.565 19.7123 278.72 24.4658 274.715C24.4763 274.707 24.4883 274.701 24.5011 274.698C24.5139 274.695 24.5272 274.694 24.5403 274.696C24.5533 274.698 24.5659 274.702 24.5772 274.709C24.5886 274.716 24.5986 274.725 24.6065 274.736C24.6225 274.744 24.636 274.757 24.6453 274.772C24.6547 274.788 24.6595 274.806 24.6595 274.824C24.6594 274.842 24.6545 274.86 24.645 274.876C24.6356 274.891 24.622 274.904 24.6058 274.912Z" fill="#7673B4"/>
<path d="M14.0498 304.552C13.1097 306.662 12.121 308.748 11.16 310.849L8.18739 317.1C7.26966 319.219 6.2451 321.29 5.11767 323.305C3.94176 325.314 2.59065 327.215 1.0801 328.985C1.07182 328.997 1.06122 329.007 1.04894 329.014C1.03665 329.021 1.023 329.025 1.00889 329.026C0.994781 329.028 0.980565 329.026 0.967127 329.022C0.95369 329.017 0.941391 329.01 0.931009 329C0.917551 328.986 0.907567 328.969 0.902215 328.95C0.896861 328.931 0.896221 328.912 0.900206 328.893C1.52188 326.648 2.3408 324.464 3.34729 322.364C4.30154 320.255 5.61497 318.346 6.76942 316.352L10.3022 310.401C11.4984 308.423 12.6738 306.438 13.8976 304.475C13.912 304.453 13.9342 304.438 13.9595 304.433C13.9848 304.427 14.0113 304.432 14.0333 304.446C14.0461 304.46 14.0543 304.478 14.0573 304.497C14.0602 304.515 14.0576 304.535 14.0498 304.552Z" fill="#7673B4"/>
<path d="M18.6338 309.968C18.518 310.847 18.3388 311.717 18.1598 312.586C17.9807 313.455 17.7452 314.323 17.4685 315.159C17.2931 316.035 16.9822 316.879 16.5469 317.659C16.048 318.46 15.3609 319.126 14.5456 319.601C14.5165 319.615 14.4833 319.618 14.4523 319.609C14.4213 319.6 14.3948 319.579 14.378 319.552C14.3319 318.631 14.458 317.711 14.75 316.837C15.0844 316.041 15.5037 315.284 16.0008 314.578L17.232 312.284C17.6542 311.517 18.0346 310.734 18.4434 309.953C18.4493 309.941 18.4577 309.93 18.4679 309.921C18.478 309.913 18.4897 309.906 18.5024 309.902C18.5151 309.898 18.5285 309.897 18.5418 309.898C18.5551 309.899 18.5679 309.903 18.5797 309.909C18.6045 309.921 18.6238 309.942 18.6338 309.968Z" fill="#7673B4"/>
<path d="M27.8086 310.647C27.4612 311.481 27.0728 312.284 26.6979 313.103C26.3229 313.921 25.913 314.731 25.5098 315.548C25.1829 316.391 24.7464 317.188 24.2116 317.917C23.6133 318.654 22.8636 319.253 22.0133 319.675C22.0001 319.681 21.9858 319.684 21.9712 319.684C21.9567 319.685 21.9422 319.682 21.9286 319.677C21.915 319.672 21.9025 319.664 21.892 319.654C21.8814 319.644 21.8731 319.632 21.8673 319.619C21.9074 318.661 22.1455 317.723 22.5665 316.862C23.0046 316.086 23.5447 315.372 24.1722 314.739C24.7265 314.028 25.2868 313.338 25.8755 312.649C26.4642 311.96 27.0454 311.278 27.6685 310.612C27.6763 310.601 27.6866 310.592 27.6986 310.585C27.7105 310.578 27.7239 310.575 27.7376 310.574C27.7513 310.573 27.7648 310.575 27.7775 310.581C27.7901 310.586 27.8014 310.594 27.8104 310.604C27.8125 310.619 27.8119 310.633 27.8086 310.647Z" fill="#7673B4"/>
<path d="M43.1682 201.285C44.3427 201.485 45.4725 201.891 46.505 202.486C47.559 203.165 48.5056 203.999 49.3131 204.958C55.1978 211.499 58.8264 219.756 59.6641 228.513C54.5382 225.981 48.4513 225.551 43.7385 222.302C42.3232 221.271 41 220.119 39.7839 218.859L37.3261 216.473C35.2078 214.413 32.9783 212.143 32.4961 209.222C32.1653 207.219 32.6414 203.08 34.6409 201.993C36.9751 200.695 40.5714 200.803 43.1682 201.285Z" stroke="#20173B" stroke-width="2" stroke-linecap="round" stroke-linejoin="round"/>
<path d="M31.0464 184.82C30.4209 182.646 29.4912 180.571 28.2848 178.657C24.1061 172.382 16.3018 171.912 9.82278 174.662C9.68034 174.712 9.551 174.794 9.44455 174.901C9.33602 175.069 9.2807 175.266 9.2857 175.467C9.06939 177.601 9.04752 179.75 9.2204 181.888C9.77183 186.808 13.5434 190.553 17.5075 193.119C19.5898 194.45 21.797 195.576 24.0976 196.479C26.4691 197.425 28.7088 198.641 31.162 199.499C33.4064 200.277 33.9123 200.03 33.9123 200.03C33.9125 195.791 33.2866 191.575 32.0548 187.518C31.833 186.921 31.2412 185.388 31.0464 184.82Z" stroke="#20173B" stroke-width="2" stroke-linecap="round" stroke-linejoin="round"/>
<path d="M40.4835 197.439C43.0441 196.968 45.6878 197.529 47.8373 199C49.9525 200.473 51.8399 202.248 53.4391 204.269C55.6692 206.851 57.8442 209.564 58.9797 212.755C59.5777 214.591 59.9936 216.481 60.2215 218.399C60.8106 221.624 61.0131 224.909 60.8246 228.182" stroke="#20173B" stroke-width="2" stroke-linecap="round" stroke-linejoin="round"/>
<path d="M32.0695 201.746C28.2559 201.426 24.5133 200.524 20.9716 199.072C19.4098 198.449 17.9145 197.67 16.5088 196.747C15.1002 195.754 13.7847 194.635 12.5783 193.405C10.5401 191.41 8.61173 189.306 6.80183 187.102C6.14493 186.366 5.59476 185.542 5.16736 184.653C4.26606 182.59 4.64372 180.236 5.07849 178.034C5.17068 177.389 5.38218 176.767 5.70236 176.201C6.10719 175.643 6.71405 175.266 7.39327 175.151C8.07249 175.035 8.77018 175.19 9.3372 175.582C7.95236 179.469 8.95436 183.949 11.283 187.362C13.7451 190.711 17.0298 193.368 20.8189 195.075C24.5323 196.894 28.4899 198.136 32.3531 199.601C32.6663 199.72 33.0447 199.971 32.9748 200.279C32.9001 200.422 32.7776 200.534 32.6285 200.596C31.7036 201.139 30.704 201.543 29.6618 201.796" fill="#D877AE"/>
<path d="M32.0695 201.746C28.2559 201.426 24.5133 200.524 20.9716 199.072C19.4098 198.449 17.9145 197.67 16.5088 196.747C15.1002 195.754 13.7847 194.635 12.5783 193.405C10.5401 191.41 8.61173 189.306 6.80183 187.102C6.14493 186.366 5.59476 185.542 5.16735 184.653C4.26606 182.59 4.64372 180.236 5.07849 178.034C5.17068 177.389 5.38218 176.767 5.70236 176.201C6.10719 175.643 6.71405 175.266 7.39327 175.151C8.07249 175.035 8.77018 175.19 9.3372 175.582C7.95236 179.469 8.95436 183.949 11.283 187.362C13.7451 190.711 17.0298 193.368 20.8189 195.075C24.5323 196.894 28.4899 198.136 32.3531 199.601C32.6663 199.72 33.0447 199.971 32.9748 200.279C32.9001 200.422 32.7776 200.534 32.6285 200.596C31.7036 201.139 30.704 201.543 29.6618 201.796" stroke="#20173B" stroke-width="2" stroke-linecap="round" stroke-linejoin="round"/>
<path d="M20.0964 174.47C17.8894 175.246 15.9055 176.549 14.3162 178.266C12.7269 179.982 11.5804 182.06 10.9759 184.321C10.6838 185.168 10.6788 186.087 10.9618 186.938C11.2706 187.558 11.7166 188.1 12.2658 188.523C15.3907 191.264 18.9018 193.531 22.6862 195.249C23.4496 195.637 24.2737 195.891 25.1228 196C27.4702 196.195 29.4728 194.387 30.9527 192.556C31.5184 191.952 31.9184 191.211 32.1138 190.407C32.1795 189.837 32.142 189.26 32.0034 188.704C30.9821 183.197 27.6426 171.908 20.0964 174.47Z" fill="#20173B"/>
<path d="M39.1465 203.33C37.5339 204.708 36.3047 206.48 35.5778 208.473C34.9598 209.755 34.7613 211.199 35.0104 212.601C35.6029 214.933 38.0384 216.2 39.8072 217.835C41.3241 219.238 42.4895 221.087 44.2919 222.107C45.4197 222.74 46.7174 223.002 48.0019 222.857C49.6242 222.585 51.1442 221.885 52.4051 220.829C54.0374 219.563 55.5268 217.846 55.63 215.785C55.7173 213.928 54.6515 212.232 53.6509 210.667C50.5624 206.011 45.2866 198.435 39.1465 203.33Z" fill="#20173B"/>
<path d="M2.20168 192.05C2.64366 191.649 3.19338 191.386 3.7832 191.294C4.37302 191.202 4.97722 191.284 5.52101 191.531C6.60432 192.046 7.52803 192.844 8.19427 193.842C9.43663 195.685 10.5822 197.591 11.6263 199.553C13.5614 202.631 15.7658 205.531 18.2133 208.219C21.062 211.495 23.965 214.712 26.9226 217.87C28.2309 219.335 29.6531 220.694 31.1758 221.934C34.8244 224.761 39.3746 226.206 43.1883 228.815C44.7685 229.903 46.3745 231.7 45.7518 233.505C45.5196 234.023 45.1701 234.48 44.731 234.84C44.2919 235.201 43.7752 235.454 43.2214 235.58C40.5475 236.389 37.7277 235.501 34.9964 234.858C27.8622 233.122 20.0917 232.689 14.0836 228.47C12.36 227.194 10.7571 225.761 9.29512 224.192C6.16507 221.145 3.34735 217.793 0.884133 214.186C-1.56382 210.566 -3.12488 206.421 -3.67254 202.086C-3.7997 201.318 -3.72915 200.529 -3.46747 199.796C-3.32564 199.433 -3.07104 199.125 -2.74113 198.918C-2.41123 198.711 -2.02335 198.616 -1.63483 198.645C-1.19256 198.761 -0.794367 199.005 -0.490706 199.347C1.64662 201.457 2.25648 204.533 3.34707 207.29C5.02444 211.531 7.92352 215.168 10.857 218.664C12.2496 220.393 13.7764 222.01 15.4234 223.499C18.8568 226.334 22.8684 228.384 27.1767 229.505C31.4662 230.628 35.8316 231.437 40.2382 231.926C37.4283 231.131 34.749 229.931 32.2845 228.364C30.3327 226.952 28.5183 225.358 26.8657 223.605C22.7143 219.48 18.5706 215.338 14.4347 211.18C12.7368 209.573 11.1839 207.819 9.79383 205.939C8.06166 203.458 6.91095 200.62 5.12045 198.178C4.03386 196.637 0.163695 194.189 2.20168 192.05Z" stroke="#20173B" stroke-width="2" stroke-linecap="round" stroke-linejoin="round"/>
<path d="M32.1965 246.607C32.0451 246.522 31.912 246.408 31.805 246.271C31.698 246.135 31.6191 245.978 31.573 245.811C31.5269 245.644 31.5145 245.469 31.5365 245.297C31.5585 245.125 31.6145 244.959 31.7012 244.809C31.9145 244.568 32.1827 244.382 32.4833 244.267C32.7839 244.153 33.1078 244.112 33.4276 244.149C34.2145 244.15 34.9821 244.394 35.6259 244.847C35.958 245.074 36.2333 245.375 36.4304 245.726C36.6275 246.077 36.7411 246.469 36.7624 246.871C36.7281 247.145 36.6319 247.408 36.4808 247.64C36.3297 247.871 36.1277 248.065 35.8904 248.206C35.653 248.348 35.3866 248.434 35.1111 248.457C34.8356 248.48 34.5583 248.44 34.3005 248.34C33.104 247.902 32.1196 247.024 31.5485 245.885C31.4809 245.811 31.4447 245.668 31.5184 245.6C31.592 245.533 31.7173 245.744 31.6264 245.718" fill="#7CBC5C"/>
<path d="M32.1965 246.607C32.0451 246.522 31.912 246.408 31.805 246.271C31.698 246.135 31.6191 245.978 31.573 245.811C31.5269 245.644 31.5145 245.469 31.5365 245.297C31.5585 245.125 31.6145 244.959 31.7012 244.809C31.9145 244.568 32.1827 244.382 32.4833 244.267C32.7839 244.153 33.1078 244.112 33.4276 244.149C34.2145 244.15 34.9821 244.394 35.6259 244.847C35.958 245.074 36.2333 245.375 36.4304 245.726C36.6275 246.077 36.7411 246.469 36.7624 246.871C36.7281 247.145 36.6319 247.408 36.4808 247.64C36.3297 247.871 36.1277 248.065 35.8904 248.206C35.653 248.348 35.3866 248.434 35.1111 248.457C34.8356 248.48 34.5583 248.44 34.3005 248.34C33.104 247.902 32.1196 247.024 31.5485 245.885C31.4809 245.811 31.4447 245.668 31.5184 245.6C31.592 245.533 31.7173 245.744 31.6264 245.718" stroke="#20173B" stroke-width="2" stroke-linecap="round" stroke-linejoin="round"/>
<path d="M42.3939 255.219C42.5965 255.416 42.7572 255.651 42.8663 255.912C42.9179 256.165 42.9064 256.426 42.8328 256.674C42.7592 256.921 42.6257 257.146 42.4442 257.33C41.0367 259.121 39.1787 261.353 36.5331 260.034C35.6831 259.607 34.9352 259.001 34.3409 258.259C33.7465 257.516 33.3198 256.653 33.0898 255.73C32.8912 254.95 33.0036 254.123 33.4034 253.425C33.8033 252.727 34.4593 252.212 35.2324 251.99C37.8982 250.876 40.3799 253.036 42.3939 255.219Z" fill="#7CBC5C" stroke="#20173B" stroke-width="2" stroke-linecap="round" stroke-linejoin="round"/>
<path d="M4.83678 198.031C3.76908 198.345 0.642192 199.163 0.043275 200.58C-0.0295678 200.885 -0.0409437 201.201 0.0100596 201.511C0.0610626 201.821 0.17344 202.117 0.34033 202.383C0.958996 203.691 1.6654 204.956 2.45474 206.169C2.63614 206.567 2.9389 206.897 3.31954 207.112C3.82438 207.251 4.36307 207.185 4.82007 206.931C6.17759 206.351 7.42216 205.536 8.49678 204.524C8.06985 203.762 7.55761 202.849 7.12448 201.903C6.55804 200.506 5.78696 199.201 4.83678 198.031Z" fill="white" stroke="#20173B" stroke-width="2" stroke-linecap="round" stroke-linejoin="round"/>
<path d="M15.8138 223.141C16.8293 223.535 17.8231 223.982 18.7909 224.482C19.6728 225.03 20.5788 225.841 21.7699 225.454C22.2503 225.259 22.693 224.981 23.0787 224.635C23.8153 223.959 24.5519 223.284 25.2886 222.609C23.9545 220.902 18.1945 215.86 18.1945 215.86C18.1945 215.86 16.0018 218.303 15.0847 219.225C14.1676 220.147 13.4536 220.625 13.8744 221.69C14.3445 222.374 15.0259 222.883 15.8138 223.141Z" fill="white" stroke="#20173B" stroke-width="2" stroke-linecap="round" stroke-linejoin="round"/>
<path d="M-7.9058 382.049C-7.11333 378.773 -7.82776 375.331 -8.62744 372.063C-13.8027 351.102 -22.4902 331.167 -34.3214 313.104C-42.7773 300.21 -52.7655 288.395 -62.72 276.616L-73.6233 263.714C-86.3711 248.636 -99.2682 233.411 -115.101 221.622C-118.111 219.388 -121.342 217.223 -125.044 216.6C-128.366 216.037 -139.163 222.447 -133.656 223.368C-128.6 224.289 -123.744 226.084 -119.304 228.675C-116.962 230.195 -114.759 231.921 -112.721 233.831C-110.655 235.302 -108.607 236.842 -106.582 238.282C-100.799 242.406 -95.3908 247.03 -90.4192 252.102C-82.4637 260.043 -74.7391 268.249 -67.3878 276.744C-52.9884 293.387 -39.6238 311.873 -31.6879 332.541L-31.3603 333.15C-27.7849 340.127 -25.7169 347.767 -23.6813 355.341L-17.7633 377.357C-16.2932 382.791 -14.9449 388.921 -17.9026 393.68C-13.6514 390.584 -9.15034 387.109 -7.9058 382.049Z" fill="#4444A0"/>
<path d="M-5.78386 376.496C-6.3163 377.252 -6.72714 378.086 -7.00144 378.969C-7.19011 379.891 -7.25947 380.835 -7.20768 381.775C-7.22219 384.076 -7.54003 386.365 -8.15282 388.582C2.99447 375.87 14.1951 359.962 21.0134 344.45C13.8044 344.939 11.353 351.242 7.41794 356.842C2.82879 363.281 -1.57178 369.833 -5.78386 376.496Z" fill="white"/>
<path d="M75.2062 154.711C76.8588 153.305 78.4647 151.833 80.0092 150.309" stroke="#20173B" stroke-width="2" stroke-linecap="round" stroke-linejoin="round"/>
<path d="M88.5561 171.406C89.4947 170.736 90.3481 169.954 91.0975 169.077" stroke="#20173B" stroke-width="2" stroke-linecap="round" stroke-linejoin="round"/>
<path d="M38.3707 273.663C35.7124 274.457 33.2541 275.808 31.1599 277.627C25.474 281.997 19.9769 287.239 17.8978 294.095C16.9303 297.328 16.8723 301.125 18.987 303.758C21.1018 306.39 24.8818 307.158 28.1592 306.46C31.4367 305.762 34.3277 303.858 36.9969 301.846C42.8897 297.435 49.4754 291.237 51.0263 283.671C52.3509 277.249 43.8443 272.404 38.3707 273.663Z" stroke="#20173B" stroke-width="2" stroke-linecap="round" stroke-linejoin="round"/>
<path d="M20.3381 326.025C19.865 325.092 19.111 324.33 18.1824 323.847C17.2539 323.365 16.1977 323.186 15.1624 323.336C13.0972 323.689 11.1765 324.626 9.62655 326.036C5.08261 329.726 1.78018 334.722 0.164472 340.35C-0.827501 343.823 -1.11509 347.694 0.412817 350.973C0.7377 351.766 1.24375 352.471 1.89031 353.033C2.53687 353.594 3.30602 353.997 4.13593 354.207C6.01122 354.523 7.794 353.378 9.24768 352.154C12.559 349.324 15.2603 345.85 17.1877 341.943C19.1151 338.036 20.2282 333.778 20.4598 329.426" stroke="#20173B" stroke-width="2" stroke-linecap="round" stroke-linejoin="round"/>
<path d="M50.9291 188.354C51.3677 188.617 51.8734 188.748 52.3845 188.729C52.9936 188.591 53.5444 188.267 53.9599 187.801L79.7911 164.357C80.1934 164.068 80.4916 163.657 80.6412 163.184C80.6822 162.671 80.5471 162.158 80.2582 161.731C77.66 156.973 73.6402 153.146 68.7611 150.784C68.3954 150.575 67.9734 150.488 67.5551 150.533C67.1285 150.659 66.753 150.917 66.483 151.271C58.7289 159.625 52.1148 168.943 45.5227 178.24C42.9269 181.826 47.6818 186.718 50.9291 188.354Z" fill="#7CBC5C"/>
<path d="M80.8627 169.682C81.1104 169.347 81.4205 169.062 81.7761 168.845C82.6682 168.339 83.7956 168.771 84.656 169.325C86.1394 170.291 87.3822 171.583 88.289 173.103C89.1958 174.623 89.7425 176.331 89.8872 178.094L81.9821 184.539C76.3718 189.125 70.7179 193.737 64.3042 197.106C63.9824 197.299 63.618 197.409 63.2432 197.427C62.7757 197.361 62.3428 197.143 62.0107 196.807C60.272 195.294 58.4744 193.348 59.7909 191.205C61.2989 188.724 65.1948 186.483 67.3274 184.447C72.1554 179.825 76.6767 174.893 80.8627 169.682Z" fill="#7CBC5C"/>
<path d="M21.834 176.662C22.0024 176.573 22.1944 176.539 22.383 176.565C22.5475 176.618 22.6983 176.707 22.8245 176.825C24.3165 178.096 25.6574 179.534 26.8205 181.111C26.1828 181.068 25.5433 181.162 24.9453 181.388C24.3473 181.613 23.8047 181.964 23.354 182.417C22.0592 180.986 20.6439 179.669 19.1236 178.481C19.8966 177.7 20.8182 177.081 21.834 176.662Z" fill="white"/>
<path d="M17.6445 181.274C18.0916 181.265 18.5261 181.423 18.8634 181.717C19.2022 182.005 19.5041 182.335 19.762 182.697C19.8156 182.759 19.8515 182.834 19.8658 182.914C19.855 183.009 19.8082 183.095 19.7351 183.156C19.4768 183.454 19.1851 183.721 18.8659 183.953C18.6672 184.112 18.4227 184.203 18.1684 184.212C17.9501 184.163 17.7476 184.059 17.58 183.91C17.2878 183.707 17.029 183.459 16.8125 183.176C16.6813 183.009 16.5978 182.808 16.5711 182.597C16.5443 182.386 16.5752 182.171 16.6605 181.976C16.7458 181.781 16.8823 181.613 17.0556 181.49C17.2288 181.366 17.4323 181.292 17.6445 181.274Z" fill="white"/>
<path d="M45.6068 204.286L50.1972 208.896C48.7563 209.15 47.398 209.748 46.2377 210.639C44.9473 209.231 43.5759 207.897 42.2265 206.543C42.057 206.373 45.3833 204.383 45.6068 204.286Z" fill="white"/>
<path d="M40.7771 210.123C40.7286 209.995 40.7111 209.858 40.7257 209.722C40.7403 209.586 40.7867 209.455 40.8613 209.341C40.9358 209.226 41.0365 209.131 41.1548 209.062C41.2732 208.994 41.406 208.954 41.5426 208.947C41.8655 208.986 42.171 209.115 42.4249 209.318C42.8473 209.574 43.2253 209.896 43.5439 210.273C43.6979 210.467 43.8005 210.697 43.8419 210.941C43.8833 211.186 43.8622 211.436 43.7808 211.67C43.6644 211.905 43.49 212.107 43.2743 212.256C42.9299 212.514 42.5137 212.659 42.0833 212.669C41.653 212.679 41.2302 212.555 40.8736 212.314C40.705 212.184 40.5642 212.022 40.4596 211.837C40.355 211.652 40.2886 211.448 40.2647 211.237C40.2408 211.026 40.2598 210.812 40.3205 210.609C40.3811 210.405 40.4821 210.216 40.6175 210.052" fill="white"/>
<path d="M33.2642 182.286C31.3528 177.731 28.176 173.48 23.6729 171.436C19.1698 169.392 13.2882 170.103 10.0975 173.868C12.9619 173.345 15.8699 173.096 18.782 173.124C23.214 173.213 27.0417 177.463 29.0788 181.402C30.9669 184.705 32.1437 188.367 32.5336 192.152L33.6238 201.135C36.3643 201.567 39.1923 200.304 41.9058 200.869C43.5335 201.306 45.0385 202.113 46.3033 203.227C53.8293 209.203 59.0768 217.58 61.1675 226.958C61.9442 222.575 61.4315 218.06 59.6917 213.961C57.9489 209.888 55.563 206.121 52.6251 202.804C50.8882 200.761 48.9227 198.765 46.432 197.792C43.3978 196.626 40.0081 197.142 36.8233 197.66C37.8916 197.495 33.7895 183.554 33.2642 182.286Z" fill="#D877AE" stroke="#20173B" stroke-width="2" stroke-linecap="round" stroke-linejoin="round"/>
<path d="M37.1918 217.125C38.21 218.335 39.3338 219.453 40.5497 220.464C45.8602 224.779 53.2322 225.428 59.3155 228.561C58.7274 229.398 57.5104 229.401 56.4972 229.272C53.0702 228.748 49.6909 227.949 46.3918 226.883C44.6091 226.426 42.8715 225.807 41.201 225.034C38.1647 223.336 35.4896 221.06 33.3263 218.335C31.6999 216.59 30.3275 214.624 29.2491 212.496C28.5106 210.922 26.6542 203.454 30.019 203.354C33.0645 203.275 32.6584 209.561 33.295 211.202C34.254 213.38 35.5712 215.382 37.1918 217.125Z" fill="#D877AE" stroke="#20173B" stroke-width="2" stroke-linecap="round" stroke-linejoin="round"/>
<path d="M45.4391 181.151C46.131 177.274 47.8781 173.664 50.4886 170.718C52.176 168.832 54.1976 167.237 55.769 165.254C56.6666 164.088 57.4986 162.873 58.2609 161.614C60.1229 158.448 62.2868 155.471 64.7224 152.722C66.5824 150.773 68.6721 151.205 70.8007 152.699C66.7371 157.508 61.9039 161.788 57.7028 166.507C53.5017 171.225 49.3491 176.13 45.4391 181.151Z" fill="#D3EA73"/>
<path d="M50.0405 187.147C50.2439 187.481 50.5446 187.744 50.9021 187.902C51.2596 188.059 51.6568 188.103 52.04 188.028C52.8041 187.864 53.5204 187.528 54.1341 187.044C56.5552 185.293 58.853 183.378 61.011 181.312C64.0901 178.489 67.1556 175.657 70.2073 172.815C73.1539 170.115 76.6065 167.493 79.0821 164.397C79.5147 163.85 79.7166 163.155 79.6449 162.461C79.5731 161.766 79.2334 161.128 78.698 160.68C74.7408 163.683 71.1841 167.566 67.5156 170.928L56.3572 181.277L50.0405 187.147Z" fill="#609E3C"/>
<path d="M50.7363 188.232C51.1709 188.493 51.6712 188.623 52.1775 188.607C52.7881 188.472 53.3412 188.15 53.7596 187.686L79.5982 164.235C79.994 163.943 80.2866 163.532 80.4342 163.062C80.4796 162.551 80.3466 162.041 80.058 161.617C77.4561 156.857 73.4346 153.028 68.5541 150.662C68.1871 150.457 67.7662 150.369 67.3481 150.411C66.9227 150.539 66.5495 150.8 66.2829 151.156C58.5294 159.496 51.9145 168.828 45.3223 178.125C42.7272 181.697 47.489 186.597 50.7363 188.232Z" stroke="#20173B" stroke-width="2" stroke-linecap="round" stroke-linejoin="round"/>
<path d="M59.8404 193.167L59.161 192.026L73.1223 179.028C74.1762 178.103 75.1417 177.082 76.0062 175.978C76.6144 175.162 77.076 174.305 77.656 173.489C78.7396 172.053 79.9654 170.729 81.3146 169.539C81.4882 169.351 81.6936 169.194 81.9216 169.077C82.3179 168.955 82.7418 168.953 83.1397 169.071C83.5375 169.189 83.8915 169.422 84.1568 169.742C84.7748 170.667 83.6242 171.261 82.976 171.855C81.1196 173.556 79.2584 175.262 77.3922 176.972L66.1362 187.288L59.8404 193.167Z" fill="#D3EA73"/>
<path d="M74.3501 187.288C70.6228 190.635 66.57 193.599 62.252 196.138C62.3698 196.414 62.5809 196.638 62.8482 196.773C63.1156 196.908 63.4217 196.944 63.7128 196.874C64.2893 196.723 64.8224 196.438 65.2698 196.044C73.1535 190.094 81.9684 185.352 89.1789 178.608C89.3734 178.45 89.5196 178.241 89.6011 178.004C89.6456 177.286 89.4359 176.576 89.0087 175.997C88.3755 175.424 87.9016 175.913 87.3595 176.342C85.8782 177.55 84.4374 178.803 82.9764 180.033C80.1058 182.447 77.1125 184.757 74.3501 187.288Z" fill="#609E3C"/>
<path d="M80.9217 169.628C81.1718 169.29 81.4844 169.004 81.8425 168.784C82.7345 168.278 83.8546 168.717 84.7224 169.264C86.2053 170.231 87.4471 171.525 88.3527 173.046C89.2582 174.568 89.8034 176.276 89.9463 178.04L82.0411 184.485C76.4382 189.064 70.7769 193.683 64.3632 197.052C64.043 197.248 63.6776 197.359 63.3022 197.373C62.8309 197.319 62.3941 197.099 62.0697 196.753C60.331 195.24 58.526 193.3 59.8425 191.158C61.3505 188.677 65.2464 186.436 67.3864 184.393C72.2144 179.771 76.7357 174.839 80.9217 169.628Z" stroke="#20173B" stroke-width="2" stroke-linecap="round" stroke-linejoin="round"/>
<path d="M-25.4129 219.109C-23.9106 225.599 -19.8438 231.19 -15.4848 236.242C-5.4672 247.867 7.18249 258.016 22.15 261.348C28.099 262.678 34.2447 262.891 40.1023 264.535C45.9598 266.179 51.7447 269.666 54.034 275.299C57.2184 283.137 52.6985 291.796 48.3249 299.033L22.5275 341.665C12.5993 358.088 2.64907 374.532 -8.99001 389.784C-5.73823 380.022 -8.01952 369.295 -11.2978 359.536C-21.5586 328.982 -41.4634 302.708 -61.8564 277.751C-72.6524 264.492 -83.6965 251.407 -95.5521 239.092C-103.982 230.338 -113.093 221.802 -124.31 217.135C-126.657 216.003 -129.242 215.455 -131.846 215.537C-134.387 215.723 -137.049 217.255 -137.918 219.678C-137.878 214.99 -132.302 212.659 -127.666 211.639C-105.83 206.768 -83.5095 204.39 -61.1336 204.55C-51.3596 204.626 -41.521 205.171 -31.8008 203.872C-29.8151 203.598 -21.7929 201.481 -21.7929 201.481C-21.7929 201.481 -23.3622 204.561 -24.206 206.406C-25.9702 210.397 -26.3936 214.854 -25.4129 219.109Z" stroke="#20173B" stroke-width="2" stroke-linecap="round" stroke-linejoin="round"/>
<path d="M132.36 282.454C134.864 278.043 136.704 273.44 136.92 268.618C135.173 269.417 133.312 269.941 131.405 270.172C121.199 271.903 110.894 273.644 100.55 273.168C97.5573 272.883 94.5458 272.853 91.5481 273.077C89.5601 273.381 87.5956 273.822 85.6686 274.397C72.4847 277.921 58.7563 279.801 45.1359 278.856L28.2798 300.232C45.8796 301.113 63.4807 298.57 80.1071 292.745C81.3186 294.999 84.3978 296.761 86.3303 295.099C87.0013 294.32 87.5879 293.473 88.0807 292.572C89.3243 290.971 91.5108 290.473 93.5222 290.094C106.483 287.642 119.554 285.578 132.36 282.454Z" fill="#7673B4"/>
<path d="M119.678 354.422C108.308 352.798 96.9224 351.052 85.8908 347.83C80.4974 346.249 75.1268 344.308 69.5054 344.075C67.5565 343.989 65.5984 344.116 63.6796 343.989C61.3546 343.73 59.0449 343.348 56.7605 342.843C51.5687 341.995 46.3296 341.469 41.0732 341.27C35.0185 340.914 28.9637 340.558 22.909 340.203C20.4885 340.061 6.8993 338.396 6.14415 341.136C5.01478 345.169 16.3175 342.934 18.054 342.862C23.4315 342.626 28.8185 342.663 34.2149 342.97C44.8922 343.563 55.4851 345.214 65.8382 347.897C66.8468 348.249 67.9269 348.345 68.9814 348.177C69.5752 348.026 70.127 347.696 70.7214 347.531C71.7401 347.319 72.794 347.341 73.8032 347.596C84.7922 349.515 95.7953 351.434 106.571 354.186C110.601 355.226 114.612 356.393 118.727 357.097L119.029 357.145C119.216 356.255 119.461 355.339 119.678 354.422Z" fill="#4444A0"/>
<path d="M-14.0205 364.418L-14.3148 363.535C-17.5755 353.753 -21.3671 344.156 -25.6724 334.786C-30.3046 325.088 -36.3021 316.208 -41.081 306.63C-42.3318 304.142 -43.188 300.708 -44.8256 298.493L-35.3565 311.353C-33.9265 313.298 -32.4899 315.25 -31.1624 317.275C-28.4365 321.632 -25.988 326.156 -23.8313 330.82C-17.0754 344.743 -10.5662 358.974 -7.63591 374.165C-6.92698 377.896 -6.38616 381.917 -7.71825 385.566C-8.36926 387.37 -18.1764 394.446 -18.1764 394.446C-18.0438 394.324 -17.9223 393.806 -17.8585 393.639C-17.5566 392.874 -17.2479 392.116 -16.9387 391.345C-16.2177 389.558 -15.4493 387.823 -14.7074 386.045C-11.8019 379.173 -11.5571 371.464 -14.0205 364.418Z" fill="#20173B"/>
<path d="M-100.503 260.679C-78.1407 282.95 -58.7668 308.082 -41.4122 334.427C-29.0834 353.144 -17.5907 372.872 -12.3831 394.629C-21.3704 401.89 -31.7312 407.533 -39.5842 416.046C-46.353 423.375 -50.8834 432.437 -55.3432 441.34C-60.9394 436.269 -66.7977 431.371 -73.5418 427.976C-80.2858 424.581 -88.0315 422.755 -95.4424 424.148L-87.2556 395.961C-87.0082 395.274 -86.8973 394.546 -86.9294 393.817C-87.242 392.522 -87.9954 391.376 -89.0603 390.575C-110.788 370.104 -130.516 347.608 -147.975 323.394C-149.631 321.099 -151.38 318.688 -153.946 317.5C-156.513 316.311 -159.479 316.521 -162.284 316.758L-178.771 318.143C-178.876 310.101 -180.12 301.882 -184.303 295.04C-188.485 288.199 -195.957 282.975 -203.969 283.225C-196.497 275.569 -187.787 269.228 -178.206 264.469C-176.242 263.614 -174.393 262.516 -172.702 261.201C-171.398 259.975 -170.244 258.598 -169.263 257.1C-164.261 250.047 -159.259 242.994 -154.256 235.94C-148.845 228.268 -146.222 229.282 -137.745 233.015C-123.484 239.273 -111.457 249.763 -100.503 260.679Z" fill="#FFC49C" stroke="#20173B" stroke-width="2" stroke-miterlimit="10"/>
<path d="M-100.193 261.019C-77.8366 283.282 -58.4627 308.414 -41.1013 334.767C-28.7793 353.476 -17.2798 373.211 -12.0722 394.969C-21.0663 402.221 -31.4202 407.872 -39.2799 416.378C-46.042 423.715 -50.5724 432.777 -55.0389 441.672C-60.6284 436.608 -66.4936 431.702 -73.2309 428.315C-79.9682 424.927 -87.7205 423.094 -95.1381 424.48L-86.9445 396.3C-86.6972 395.614 -86.5865 394.885 -86.6185 394.156C-86.9327 392.862 -87.6858 391.716 -88.7494 390.914C-110.477 370.443 -130.205 347.947 -147.664 323.733C-149.32 321.438 -151.069 319.027 -153.636 317.839C-156.202 316.651 -159.168 316.86 -161.98 317.09L-178.46 318.482C-178.565 310.44 -179.816 302.213 -183.992 295.38C-188.168 288.546 -195.653 283.307 -203.658 283.564C-196.186 275.892 -187.476 269.532 -177.893 264.751C-175.931 263.892 -174.082 262.795 -172.389 261.484C-171.083 260.258 -169.931 258.879 -168.957 257.376L-153.949 236.216C-148.538 228.544 -145.908 229.565 -137.438 233.291C-123.173 239.612 -111.146 250.102 -100.193 261.019Z" stroke="#20173B" stroke-width="2" stroke-linecap="round" stroke-linejoin="round"/>
<path d="M4.808 343.405C26.5789 341.885 47.087 342.078 69.439 348.72C70.8512 348.782 71.6489 346.695 73.0612 346.757C79.9263 348.332 86.8184 349.774 93.7265 351.174C100.423 352.564 107.18 353.845 113.907 355.18C114.576 355.315 115.252 355.416 115.932 355.481C117.84 355.7 118.873 357.315 120.048 358.626C121.906 360.654 123.77 362.688 125.621 364.708C127.473 366.728 129.162 368.571 130.925 370.495C133.634 373.218 136.015 376.247 138.02 379.523C138.974 381.124 139.611 382.893 139.896 384.735C140.289 387.752 139.339 390.752 138.407 393.64C142.133 392.77 145.568 390.943 148.37 388.339C151.173 385.735 153.247 382.444 154.387 378.791C154.908 377.227 155.111 375.574 154.986 373.929C154.661 371.802 153.877 369.771 152.689 367.977C149.557 362.71 144.742 357.737 138.623 357.065C142.737 354.386 146.381 351.047 149.407 347.181C150.53 345.869 151.385 344.349 151.921 342.707C153.228 337.996 149.916 333.287 146.376 329.913C141.052 324.836 134.784 320.852 127.929 318.186C133.703 321.941 135.712 329.635 135.062 336.484C134.895 339.676 133.844 342.758 132.024 345.385C130.097 347.911 126.889 349.63 123.756 349.111L119.428 348.574C91.4331 343.673 64.4888 334.593 36.5963 329.286C28.6529 327.777 20.6888 326.422 12.7246 325.068" fill="#7673B4"/>
<path d="M53.5304 293.665C77.2903 290.81 100.121 281.144 124.064 280.929C127.213 280.905 130.453 281.068 133.296 282.41C131.827 283.235 130.203 283.744 128.526 283.906L99.1316 288.805C96.3867 289.112 93.7085 289.854 91.1979 291.004C88.8413 292.41 86.7192 294.177 84.9085 296.239C84.3733 295.446 83.6451 294.802 82.7924 294.369C81.9397 293.935 80.9907 293.726 80.0351 293.761C78.1289 293.845 76.2478 294.228 74.4606 294.895C67.2122 297.112 59.7639 298.614 52.222 299.381C48.3751 299.778 44.501 299.987 40.5995 300.009C38.0593 300.018 31.7357 300.808 29.9497 299.081C35.7976 294.237 46.3693 294.518 53.5304 293.665Z" fill="#4444A0"/>
<path d="M134.082 270.431C136.33 269.158 138.675 267.782 139.974 265.547C141.556 262.836 141.262 259.321 140.016 256.408C138.687 253.272 136.409 250.653 134.178 248.086C131.016 244.473 127.711 240.734 123.317 238.794C129.318 237.689 135.515 238.448 141.075 240.967C146.636 243.486 151.293 247.646 154.423 252.888C155.34 254.371 155.954 256.021 156.23 257.743C156.361 259.534 156.175 261.334 155.682 263.06C154.901 266.264 153.911 269.414 152.72 272.488C159.72 274.213 165.809 278.522 169.765 284.55C172.69 289.22 174.491 295.356 173.242 300.84C171.376 309.156 163.905 313.901 157.612 318.747C158.849 313.968 158.416 308.909 156.385 304.409C154.345 299.943 151.532 295.872 148.075 292.384C143.132 287.108 136.599 282.258 129.401 282.982" fill="#7673B4"/>
<path d="M144.72 283.252C150.395 286.352 153.889 292.264 156.881 297.999C158.083 300.316 159.263 303.113 158.046 305.422L147.977 291.877C145.543 288.615 142.931 285.204 139.177 283.666C133.477 281.322 126.418 285.214 121.188 282.805C123.199 280.799 128.22 280.836 130.872 280.712C135.606 280.509 140.498 280.937 144.72 283.252Z" fill="#4444A0"/>
<path d="M146.289 243.687C141.526 240.358 135.764 238.771 129.971 239.192C133.456 242.373 138.271 243.575 142.32 245.982C145.645 247.977 148.428 250.76 150.424 254.085C151.473 255.836 153.311 263.402 155.163 259.847C158.105 254.288 150.086 246.351 146.289 243.687Z" fill="#B6B6FF"/>
<path d="M159.546 275.47C157.539 274.759 153.296 272.259 151.626 273.572C156.1 278.099 163.43 284.456 166.888 289.751C168.613 292.388 170.673 297.919 172.096 301.009C173.006 300.908 172.867 296.763 173.131 295.883C175.296 288.528 165.831 277.698 159.546 275.47Z" fill="#B6B6FF"/>
<path d="M40.8703 283.593C42.3921 283.741 43.9226 283.78 45.4498 283.709C68.9941 283.06 91.9601 275.494 115.492 275.126C121.035 275.052 126.639 275.368 132.072 274.227C136.234 273.356 140.721 271.035 141.587 266.863C129.016 271.928 115.272 273.348 101.678 273.6C97.7756 273.567 93.875 273.755 89.9944 274.162C85.9954 274.694 82.0997 275.782 78.1702 276.671C71.5437 278.171 64.8035 279.117 58.0194 279.5C52.6487 279.851 44.1858 277.923 40.8703 283.593Z" fill="#B6B6FF"/>
<path d="M28.175 300.694C46.0547 300.977 63.1239 298.897 79.6395 293.255C81.7884 292.642 83.0175 296.941 85.9031 295.653C87.3764 294.302 88.9107 291.54 91.0596 290.927C103.953 287.248 117.4 287.131 130.205 283.534L132.298 283.555C139.496 282.831 143.172 287.153 148.089 292.399C151.545 295.887 154.358 299.957 156.398 304.423C158.43 308.924 158.863 313.983 157.625 318.761C163.919 313.916 171.375 309.185 173.256 300.855C174.505 295.37 172.711 289.228 169.779 284.564C165.823 278.537 159.733 274.228 152.734 272.503C153.925 269.428 154.914 266.279 155.695 263.075C156.189 261.349 156.374 259.549 156.243 257.757C155.967 256.036 155.353 254.386 154.437 252.903C151.307 247.661 146.649 243.501 141.089 240.982C135.528 238.462 129.331 237.704 123.33 238.809C127.725 240.749 131.029 244.488 134.191 248.101C136.422 250.668 138.7 253.287 140.029 256.423C141.319 259.309 141.584 262.837 139.988 265.562C138.689 267.797 138.496 267.675 136.305 268.937L132.784 270.36C121.135 272.735 111.809 272.616 99.9466 273.22C87.823 273.819 76.4807 277.46 64.5692 279.37C58.0578 280.414 51.6269 279.269 45.0944 279.329" stroke="#20173B" stroke-width="2" stroke-linecap="round" stroke-linejoin="round"/>
<path d="M146.287 331.472C147.971 333.032 149.363 334.88 150.395 336.931C151.42 339.004 151.72 341.362 151.245 343.625C151.109 344.387 150.708 345.076 150.113 345.571C149.033 346.344 147.436 345.8 146.547 344.77C145.773 343.689 145.216 342.468 144.905 341.175C143.6 337.707 141.94 334.384 139.95 331.258C138.916 329.493 137.098 327.361 136.652 325.396C138.613 324.874 146.235 331.519 146.287 331.472Z" fill="#B6B6FF"/>
<path d="M147.587 367.364C148.524 368.606 149.208 370.021 149.6 371.527C149.733 372.381 149.816 373.243 149.849 374.106C149.939 375.306 150.124 376.497 150.403 377.668C150.433 377.912 150.552 378.136 150.736 378.298C150.868 378.356 151.011 378.382 151.154 378.374C151.297 378.365 151.436 378.323 151.559 378.25C153.876 377.184 154.721 374.172 154.135 371.698C152.883 366.443 147.31 359.682 141.434 360.28C143.681 362.464 145.739 364.833 147.587 367.364Z" fill="#B6B6FF"/>
<path d="M136.653 370.237C137.842 371.684 138.884 373.247 139.762 374.902C141.058 377.56 141.523 380.546 141.097 383.471C137.37 377.492 133.115 371.86 128.382 366.641C126.058 364.105 123.667 361.644 121.151 359.297C118.899 357.211 115.331 355.137 113.712 352.66C117.284 351.367 123.652 356.761 126.178 358.867C130.054 362.284 133.564 366.095 136.653 370.237Z" fill="#4444A0"/>
<path d="M59.0704 342.76C61.3728 343.467 63.7234 344.005 66.1037 344.371C68.2363 344.628 70.3773 344.524 72.524 344.618C76.3664 344.868 80.1857 345.398 83.9518 346.202L110.823 351.252C113.524 351.76 116.344 352.323 118.477 354.044C117.444 355.519 115.251 355.345 113.482 355.027L95.3666 351.691C89.2114 350.551 83.0489 349.417 77.0661 347.725C75.8613 347.301 74.5926 347.087 73.3155 347.093C72.675 347.107 72.0504 347.296 71.5103 347.641C70.9702 347.985 70.5352 348.471 70.2526 349.046C60.3543 345.405 49.9777 343.231 39.4524 342.592C34.2122 342.213 28.9458 342.116 23.6843 342.232C20.4344 342.294 12.6767 344.182 10.1912 341.781C12.8973 340.06 18.3922 340.111 21.6464 339.787C25.877 339.358 30.13 339.188 34.3816 339.278C42.7199 339.451 51.0082 340.62 59.0704 342.76Z" fill="#4444A0"/>
<path d="M4.808 343.405C26.5789 341.885 47.087 342.078 69.439 348.72C70.8512 348.782 71.6489 346.695 73.0612 346.757C79.9263 348.332 86.8184 349.774 93.7265 351.174C100.423 352.564 107.18 353.845 113.907 355.18C114.577 355.315 115.252 355.416 115.932 355.481C117.84 355.7 118.873 357.315 120.048 358.626C121.906 360.654 123.77 362.688 125.621 364.708C127.473 366.728 129.162 368.571 130.925 370.495C133.634 373.218 136.015 376.247 138.02 379.523C138.974 381.124 139.611 382.893 139.896 384.735C140.289 387.752 139.339 390.752 138.407 393.64C142.133 392.77 145.568 390.943 148.37 388.339C151.173 385.735 153.247 382.444 154.387 378.791C154.907 377.227 155.111 375.574 154.986 373.929C154.661 371.802 153.877 369.771 152.689 367.977C149.557 362.71 144.742 357.737 138.623 357.065C142.737 354.386 146.381 351.047 149.407 347.181C150.531 345.869 151.385 344.349 151.921 342.707C153.228 337.996 149.916 333.287 146.376 329.913C141.052 324.836 134.784 320.852 127.929 318.186C133.703 321.941 135.712 329.635 135.062 336.484C134.895 339.676 133.844 342.758 132.024 345.385C130.097 347.911 126.889 349.63 123.756 349.111L119.428 348.574C91.4331 343.673 64.4888 334.593 36.5963 329.286C28.6529 327.777 20.6888 326.422 12.7246 325.068" stroke="#20173B" stroke-width="2" stroke-linecap="round" stroke-linejoin="round"/>
<path d="M0.990249 99.436C1.58985 97.1594 2.60614 95.0141 3.98755 93.1083" stroke="#20173B" stroke-width="2" stroke-linecap="round" stroke-linejoin="round"/>
<path d="M6.44061 100.355C7.47919 99.1703 8.61012 98.0701 9.82291 97.0648" stroke="#20173B" stroke-width="2" stroke-linecap="round" stroke-linejoin="round"/>
<path d="M141.029 249.661C143.083 248.976 144.9 247.724 146.272 246.049" stroke="#20173B" stroke-width="2" stroke-linecap="round" stroke-linejoin="round"/>
<path d="M144.514 255.771C147.454 254.649 150.281 253.252 152.958 251.599" stroke="#20173B" stroke-width="2" stroke-linecap="round" stroke-linejoin="round"/>
<path d="M146.537 261.512C149.598 261.326 152.553 260.331 155.102 258.627" stroke="#20173B" stroke-width="2" stroke-linecap="round" stroke-linejoin="round"/>
<path d="M149.829 279.139C151.975 278.036 154.329 277.397 156.738 277.264C159.148 277.131 161.559 277.507 163.814 278.367" stroke="#20173B" stroke-width="2" stroke-linecap="round" stroke-linejoin="round"/>
<path d="M154.632 284.069C157.176 283.238 159.86 282.919 162.528 283.133C165.197 283.346 167.797 284.086 170.178 285.311" stroke="#20173B" stroke-width="2" stroke-linecap="round" stroke-linejoin="round"/>
<path d="M159.205 291.692C163.221 292.08 167.985 292.013 173.524 295.306" stroke="#20173B" stroke-width="2" stroke-linecap="round" stroke-linejoin="round"/>
<path d="M159.993 296.558C162.578 297.567 165.028 298.894 167.286 300.508C168.317 301.204 169.893 303.353 171.083 304.651" stroke="#20173B" stroke-width="2" stroke-linecap="round" stroke-linejoin="round"/>
<path d="M136.948 245.548C137.333 244.881 137.555 244.133 137.597 243.364C137.639 242.595 137.499 241.827 137.188 241.122" stroke="#20173B" stroke-width="2" stroke-linecap="round" stroke-linejoin="round"/>
<path d="M138.259 330.108C140.151 330.008 141.981 329.407 143.563 328.367" stroke="#20173B" stroke-width="2" stroke-linecap="round" stroke-linejoin="round"/>
<path d="M139.296 335.424C142.475 335.544 145.653 335.151 148.706 334.26" stroke="#20173B" stroke-width="2" stroke-linecap="round" stroke-linejoin="round"/>
<path d="M137.782 341.803C141.263 343.061 145.016 343.368 148.653 342.691" stroke="#20173B" stroke-width="2" stroke-linecap="round" stroke-linejoin="round"/>
<path d="M134.519 349.053C137.344 349.315 140.182 349.404 143.018 349.32" stroke="#20173B" stroke-width="2" stroke-linecap="round" stroke-linejoin="round"/>
<path d="M131.109 358.051L135.921 358.673C138.53 358.951 141.115 359.414 143.658 360.06" stroke="#20173B" stroke-width="2" stroke-linecap="round" stroke-linejoin="round"/>
<path d="M137.156 364.486C139.573 364.028 142.049 363.972 144.485 364.32C146.936 364.667 149.213 365.788 150.983 367.52" stroke="#20173B" stroke-width="2" stroke-linecap="round" stroke-linejoin="round"/>
<path d="M138.795 372.708C143.303 372.853 147.72 374.017 151.715 376.113" stroke="#20173B" stroke-width="2" stroke-linecap="round" stroke-linejoin="round"/>
<path d="M143.038 381.434C145.454 381.962 147.744 382.954 149.781 384.355" stroke="#20173B" stroke-width="2" stroke-linecap="round" stroke-linejoin="round"/>
<path d="M200.756 288.401C197.541 291.734 193.46 294.103 188.971 295.242C184.497 296.37 179.887 296.861 175.275 296.699C169.802 296.642 164.071 295.994 159.645 292.807C158.05 291.584 156.584 290.201 155.268 288.681C152.112 285.239 149.031 281.729 146.03 278.159C145.383 277.462 144.862 276.659 144.491 275.784C144.193 274.789 144.125 273.738 144.292 272.712C144.826 267.872 146.743 263.29 149.814 259.513C156.808 266.435 165.64 271.206 175.262 273.259C183.337 274.856 191.669 274.583 199.619 272.461C204.296 271.308 206.446 272.634 205.805 277.643C205.242 281.656 203.483 285.405 200.756 288.401Z" fill="#D89261" stroke="#20173B" stroke-width="2" stroke-miterlimit="10"/>
<path d="M-25.6225 72.5428C-25.6069 74.0888 -25.3953 75.6265 -24.9927 77.1195C-24.4103 78.7015 -23.5865 80.184 -22.5508 81.5143C-19.0855 86.404 -15.1383 90.9337 -10.7686 95.0354C-9.04111 96.7808 -7.06417 98.2601 -4.90243 99.4248C-2.51316 100.488 0.0293615 101.166 2.63031 101.432C6.21616 102.064 9.88462 102.063 13.469 101.427C18.5258 100.32 22.9047 97.2149 26.8698 93.8658C28.168 92.8172 29.3752 91.6608 30.4787 90.409C33.9609 86.2816 35.2373 80.8122 36.464 75.5104C26.4252 72.3951 15.2271 75.646 5.20548 72.4607C2.05522 71.2782 -1.01834 69.9003 -3.99727 68.3351C-8.2997 66.4298 -12.697 64.7465 -17.1718 63.2921C-24.2269 60.8739 -25.9163 66.5728 -25.6225 72.5428Z" fill="#D89261" stroke="#20173B" stroke-width="2" stroke-miterlimit="10"/>
<path d="M166.237 287.946C161.356 287.442 157.553 283.589 154.391 279.813C151.902 276.846 149.472 273.647 148.538 269.892C147.134 264.234 149.501 258.077 153.627 253.956C157.753 249.836 163.418 247.573 169.16 246.503C172.478 245.794 175.894 245.66 179.258 246.104C187.868 247.423 194.877 253.681 200.416 260.405C202.655 263.128 204.823 266.145 205.252 269.645C205.922 275.108 202.232 280.104 198.349 284.015C196.221 286.307 193.739 288.242 190.998 289.749C186.55 292.008 181.315 292.316 176.382 291.547C171.449 290.779 166.758 288.988 162.094 287.213" fill="#FFC49C"/>
<path d="M166.237 287.946C161.356 287.442 157.553 283.589 154.391 279.813C151.902 276.846 149.472 273.647 148.538 269.892C147.134 264.234 149.501 258.077 153.627 253.956C157.753 249.836 163.418 247.573 169.16 246.503C172.478 245.794 175.894 245.66 179.258 246.104C187.868 247.423 194.877 253.681 200.416 260.405C202.655 263.128 204.823 266.145 205.252 269.645C205.922 275.108 202.232 280.104 198.349 284.015C196.221 286.307 193.739 288.242 190.998 289.749C186.55 292.008 181.315 292.316 176.382 291.547C171.449 290.779 166.758 288.988 162.094 287.213" stroke="#20173B" stroke-width="2" stroke-miterlimit="10"/>
<path d="M-23.6403 64.4865C-23.5252 62.3542 -22.9426 60.2735 -21.9338 58.3921C-15.5041 45.3241 1.45279 38.3149 14.9871 43.7062C20.3634 45.8455 24.9346 49.5908 29.1496 53.554C32.2561 56.485 35.3404 59.7616 36.4639 63.8861C37.5873 68.0106 36.5662 72.4866 34.9228 76.4613C29.4001 89.661 14.0526 101.014 -0.778656 95.3468C-10.3902 91.6772 -23.7311 74.6067 -23.6403 64.4865Z" fill="#FFC49C" stroke="#20173B" stroke-width="2" stroke-miterlimit="10"/>
<path d="M186.69 261.43C178.888 262.964 171.028 264.168 163.109 265.042" stroke="#20173B" stroke-width="2" stroke-miterlimit="10"/>
<path d="M186.184 260.862C185.914 263.822 189.663 265.812 189.937 268.803C189.918 270.428 189.279 271.985 188.15 273.153C187.867 273.604 187.482 273.982 187.025 274.254C186.568 274.527 186.052 274.687 185.521 274.721C184.81 274.59 184.16 274.237 183.661 273.713C180.396 270.877 177.48 267.661 174.977 264.134C174.644 266.433 176.837 268.574 176.42 270.869C176.011 272.229 175.111 273.387 173.895 274.119C172.824 275.066 171.473 275.637 170.047 275.747C167.537 275.7 165.885 273.173 164.765 270.93C163.867 269.122 163.014 267.295 162.207 265.448" stroke="#20173B" stroke-width="2" stroke-miterlimit="10"/>
<path d="M192.491 263.396L186.763 264.319" stroke="#20173B" stroke-width="2" stroke-miterlimit="10"/>
<path d="M194.083 268.298L189.321 268.797" stroke="#20173B" stroke-width="2" stroke-miterlimit="10"/>
<path d="M163.009 267.358C161.408 267.253 159.801 267.459 158.278 267.964" stroke="#20173B" stroke-width="2" stroke-miterlimit="10"/>
<path d="M165.234 272.521L159.972 273.139" stroke="#20173B" stroke-width="2" stroke-miterlimit="10"/>
<path d="M19.0046 59.6103C15.52 66.5746 12.292 73.6611 9.32033 80.8696C8.28467 78.4815 6.8864 76.2675 5.17516 74.3058L-1.83929 65.3805C-3.58306 63.1672 -6.58441 60.4249 -2.33686 59.5431C1.02533 58.8489 5.04057 59.2517 8.45698 59.2673C10.1468 59.292 17.9659 60.5622 19.0046 59.6103Z" stroke="#20173B" stroke-width="2" stroke-linejoin="round"/>
<path d="M7.15411 60.2712C8.91027 66.5095 9.64563 72.9903 9.33154 79.4621" stroke="#20173B" stroke-width="2" stroke-miterlimit="10"/>
</g>
<defs>
<clipPath id="clip0_5041_20335">
<rect width="398.703" height="349.62" fill="white" transform="translate(-17.525 0.911194) rotate(47.4949)"/>
</clipPath>
</defs>
</svg>
